<mxfile host="Electron" modified="2024-05-02T08:28:03.000Z" agent="Mozilla/5.0 (Windows NT 10.0; Win64; x64) AppleWebKit/537.36 (KHTML, like Gecko) draw.io/24.2.5 Chrome/120.0.6099.109 Electron/28.1.0 Safari/537.36" etag="yOd92vhptqH_e4LhoTD7" version="24.2.5" type="device">
  <diagram name="Pagina-1" id="mwWAJebHkJ0sdJxZir01">
    <mxGraphModel dx="1434" dy="844" grid="1" gridSize="10" guides="1" tooltips="1" connect="1" arrows="1" fold="1" page="1" pageScale="1" pageWidth="827" pageHeight="1169" math="0" shadow="0">
      <root>
        <mxCell id="0" />
        <mxCell id="1" parent="0" />
        <mxCell id="s0d_2PxAGjj1B1G9Rtwe-3" value="" style="shape=image;verticalLabelPosition=bottom;labelBackgroundColor=default;verticalAlign=top;aspect=fixed;imageAspect=0;image=data:image/png,iVBORw0KGgoAAAANSUhEUgAABOsAAAObCAYAAAACGQULAAAAAXNSR0IArs4c6QAAAARnQU1BAACxjwv8YQUAAAAJcEhZcwAADsMAAA7DAcdvqGQAAP+lSURBVHhe7N0HgCRnfSb8p6tzmJxndjZn7SqtslYBCcEKkBAKh8EWRiQbzv6wufNxPn93mDt8Ppz1GVvGBgsLm2CdMEaEBYEyymml1ea8OznPdA7VX/3ffnumZ6Yn9Ez3bM/u85Nqu6q6urq6Zre7+pn/+762m666LA0iIiIiIiIiIiI66wx9S0RERERERERERGcZwzoiIiIiIiIiIqIywbCOiIiIiIiIiIioTDCsIyIiIiIiIiIiKhMM64iIiIiIiIiIiMoEwzoiIiIiIiIiIqIywbCOiIiIiIiIiIioTDCsIyIiIiIiIiIiKhMM64iIiIiIiIiIiMoEwzoiIiIiIiIiIqIyYbvpqsvSev68YNjt8Hh8cHs9cLrccFmTw+mE3WFN1n02w4DNZlPbptNppE0TqVQKqWQCyUQC8XgMCWuKRaKIRsMwrfuIiIiIiIiIiIiK4ZwP6+x2B/yVlfD5K6zJD5fHq+8pjng0gnAoZE1jCI2OIpVK6nuIiIiIiIiIiIgKc06GdQ6nCxVV1WryBSr02qURDo5hbGRYTclEXK8lIiIiIiIiIiKa2zkV1lVUVqOqtg6Bqmq95uwKjgxjZHAAY6PDeg0REREREREREdHMzomwrqa+ATV1DUVv4los0lR2aKAPQ/19eg0REREREREREdF0yzqsk5CutqEZTpdLrylviXgcg33dDO2IiIiIiIiIaNm7/M5PYm2VNRPvxBv/8iMcvOC9uPOKVjitVaOH/wE/eVZtRgValmGdNHeta26Fx1uelXRziUYiGOjuZPNYIiIiIiIiolw5Yc9Uia4X8b3db+olKgflFNY57A7AphfmIZVKIZ0uz0hsWYV1MnBEY0sbKmtq9ZrlbXRoEL1dHRyIgoiIiIiIiEjMEtYpIwfx3e89rReK5Xrcet8mVCKGnpcewpNv69XlZPy8DOPYgw/jZb36bCuXsG7lmvW46oYbYbPNP62LhsN47If/jnAoqNeUD0Pflr2qmjqs3bT1nAnqhLwWeU3y2oiIiIiIiIhogoQ9331QpoMY1evgrcAmPVs0O5tQqWfL1ab2upkDzPOcw+nE5TuvQzKZxFB/P4YG5p4G+/tUl2prNxb9b1NRLIvKuuYVq1BdV6+Xzk3D1l+W7jMn9RIRERERERHReShfZVbOuqlNYccru7Tc+ydVfb1h7Wa8Ym+igm7q4zNyq9eyVXc5JlX3Tdyf6DqIwbpNaHJljv1Y4CO4uMVt3SP760F9zn5yq87yHcPE67gQN/7qlWqfk2Qr2azZTbuyz5M1W4Vgzv5y9pG7ftbnnvSYeVTW4R58cEO12jb3NWNndv3iKwVdLjfe/6Ffw2BfHx7/8aN67ezS1n/v/9C9OHHkEPa8/KJeWz7KurLO7fFi9YbN53xQJ+Q1ymuV10xERERERER0vqvc8El88D5rUuGPBFD/kBPUSZA0PeRytlyJO3ddqJey6nKCOuFG08XvnbtCTwKlqUGdqNqED/7q9Mc7WzJB3XRetP/q5P1UbrgHl6u5C+HPEwPkfx1TZc7B5KBOWK/vik/i1p16cZI30TUQy8y66tByQWYWF7SjVh17DIOnrXMsodt9eUJCVysuvi977PPwbM94VWRl4/V6Dri8MRPgYaSneE16bZkQLvc/XyCgKuhy18l/evOyVbZhnb+yCqvWb4LH59drzn3yWuU1y2snIiIiIiIioqwpAdTObDCWCfFUc9nDmUEcnXXtk4M0lxuRw5ltjo1k12WCqpe/N/G4iX1JpdeFuHGVDpSkakw1x83Z1tWKtdPCMKkSy2w3ua82NzDwolr/RpcOylCNevX4N/Hkv+h96yl7jJnXkbl/4nH6OaSKbfwcZKrWMo9/ET26W/zKVfkDyYO7T+gAzY3a9kwgON7MNj6ALqk43JQNNyde03df6kRCratG+5xBYtbTOJY99qomHfJdj3ode4z2Fqf/wXx91fn8Abzr9g/g1rvuUdV3y0lZhnXSh1v7mvUw7Ha95vwhr1leO/uxIyIiIiIiovNZ3gBKV6RtCmTL0TIhnqrA080t4fJNroaLd+KYDs9e7s0Gc3OphlcHYYmB0+PNPnMrxbyBKYHVjFViwzitKwIPnh7QgdcEacaqjl9P05vl5jdxDobRPx4O5lbOTTkP455G/6RA8EK01GXCrNGT0sQ1p9ov9zW9fRqD+ufg9OlzPQ8Tr1kHlNk+AnN+LouRSMTVQBEvPzs5+IuEQnjrtVdUUHf9Le9eVi0Zyy6sq6lvQMvK1Xrp/CXnQM4FERERERER0fktJ4CCF/4LgErfbJVSmW0W5YIKay+FSYTnGwTm2HnPRDNW6QvvwZzqvznMfg5m9/JBXSUngd54E9hs6DcRVBbF2z/Caf2aJODMNoGdFIIulmmq4qfq2rrxqaq2FgO9PejuOKPylatveAecy6TCrqzCOjl5TW0r9RLJuWBgR0REREREROe3icqvrNFwNrzLaQY7Ps00uEIBcqvIcpvV5owcGwlm+89buPHquPFBK/L3YZfPRJVgtkmtyDlX8fDEKLpTjb++arRfrJvAjlfRTVTeTTRdtYyHeoUHk9ljddZdjHZVOaj7xisCp9OFd952B27JM8n65rYVqplsY0srdt70Tv2o8lY2YZ00+2RQN52cEzaJJSIiIiIiovPN+AATuQMdjJxQQVxuv2vjzWD1lH9ghVkMhXUzzey+pKntm3jypA6k1KAKev/ZprZFasI5TgatUM+RZ1AHy8FgRM9VY61sJwNcPHswp3mwPr6cx2eatM5koloxW22W23/ceOVd9vlkGh+kY6JZ77xlmw9bz5XbN14xpFJJ7H3tFdXkNd909OB+tV0iHsebrxZtOIuSKouwTgZUYNPXmcm54aATREREREREdD5LdL2oq8/E0/hJTl92i/L2j/D2+AAOOZ59OGdQhQnqOGSAB728GAd3PzSp2avsO28zWOtYpq/PDD4xfX1mUIjJg1xMNxF4WqaGj9Y5+d6DB6dX5qmmujIAR6FyBpqwzB4kFiaVSuHAW2/iYJ6p4+QJrFq7HslEAs89+QsM9PXqR5U3201XXZYZs/YskQ7+ZATU83EwiUKY1l++k0cOIhbNpulERERERERERAt1PW69b5Nq1ish4fcKrZYrkAykkemfT8LEhQR++Ukz2JveeztGBgfwwtNP6LWSN3lw+wd/FaaZwtM/242+nm59T8YdH7oXx48cwp6XX9RrysdZr6xraV/FoG4e5BzJuSIiIiIiIiIiWqxNu1br/veK13/czK7H2vGBNGYaNXdhpD+6yqoq+Csq9JqMeCyGN156AU/9bDf6e3r02uXhrIZ1zStWwePz6yWai5wrOWdERERERERERAtx+Z2ZPuiyo9Amut5Y/IAcM7ngvbhT9XmXqeBTVXXjTZlLK51O4/D+t9Hf04209d9yYl+zovUP9fySkkETGlpa9dLSME0TiUQC0VgM0WgUYWsKhcMYC4YQDAWtW5lC+jYzHwyF1DahcMR6XBSxeFztI5lKyU9eJbgyLRWPz6c6RWRzWCIiIiIiIiIqVNuWHajxZOZL3vy1cSO2tFUg056yuM1fs6Ql4ubtFyGZTCIUDKKismruqaIS7avXYGigHz2dHXpP5eOs9FnncLqwdtPWkjV/lc4FI9EootGYCtgknEvEJWBL6i2Ky2F3wOlywuN2W5MHHo8bXo8H9hK9Pum/7tjBfUgmitGTJhERERERERHR8vWOW9+H+sYmVU03H7KdYRh44anHcfrEcb22fJyVsK515RpU1tTqpeKQSrihoWEV0sXLJMRyu92oDARQWVkJn9er1xbH6NAgOk+V318oIiIiIiIiIqKlJEVhdQ0Neml+pNXiUH9/WTaRXfKwrqKyGm1r1umlxRscGsbpjg5EIlG4XC44neU5WIVU3DU1Narwrlg6jh/F2OiwXiIiIiIiIiIiouVuyQeYqGsuXj91Pb19OHz0qArqhGEsXd9xhZLmuCdPncLg0JBes3jFPJdERERERERERHT2LWlYV1PfAE8Rm4MODg/JGA/j5ts2+WwaGRvTc4sn51LOKRERERERERERnRuWNKyrbWjWc8Vhtzv0XMYyyOpgN4rbTLfY55SIiIiIiIiIiM6eJQvrpALM6XLppeJw2Kcevqlvy1exwzo5p6yuIyIiIiIiIiI6NyxdWFdX/EDJ4XDquYxlUVnnKP4AGKU4t0REREREREREtPSWJKyTEWBdnuL1VZflmBZ8lX9aZzeKf8rl3Mo5JiIiIiIiIiKi5W1Jwrqq2jo9V1yO5dhnnb34lXWiVOeYiIiIiIiIiIiWTsnDOofThUBVaaq+pgZfy2E0WEeJwjo5x3KuiYiIiIiIiIho+Sp5WFdRoqBOOB1TK+uWQTPYEvRZl1XKc01ERERERERERKW3rMO6UjUpLaVSHjPDOiIiIiIiIiKi5c1201WXlawczW53YMO2i/RS8cXjcby25y29ZL0YG+DzFX8gi2LavGEDnM7Jo9gW0+G9e5BKJfVSmanchCtvuhgrazLNdc1gN4688Bj2nFaLxdO+AzdctQmNgUwwmhg6jr2PP4sjo2qxTASw/vqbsG1NFZwSmSeC6D34Ep56uSNzNxERERERERGdl0oa1lXW1KJ15Rq9VHypVAovv/aGXsrw+8s7rLtgyxYYkiqWSOep4xgdGtRLi7Nx1wdxUcsi+8EbOYKHv/e8mt3yng9jW9OUysLR43jqkWfRqxeBq/Hu+9ajUi/NzwiOP/gDvKLmm3HlXbdg5ZQdmD1v4JEfTwS7Z91Fu3DXpQ1TSluDOPXTf8OLnXqRiIiIiIiIiM47JW0G6/NX6LnSkCalhjE5+CrnbutsNltJgzpR6nO+GH5PnibAgVq06dniqIXHo2dzGJUNKF1svAAVrjz/+AKoXqVniYiIiIiIiOi8VOKwzq/nSmf6iLCmnis/S9HH3lKc84UKRVN6LkdwEMVt+DmIaFTP5jBH+3Bcz5eFsTim/00NYvikniUiIiIiIiKi81LJwjrDbofLU/omqY4po6uWc2XdUoR1cs7l3JeHOHoPTTQ93f/s8zjSH9dLmT7rDr2U2wS2GLrx4lNvoDs4EQxKn3V7ni2jJrBiz7N4+cAgEtnETvqs2/sSm8ASERERERERnedK1medNMdcuX6jXiqdt/cfwFgwpJcAj8e1JKHYQvh8PqxbvVovlc6pI4cQDo3ppYXzN69EnX/uc2lv3IpLN9dOS34TXa/isd37MPHTmY98fdbFMbD3JRyZsSu+OEaPdmBYLxERERERERERLVclC+tq6hvQ1LZSL5XOgUNHMDwyopcAt9s1rdquXFRWVGBVe7teKp2ejlMY6u/TSyVWuRU3vHcHGqf2Exftxp4fPYZDBY/Amj+s633pu3jqbb1IRERERERERHSOKlkzWKfLredKy+mcHMyly7gdrGEsTYi4VOdeBkTYdt3F04M6CdfeXEhQR0RERERERER0fitZZd2K1esQqKrWS6Vz4tRpdPdM9HrmcjngdDr1Unmpr6tDS1OTXiqd4Mgwzpw4qpdKp2Xn7bhmQ9W0xDd04nH8+Inpw0Zs3PVBXNTi0ksZ0lT2+7v36SWx+Mq6y+68F2uq9II2evib+OmzemGq+vXYduF6tNVXIeB1wch5QWYijshgN04dfgt7D8/QDveCW3DHFc2Y9Lcu3o09//IYerfsxJUXr0SlHgl39JB1HL+0ZmZ5zCG9OOs2lWtw0ZXbsaalCuN5dSqO6FAH9j//LI7063UzWexrJiIiIiIiIqKSKFllnWOJAjOnw6HnMsp6gIklqqxbknPffjUuXDs9qMPocbyeJ6grTwGsv/523PHeq7FlVQMq/ZNDK2E4XfA3rcSWne/FHXfsxPrJKeLstt2CG69aMx7UKTZ9uxjtV+CW23Zi44qcoE7YXfDUr8El77kdl83Y2rrEr5mIiIiIiIiIFqVkYZ3dsTRh3dTBJMq5GexSDXxR+nPfhmuuWo/KqS8nNYLjLz2LLr1Y3gLYuOu9uGRdFZzz/FfgrJEg7BZsnFd4FcD6i6dUxRVFAGt2bkL15ALFyexVWHXpDvj14oRSv2YiIiIiIiIiWqzShXVLFExNHUyirCvrliqsK+nzSOCzE20BvTguhdFjr+KV03qxqFxovOJe3HNf/undO/VmBWi89iZsn9IkN8tMpDKTqVfk8jZj+3UX5wnCpnAF4C9FZmrtt1L3EaiOMZWZn8qobcOWKQFbyV8zERERERERES1aycI629S2dSXimNIMFijnyrqlOSelPPf+bVdja57Axxw6jtefXS7NX7dj25rpTXjNUAf2/+Tf8Mg/fysz/dtj2H8mgqn5ldG4Hhet0wuzSiHadRCvPPpNPPzgN/HYz9/A0R5912JE+3DoKX2cD/0bXjw6Mu0YgSrUbNazylK9ZiIiIiIiIiJajJKlOjZbMTrnmhubwU5XsnNfeTGuzNe0M9GHg48/j4lhPsrcpW2omfoizEEc2/049nYH9QrLaDf2PvYszkwb1daLujVr9PzMEl1v4PHdL+G4Huxh+PRbOHI4M79wKQzs2409x7LHGcSpp/ehN6IXcxi5meoSvWYiIiIiIiIiWpylKfUqoekDTJRvWOdYorCuNJpx2U1bUTctqYuj941nsXdauFO+VtYGpleY9Xfg9byvoRt7+3LCLM0TaNZzMwmi9819COmloon34cwePT/uCEbzhHW5luY1ExEREREREdFilSysW6rQbHplnZ4pQ0tVWVeKc9+y8wqsqpl+/Imut/DK3unBTnHF0ftSpilpvumnz+rN5skzpZ9DEQl367npQoNBJPT8uLn+5cSD6O/U80sgEovrufyW5DUTERERERERlYDN+m8qWZdv/bmgdGFd3p7qi296n3XlG9gtWVhX7HPffgMu2TC9vzNEu7HvuRJUj5Ublx1L85MrI+fjayYiIiIiIqKykQnibDAMAw6nEy63G263B26PNVm3TpcLdmu9dAV2roV2tpuuuqwk0da6LdvViVsKL7/2OlKpiYDK6/VYP8zy+kEZhh0XbN6kl0orEY/j6P639NJibcUNH9qBRj0C6YQIup/9v3imgD7YNu76IC6aMjhFoutVfH/3Pr0krsa771uPyQOZSmXdd/HU23pxDpfdeS/WVOkFbfTwRAXeynfejSvbvZkFzex9C4/86A29NFnjOz6AG1ZPHv520vYX3II7rpjSl1+8G3v+5TEc0ovTzOcxBew337kt6WsmIiIiIioirz+Aqpo6+AIB6wv5tC8fRHSWxWNRhINBjAwNIBIqZeu6bJaTRmNzC1auW4+mllaVL0muou6VP9JSqJWGaZoIW8dz6vhRHD98CLFoVAV36TIefHQ+SlZZl0pOa0RXMsthRFhHnmaIpVK8cx/Axl3b8wR1QOjE8wUFdeXk1GBw+minNc3YNjkh1Nqwvn5yaCWCI0f03PJwPr5mIiIiIloemleswqr1m1BdV8+gjqhMyb9N+Tcq/1bl32wpSMjmdDmxeft2vPuOu3DDu9+DtRs2wR+ogNPpUtmPXSZ75laq7STEq66tw4U7rsD77vkQbtz1XrStXj2+v+WqZGFdMrF0Yd3F9UOo9UT1kqSreqZMVLni2FK7dCMwFOvc+7ddja1TqrWU0eN4/YkOvbAMvdaBoamnyNmATbfcgPX1ellUrsFF792Jtqm5lTmCgfHRWJeJ8/E1ExEREVHZa1+7QQUARLR8yL9Z+bdbLNlQbeW6ddj1gbtV8FZVXZNp3qonaQqbu5y7Pku6HmtsbsY1N96MG9/9XlTWWPtYpoGdfc2K1j/U80Xl8flVKfNSWGE7iq2BDqypHEXAEYfdYUfCdMI8Sz8Uh81Egy+CtdbxXNIwgK11Q/B6PBgxVugtSis4NoLQ2CLDwdarcdO1K+HLF+e6a7DykotwwXymC5qQfOsYBqyH1a3fhuaKyRWGZrALB4706SXRjvWX1MKtlzJSCHW8jZO5m82idctFqJnyC7nY4Js4ekovoBfRunVYWT05iLS5q9Cy6SJs2bYNWy/cjq1bV6M+ML0iMtH1Nh5/I+dgGtdhc1tgch9vqSB69OvOaz6PKWC/+c5tSV8zEREREdEiSXVOpfWFnIiWH+k/zuF0ITg6otcsjIRpdqcDO29+N7Zsv0hVzWUDOAnj5iM3vMsu+/x+rNu0BWPW8cm0VIOgFkvJKusS8ZieKz3TlmkGW+FIYEv1MG5o7cT71x3HratO4ZqWbmyvG1BBXrMvjApXHC4jpbZfDNlHpbUv2aeEctvrBtVzyXPeYT339W1d2Fw7jEp3ZpTOlG1Sz2MlVZRzv7YBldMzm3NG1xMv4fhQ/r8HhtOemfL86zBHjuDFn+b2sbd8nI+vmYiIiIjKkxR2sKKOaHmTf8OLKdKSoM7r9+PWD9yDptZWFajlBm4Lkft4ma664R245Mpr1LrlpGRhXSwy0Sy11FK2yXVYaVN+wEDAlUBbIKRCs8ua+nBdWxd2rTqN9687gbvXH8X7157Ae1adwrtWnsZNKzpwY1sHbmjrxPWtmUnmZd3N1n2yzXtXn1KPUY+19vFua1+yzx3WvjfXDqnnkufM93cqhTzNSUtkKc/98tWBV76/G3vPTO/LLb8UQl378Nz3nkeXXrP8nI+vmYiIiIjKkQwmQUTL30L/LUtQF6isxI3vvhVen29SyJaVrYbLDiQhUzo9cSvrZ6qYy93Puk2bcdk116nnXC5KFtZFo2E9V3rmlLBuPgNMyM/NZU/B70qgyh1HnTeKBl8Ujb4ImvyZSeZlXa11n2zjcybUY/KFcXNJTR7Ts6SW8twvb4PY/9i/YfdPXsXxrkGEoinrH72+S5jWcjyC0a4j2POTH+DHu189B0Kr8/E1ExEREVG5kVFfiWj5W+i/ZZthYOfN70KgskqvmQjYckO47HwkFMLYyAhGBocQCgaRTCbV/SJ3+1y5gd3ajZuwafuFk9aVM9tNV102d7K1QGs3bYXL49VLpVMbfRu1kT16yXpRThfs7qkB3tnVa2zFoH2dXiqdeDSCYwfZZJGIiIiIiMrX5ot26DkiWu4O7HlVz82PVLjtfOctaG5rHw/PcoM6mZfbVCqF44cPYv+bbyASnlyUZNjtWLFyNS656mq4c0aRzhfG5QZ5P//hv2Owv/z7Yy9ZZZ0Ih0J6rrRSxpRgLj2/Rn5LybQtTTPYpTrnRERERERERESFamhpQWv7qrxBXfb2wFtv4ocPfwevv/A8IuGIWp/LTKVw+sQx/PBfv43nn3wcyURiUiiXayLAS6uRYh2OzLgH5azEYd2Ynistc2oT05LVCi5ccomawS7VOSciIiIiIiIimi+pqHM6Xbjsmp2q3zm1bkpQJ81bJXx767VXEI9Gkbb+y0Zt8vjsf7IkjzFTJs6cOI5f/PhRhENBtS475co8j0012910wXa9j/JV0rAuNDqq50pDSiKHRkbQNTi1mqz80rr+4RCCwaB1zKWt+iv1OSciIiIiIiIiWoj2NWsQqKhU4dnUoE7sff1VFb6pASQkqLMZqKiuxsat23Dl9Tfimpveie07Lkdjc7OqkJNt5L/RoSE8ufvHSCYTek8zW7V+o+ozr5zZ16xo/UM9X3Rycn2BCjhdxes/LhgMoaevD6fOnMGJU2cwMDCIwWAcbf4gvPaU2kZ+3oZz6UZfnctQ1I3XurwYGhlF38AAxoJBJJJJ2O12OItYfhkOjmF4oPzbXhMRERER0fmtvrlVzxHRctffM/9hCS++4mr4/P5JYZ2QwO70ieN48+WXVPgm5H4ZxfWKndejuW0FKqtrUFFVhYbGJqzZuAmr1q3H0YMH5MHqMdIUdmRoECvXrpVHT9q/yC673G4ER0cxMjyklstRScM6IZ3+5Y7usRBSQdfV04tjJ06gs7sHY2NBJBITI3+YaRuOj1UhaRqodMXhNNIwXGc/rAvHndg3WINXextg5hQxSllnKBzG4NAQhkdGkTbT8Hg8MKb8RSrUYF8vomH2WUdEREREROWNYR3RuWM+YZ00O/X5A7j4sitUVVs2OMtW1RnWuhefegKxaFQti6tvuAkr104M1Cnb5AZwDqcT6zdvxanjR5FIxNW6sdER1R+ex5sZ7HRqYJfl8flw/PAhvVR+Sh7WSbJZ29CklwojP7TOrm4cOnoMwyMjSCYzlXP5SGDXH/fhcLAB/YkqBBNulcVKcOewpqUQS9rRH/Hg2Egl3hqoxZsDdRiIeqzjmDmEkyAyGAphYHBIbeWz/kLN9JdpLt1nTsE0Zz5HRERERERE5YBhHdG5Y75h3dpNm9QIsGpZ5x5yK9lPb1cnDr79lqqQk203XrA907dcznZZueukQKy+oQknjx1R+5HH2h1OtKxYMb5NruyytHQ8cmCfKp4qRyUP6yQ88nh9cHkmhtKdD6k+23/wEPoHBseT1pnY7QbcbqfqqNDhsCNqujAQ9eLUWAUODlfj6EgVukNeDES8GI65EU46EEvZkbCmlKkr3qyfl5qb/HOEJH4pa6VU7UWsx4USTozGrf1HPOgM+tVzHB6uwpv99dg3WKuW5bmjqcKat8prlNAuGAqjqrJCJcaFCI4MY3iwXy8RERERERGVL4Z1ROeO+YZ1Wy++VPVXp5Z1aKYCNmteBpSQfudkS8lDrr7xHXA4nOq+qYGbyK6TW2lWO9jfp5q2ingsig1bLlDz+R4rJKyTJrTZirxyY7vpqstKHiNWVFajbc1E6eJ8HDpyFINDw3opP8OwweVyqbCuWGxIw7BlTolU681WFVcqVZWVWKlT4PnqOH4UY6Ozny8iIiIiIqJysPmiHXqOiJa7A3te1XMzkwDu3e+/ExVV1ZMCtGxx1o+/9zCCoyNq3uPx4rYPflhtN1PYlpUN+w69vRevv/S8Xgu8755fgc/nzzuQRPY5n3viF+g4eUJV85Wb4qVcs5AQKR6N6KX5kWavs5GATvp5K2ZQJyScS6UNNZ2NoE6Mjo3pufmRc8ugjoiIiIiIiIjKjVTVwSbNU/O3QJQWmalEZhRX2VYGkZgrpMuS7SR88/r9ek2G9H03WwQnj6msrpYnLEtLEtaJoQJHKZW+22YiPzO3261uz0XeApsMF3puiYiIiIiIiIiWioRwNpsxXtWWS9ZnK+Ckyi0amX+xV3Z/Ml5CLtWEVs9PlQ0CnU6nui1HSxfW9fchEZ9/W+B1a1ZbJy5/6poZAUQvnGMcDgdWtLXppbnJOZVzS0RERERERERUniRUyzRZnUrWBSoqVKAnIuFQJj/KE+zNZHhwQM9lRon1+nyZSq88sgGfaZrqthwtWVgnBvu69dzcvF4vtm/dgpqqymnnV06oWaYjdixGRaACG9auhdvl0mvmVsg5JSIiIiIiIiJaapKPzTTyqoRnbatW6yUglUxheGhQhW35KvGycu/rOHVSV+/ZUN/YpAK7ucTjMWsneqHMLGlYJxVghZQzyuARmzZuwJZNG1FTLW2WM+vl5yEndZaf2TJiQ2VFBdatWYPVK9tVZd18yblkVR0RERERERERlStp2ppOm5lwLA8J2NZu2ASny6UCN9n+xaefzPQ7l5bHZqasqcuvPv8sQsEx/Txpta+5yHMO9U9U45WbJQ3rxEB3p56bPwmzNm1Yj0su3I7VK1egsjKgfgBR6weXTKb0VsuHKvH0+dHa3IzNGzdgVXv7rH30zWQh55KIiIiIiIiIaClJhjM8ODg+nyX5iJDBJ1asXqPmRSQUwgtPPzlR8GU9Rh6XnUQqlVKjwB4/cthaUnV18PkDaGptm/Qc+ZjWY0eHh1TAV47sa1a0/qGeXxLxWBQutwfuBYRTdrsdgUAADfX1aG5qUvOyzkyZ1g8p09Y4W31XTgzDDr/Xh+qqanXsbS0tqK2pUQGdPc8wwvMxOjSIgV42gSUiIiIiouWnvrlVzxHRctff06XnZiahnEzta9aOL+eScK2+qRknjx1BKpFUIVpobAwnDh9S+ZHb7VGPke1U3/0D/Xj5uWdw7NCB8WBOwrrV6zegeUW7GutArZshJIrFojiw9y0VApYj201XXbbkR+ZwurB201YYdrteUxwx6wcWt6ZYLGZN1nwygUQiodbNlaoulvwFkGa7MpqIy+G0/iK51Ii1MrmKPMKIJMDHDu5DMjH/ATuIiIiIiIjKxeaLdug5IlruDux5Vc/NTgK023/lV+FyufOGdTKNjgzjp99/RAVvuVVvMlqsPEatl2314BD5KuO2XbIDWy+6ZDzcy/dcXWdO49mf/yzv48vBWQnrRFVNHVpWTnQgWGop6weZTCbVJKWSUomXMlPqB2xaPygZtMK6schfEPUQ6weq/lS38pfKkL8Y1q3dsMNut27tdtXHnEwLrZBbiK5TJzAyVL5tq4mIiIiIiGbDsI7o3DHfsE5cfcNNs1bXidHhYTz92G6EQ8Gc0E62nRxfZe+TwSSkGk/IsqzfuG0bLrrsSrVOZJ8r+xxP7P4R+ru71fblaMmbwWbFohFVYeeR4XSXgARtDrtdVblJtZvX41HNUP3W8wf8flQEAuNTZUVmyl0n28i28hh5bLZiTvYp+14qwwP9GOidu8SUiIiIiIioXLEZLNG5Yz7NYIWEaNLyUZqqquUZshSX260GiZACqVAwiGQ8YT0yQ/Yh/wmvz4dVa9fjmnfcDH9FhaqWk/skgBvs7UMqmURDc4t6HplUUGdNA/192Pv6/APGs+GshXUiODqCQGWVCu1obtFwCGdOHNVLREREREREyxPDOqJzx3zDOiGjttY3NcEfqFDLuYFdNlQTEtQ1Nrdgw+atqK6rV4VeXp8fNXV1aGlfiW0XX4JLrrwGrda8dEdWW98An9+PztOnZE8qzhvo60XripXwWuvHWfvf88qLGBse1ivK01kN60QkHEJVTa1qXkozk37qJKiTZJiIiIiIiGg5q7S+A8roj0S0vMkgokP9fXppbhKjDQ70Y8OWrXrN5MBOTA3wKiqr0NK2AivXrlMjxkqI5wtUqPvUtlIxZ91W19ZZ7y01OHPimMqYpJKubdVq9Xghy90dZ1RVXbk2f8066wmZNIftOHVcL9FM5BzJuSIiIiIiIlruwsGgniOi5azQf8sSko2NDOP1F5/Xayb6kcs1HsRZsiO7ynZqW2u9rMveny3+kuX21WtUs9jaunps2HoBmlvb1H1C7n/thefkIMreWa+sE4lYTA29W1FVrddQLhlQYmxkSC8REREREREtbzLoX3VtvV4iouWqp/M0kom4Xpq/wf5+BCoqrfeBWr0mE6ZNNR7IWbe501S56yqra7B24ya0tLWPr5fM6amf/hijQ0NlX1UnyqbtqYxu2tMhbYspl5wTjvxKRERERETnkkgoqAbPI6LlS/4Ny7/lhUnjxWeeRMfJE+OVdfkq7AqRDeamhnnSndirz/8S/b09yyKoE2XVUZy0c2ZgN0HORSFtv4mIiIiIiJaL7jMnERob1UtEtJzIv135N7xYzz/1BE4dPzoesBUjsJN95N4+8/OfqudYTsqiGWyuaDjMJrEWafo6PMjfNBERERER0blrdGgQDqdLjfRIRMuDVNR1njymlxZHArWu06fVKLENzS1qFNgsFd9NqZKbzdSgb3hwEE/s/pF1vMuvtaLtpqsuK8saQH9lFdpWroGR84M6H8iorzKYRGh0RK8hIiIiIiI6t3n9AVTV1MEXCMDl9ui1RFQuZNRXGUxCuulaeNPXmdms/wJVVbhwx+VoW7lKr51savPWrKkhXSQcwtGDB7Bvz+tqv8ul6Wuusg3rhNvjRUv7Knh8fr3m3Ba1/kJ1nT7JUV+JiIiIiIiI6LySDdYqq6px8RVXo66hAU6XK9OcVW0wPazLNnVNmyYi4TAOH9iHI/v3qUKo5RjSZZV1WJfVvGIVquvO7ZGCpIy0GO29iYiIiIiIiIiWKwnthMPlRKCyCqvWrENdY6MK8WzGxNAL8WgU/X296O44jd6uLkSjERXaTa20W46WRVgnpCS6qa39nGsWK2lvj/UXiyO+EhERERERERFNlh0swhgP6iTMS2dCOZ1oZaroMuvPBcsmrBPS8WhjSxsqa2r1muVNOlPt7epAMhHXa4iIiIiIiIiI6Hw2UT+4DEio1XnqODqOH0U0snz7dZNjl9cgr4VBHRERERERERERZS2ryrqpauobUNvQrDocXA4S8TgG+7ox1N+n1xAREREREREREU1Y1mFdloR2NXUNcHm8ek15iUcjGBroY0hHRERERERERESzOifCuqyKympU1dYhUFWt15xdwZFhjAwOYGx0WK8hIiIiIiIiIiKa2TkV1mXJQBQVVdVq8gUq9NqlEQ6OYWxkWE3sj46IiIiIiIiIiApxToZ1uex2B/yVlfD5K6zJX/SmstLENRwKWdMYQqOjSKWS+h4iIiIiIiIiIqLCnPNh3VSG3Q6Pxwe31wOnyw2XNTmcTtgd1mTdZzMM2Gw2tW06nUbaNJFKpZBKJpBMJBCPx5Cwplgkimg0DNO6j4iIiIiIiIiIqBjOu7COiIiIiIiIiIioXBn6loiIiIiIiIiIiM4yhnVERERERERERERlgmEdERERERERERFRmWBYR0REREREREREVCYY1hEREREREREREZUJhnVERERERERERERlgmEdERERERERERFRmWBYR0REREREREREVCYY1hEREREREREREZUJhnVERERERERERERlgmEdERERERERERFRmWBYR0REREREREREVCYY1hEREREREREREZUJhnVERERERERERERlgmEdERERERERERFRmbA98NX703qeiIiIiIiIiIiIziJW1hEREREREREREZUJhnVERERERERERERlgmEdERERERERERFRmWBYR0REREREREREVCYY1hEREREREREREZUJhnVERERERERERERlgmEdERERERERERFRmWBYR0REREREREREVCYY1hEREREREREREZUJhnVERERERERERERlgmEdERERERERERFRmWBYR0REREREREREVCYY1hEREREREREREZUJhnVERERERERERERlgmEdERERERERERFRmWBYR0REREREREREVCYY1hEREREREREREZUJhnVERERERERERERlgmEdERERERERERFRmWBYR0REREREREREVCYY1hEREREREREREZUJhnVERERERERERERlgmEdERERERERERFRmWBYR0REREREREREVCYY1hEREREREREREZUJhnVERERERERERERlgmEdERERERERERFRmWBYR0REREREREREVCYY1hEREREREREREZUJhnVERERERERERERlgmEdERERERERERFRmbA98NX703p+0cLhFOIJUy+VTjIRRzQSRto04fN7UFdXZb0SfScRlY1EIoGuU2fQ292N4YEhhIJBJGJxpK3/iIiIiIiWC5v1n9Ptgj8QQHVdDRqbm9GycgWcTqfegoioeIoW1qVSJoKhFNJL8B08lUwiGg7CNE0Yhg0NTTVwufgmSVQuRoaGcHjfAZw4dJTBHBERERGdkyTAW71xHTZs3Yyqmhq9loho8YrWDDaV1DNLwLAbsNkypXTpdBrxWELNE9HZt+flV/Gz7/8Qxw8dYVBHREREROcsudaVa1659pVrYCJaLtIw0ylrSiKVTqhJ5pEufUvR+SpOZV06jVAkhUQisyv5M2q92KFUGEnM78Um4jO3YzXNNJK6ea3Lbkej1wdnIm49Jq7Web0u1NZXwTDYBR/R2SLVdC8/8zyGBgb0GiIiIiKi80dNXR0uv+5qVtkRlZlUOo6kGcdQ7DR6wkcwEu9GODWCdDqpWodKLZjkWC7DC5+jGnXulaj3rkOFqw4OmxuGzZHZ0RIqSlgn/dRFI5JKZpZj1gveZ734M8kRWGszK+cQGp25Gas0sY0ErZNo3ToMA+urqrGjtgHWk6r77XbDekMMwO/3qmUiWlr9Pb345S+eRDwW02uIiIiIiM4/Lrcb1958I+qbGvUaIjo7TIzEe/HWwG6MxrutZQmspEhMMqr5DHqQ2UZadbb4NmNr7TvhMnzj60tt0WGdCtKiJpLJzG6kFLg7OYpfRo8jlk6pdfMRHHHpuTysXcdjSURDCTXvttvxvlXr0Gx3IJXIVNe5PS5U1wTYdx3REpOKuid/8hiDOiIiIiIiiwR2N956CyvsiM6ClBnH/qHH0Rnej6QZ1WuLwQan4cG6qquwpuIK2Gylbdm5qL1L89RobCKoE8m0iX3xnoKCujnZAIfTDocjc7ixVAov9nTCsN4Ebbrpaywax+hwCMnEEnaeR0Sq6SuDOiIiIiKiDLk2lmtkIlo6ZjqBvYO78YuOr+BU8I0iB3UijYQZwYGhJ9RzHB99Ua0rFfv7brv1D/X8/FnHkzInV9QJ07pDmr8eSxbeZ1U8akh9oV6azmZY91n3p3TfdaOqos6GNVU1SMnoFum0dSwpxONJuJz2SYNQEFFpSEe6HSdP6SUiIiIiIhLRSMT6fppEc1urXkNEJZFO43RwD17r+zcMRE9lBoooMRmQoj96HF3hAwg461Q/d8U2v7AuLf9b/1m3ZiqNWCIT1Jk53dEl0ykV0r0R69Br5mDtxxZLwRZKwDaaQHo0CVvShM16krSEbBLOTWHodXIMojMcgt/lQoMvYD3OtI4vnWmWG46pW2NKWSLDO6LikeavLz39S71ERERERES5Bnr7sGL1Sni87FudqBRk4Ig3+v8dx0dfQjK99K294mZYBXYJM4YG7xq9tjjmDOukqWsiaU2JtBpIIhafXE0nZOTXY4kB7Il3IiXJ3mzSadgiKRidYRjHx2CcCMHoj8E5FIGrLwjnWBRGKg3TaSAtzV5zAjYJ26RiTkI5aWUrt2eCQbicTtT5/HAZMkKH9VjTVBV24UgUsVgCCWteAj67tT+OGEtUHHtfewPDA4N6iYiIiIiIppLvpq0r2/USERXLaLwHz3c/hOF4l15zdqRhYjjWgf7YCTUQRbFGjp0zrEum0ohEUuo2t5JOmOk0hswIDsZ7cSjRh/g8+qmzjSVgHB6F0RMBPA6km71IN3kR9fth+tywpUw4h8Kwh+MwPU6kXdYLzSmIk+awmcDOOinWtilrpjscRixtotLjRYXbA7vDAbvdrraXPuwkrIvHEmrwCadz6YfcJTrXJBIJvPjEM3qJiIiIiIjyGRkYwoZtW8a/nxLR4g3GTuG57m8imc4MOFoOoskxnAm9iVbfFjgMt167cHOXmUkopmdzRcy4CuheiZ3G0eTA/AaUiKdUUGcbjcNc6Ye5pRrm2gqYbX7EGyoQba1CZFUdYs2VsEfi8J4egi3PgBF2uw1un8OanKpSLpZKYu9gPx7vPIU3hgYQNWxwebxwe3zjA1DIbzSkEo+IFq/r1BnrfYH/noiIiIiIZiPXzHLtTETFMRg9iRe6v2XNldv30TRiqRCe6voHRJJDet3CFdwmVAKvQ4lePBU9ir3xTvSngmoE2PkwzoRgG4nDbPPBXBlA2idVc7llczZVTRdrqkS8MRPYubtG9J2TSf91To8d3kqndetQzW+7QkG80NuF7x8/glf7u2HY7eynjqgEeru79RwREREREc2G185ExTES68QLPd/WS+UpZSbwbNc3EE8F9ZqFKTisGzTDeC3WgYGUND2ds4e6CWYaxomgCugkqIP0RzcTu4FocwVSXifcPaPSFlffMZkEcdIPncfvgK/SBYfbjmgqiZ5wCM90dqAjNKa3JKJiGh5Y/G8KiIiIiIjOB7x2Jlq8eCqEF3qlok6UcyuvtBpw4sXe7yA9z8K2fAoO64LpGFILeELbcAy2VBrpOjfgmkd7fbsdiSqf6q7OORLJrJtBNrRzeaWvusxLkmq/sUT5tF8mOpeEgov7LQERERER0fmC185Ei/dK78Oqaq28g7qsNMbifdg39JheLlzBYd1C2UJJ6w9rJuDMrJgH0+dSt0Z0er91edlsbPZKtAQSMQbhRERERETzwWtnosVI49DwUxiOL7/m5KfG3kB3+KBeKsyShXXIFuPZ5x+mpQ3Z1gbbIkoHiaj4OLgEEREREdH88NqZaOFGE704PvqyNVe8f0cuux/tgUvyTi2+C6wtivNcaZjYN/hzpNJSEViYpQvriIiIiIiIiIiI5mnf4GMLCrtm43fW4cLa9+edNlffVNR4PZoaxYGhx/XS/DGsIyIiIiIiIiKistIXOYrB6Bm9VHzSjdrUKdN/W3F1hN5WA2QUYn5hXU6saB2+niMiIiIiIiIiIiq2NPYPS0Xa8m9GnjTj2Df0c700P/MK61S4qBkFhHX2YBLuU2F4j4XgHkrC6XDC3RNXy1Onqo7RaVPFYAROux2u4Si8x/vhOTVo7TNq/axm+2FN3MdgkYiIiIiIiIhoeQklhhCMD+il5S6NvsgxmOmUXp5bwc1gXTa7npudPZyE53gYnpMRuDqicI2ldPCWzCxPmQIDoWmTbywGl9MBXyINT88ovJ3D8J0YgD00w2g66cldd3odDj2XLW/UC0REREREREREVJb2Du7Wc+eGhBnF6eAbemluc4d1UwIur82l52ZnS6RhxIoziqvdmDhMI5aEkZwljcxJ63wO5/jyRPtjIiIiIiIiIiIqT2kMx7vU7bnkyMhz1p/ze01zhnUSb+VmXF6bY/5NYYt5XucRtKXNico6w9q+0umyljNrDMN6PMM6IiIiIiIiIqKyNZboRzI1Q4vKZSyRilp/Fiuss2WCryyHzQ6/Mb/quvmSvRejfznVlZ2ZeeEBpxMuu4G0manuMwxj0usgIiIiIiIiIqLycmzk+XOy1spEEgPR03ppdvMI62ywSVVajhrDp+cWr6aqCpdcvA2XWlN9bY1euzCqsk6HlE1ev1rOstttKrAjIiIiIiIiIqLyk06b6Aod0EvnnuOjL+u52c2zsk4vaA12v55bHLthx5ZN67F2VTvWrFqBzZvWwZkzKEQh0jK4hJ5Eqz8A05zo286w262JlXVEREREREREROUolY7DxPxHTV1u+qPHVSA5l3lW1ukFrcleoecWx2434Pd5M01Urcnv9cLpXFhYJ81+zdREJd3KQAVSqYkfsMNhZ2UdEREREREREVGZSqWT1p+FF1rJeAXz/Q/ZJpkzyt167v8KYVqvT5rDzsX2wFfvn3PPiYSJSDQF3f0bEukUdof3Y9SMZVbk4RhJwHsoBMN63Gw2b1iHC7ZssOZsOHj4GPbuP5i5I5d1hOFoVJ1Q02lHeF0DEtWTm+KmkiaiwYS6rXK78esbtyEVDSOVSKhQsLqmAj6/R29NRIvx8IPf1HNERERERDSXe+67V88R0WyCiX483fk1a66QECyN7bW3odq1Qi/PzmG44HPUquK0qSRMG4v36aW5HRj5Bfoih/XS/NzS/lk45+hebl6lZlKQljs4g4wG2+Ko1EuLc+DwUYRCEcQTcby9/5BeWzipqstW1q2tqIK0eE0lM2ml3W6Hw2lX80REREREREREVH4SZsT6s7BqNSHhW5W7ZV6T31mXN6gThs2R9zEzTU7DrR85XzaYxWgGK+zG5EEmJLhrsVfBMbV97IJZPwj1f+E/ECH91ElQJ7cOw8DqyiqoMkBd2ihBnTSDJSIiIiIiIiKi8mSmz93+6sbNI/qaX9pms0GyrmzwaLP+qzI8qCvSqLCDwyMYHBrRS4WTUDIZz/xAG70+1Lu9qvmrkH7qXC4H+6sjIiIiIiIiIipjCy3iWlbyF/VNMq8+60TKTCMUSo73W5dMmziU6MWeWCfMPCdzvn3WicpAQJUgjoyN6TVTWLufrc+6RCyFaDCuQsRrm9uwo6EJ8WBQjQbrtLavq6+C0+XUWxPRYi1Vn3VOpwutK1eisbkFNXX18AcqrH/LrhlLlpcLqQJOxOMIBccwNNCP3u4udJ46hUQirrcgIiIionMJ+6wjmp+B6Em82PMtvTRfaVzZ+Oto8K7Ty0vntf6H0Rnaq5fmw4ab234LbkdAL+c373Izu/XlWAZqyJImsI32AKrtix+0YTQYnDmom0PmS29KtXit83ixwvoybzNNFdQJl8u58BFmieisqKqpxeXXXocP/OpHcNX178DajZtVWOdyu5d9UCfkNchrkdckr01eo7xWec3y2omIiIiIiM5HRtG6Wytj8/hKO/+zYO3M5bSNN4UV1YYXzfbKvDtJGzakHcX5Up2Wdq66/7m0ww4zp/886atOmsDKl9/VFZVo8vqs5Ux1iqzz+b0yo5aJqPxddPmV2HXHXSrEWspgLpVKIRwOY2xsDCMjIxgdHVXLZracuMTktcprltcu54CIiIiIiOh84zAWWhCWGcdgvtNs8m0/01S4tGoVOpd5N4NVrAMJhlJI6lFXRW8qiFdjpzCYkhE7JtisbZ19cbg6o9JmVq+dWdrMf7BpM41EImF9kba+MNsNRBsrEG+okFI/dX94NK7COumr7qa2VWjz+RDRTWBdbieammoY1hEVWSmawUpF2ZXX3aCqzZaKBHGnTp3C3rfewulTpxGLx1RoJ+87Ep7ZHXZ4XG6sWbsWF196CRobG5csQJTmsS8+8xRGhgb1GiIiIiJartgMlmh+oskxPN7xN9ZcIUFYGjXulXDNc1yFgLMBm6vfmfe7nTz/W4M/sObm971vJN6FaGpUL82HDe9q/1045hhFtrCwzpJImgiHM81OhfRXtzfWhQOJHiTmMfzsTIIjLj03fxLSSVjnNOy4tKFJ9VeXikURsyY5wIbGani8hQ6jS0RzKXZYV9/UjOtufpdqGroUotEoDuzfj+eefQ6dXZ3Wmnn8QsHaZNPGTbj+huuxas3qJQnt4rEYnvnFz9Df063XEBEREdFyxLCOaH4SZhSPnf5LvVQaNZ6VuKbxY3m/04USA3i88/55Vb8tjA27Vv4eDJtdL+dXcFgnZKCJRE613JgZw0vRk+hJjRWUfeYqNKyTyhcJ6qQZ7Ap/Bd7dvgpVThei4RBSySS8XjfqG6rnG4YSUQGKGdZJRd1Nt75vyYI6aeb6nW99G6dPnx7v27IQHrcH1153HW648YYlGWVaArvHf/JDVtidRYbdAbvTqW6tT3S9loiIFiSdtq7fk0glEuqW6HzBsI5ofsx0CrtP/ak1t9B0aW5nM6yr8azA1U1zvx8sKKyTJqmhcMr6oqtXWM4kh/Fi9CSi6YV96BYS1kmFSzyStKYEPNaXp3e1r8aGyhok4lHEolHYDZsK6qQZLBEVXzHDunfd/oEla/o6PDyMf37om+ju7tJrFkZGqb3rnruxbds2vaa0pEnsz37wb3qJloIEcy6fH06PF4aDnyVERKVgJhNIRCOIh0MM7uicx7COaP5e7v0u+iLH9FLxnc2w7uL696PVv1UvzWxBZSF2w4DLNfmhrfYqbHE1LUkhWyqRQiKWaYq7o6EJayurkTZTSMYTKskLBHzW8XEEWKJyJwMpLFVQJ51//vQnP0FP9+KblCYScfzo0UdVf5pLQc4RB51YGhLSeatrUdHYAnegkkEdEVEJyXusvNfKe66896oKZiIiOu+trbxKz51bZKTbZt8mvTS7hbXhssnIsAacOaO9GjYbNjgbsNZZp9eURiqVRjwqVX0mttTU4dL6ZtitA8oMQpGEx+OCz+9hUyWiMifNXzdvu1Avld7hw4fx1ltvIZ2nnFp+a1JVVY2LL74E119/A3buvA4bNmyAY5YvDdKcVgamWCpyruScUelIJV2goRkur1+vISKipSLvveo92HovJioGm3XJ50qa8MeTqIwlUBm1Jus2YE2eZAqGVH4QUVmq9bTDsJ17vzSXkW7n6qsua8EdLhmGDS63Yd3qFRan9aQXu9rQbA/oNcUllTHJqPRxkUKbL4B3tK2E225XozcmYjHYrflAhRcOx/xePBGdPRu3XqDnSk/C/ed/+Zxemq5tRRs+9omPq6at79r1bux6z6348K/9Gt7/gQ/Absz8fnL0yBE9tzSW8pydb7yV1fBW1eYthScioqUh78HyXizvyUQL5UiZaAxGsbF/BBf0DmJ7d2a6qHsAF1q3F/YMYZs1bekbRvtICD7ruyURlRcbDPgd59pngQ1t/vl/n1twWCec9kxz2NzvNh7DiR2elai1+6xDKR75xUcibqrmrw0eH97Zvho+h1MFePFoWLZQQZ0a/ZXftYjKmvT5tmbD/Mp/iyEYDGJoMP8ADU6HC3fefTfq6uomBTVOpxObt2xGY1OjXjPd8NCwCgKXipwzOXdUXJ7KGrj8FXqJiIjONnlPlvdmokJIJV3baBiXdfRje88g1g6NoWUsgrpIDDXROKpiCVRbt7XWclMwglVDQRXYXXamDxsGRuBOMrQjKicX1L1Lz50bDJsDG6tv0EtzW1RYJ6GYhHVO5+TArsrw4FLXCtTZ/Yt8As1645VqumQkqYK6G1vb0eD2qgQvHouo0V99Pjf8fs+kL9tEVJ5aV65c0n+rErxVVVerZq1TWzysXb8ODQ0Nemkyj8eDmlmaniZlNLvU0l3YyTmTc0fFI30luf2lqQYnIqKFk/dmeY8mmotcUUqz1h2d/bioa0CFcRK82a2LPvkumu+KU9bJfc6UiUA8gQ39o7jqdB/qQ1EV+hHR2VfrbofXUaWXlr8adyvsBTTtXXSWJn3VeVyG9SV44m1Q+n9qdARwoasF9faA9SSL+1KetN5sE5EUGt0+7GxuQ7v+4E7G44hHo6qfuopKH+xs/kq0LDQ2t+i5peH1evHRj92H//HFP8R//W+/j0986lP4wF134Z3vehdufc+tMwaHst7tduul6aYGf0thqc/duczh9sBTce5cABARnWvkPVreq4lmYljXYnWhKC4/04fGYGQ8hJNprss0uT+7vdz64wlc3DWAlSNB9mdHVBZsWHeODDRhwI4LagurFFx0WCcMuw0e9/TArtleiYtcrWixVyz4iZIJE4lwCm2egArqVlsf2hIQJpMJxKIRuFxSMeOH07olouVhqUaAzSXBm2EYqKiowOrVq7Fjxw7ceOONqK+f/ViWsgJwPs7GuTtXMagjIip/fK+m2dSGo6opa0UsoQK37FWbCuKcTth3XAzH5TumTfYdl8BobhoP9LKPdaVMbLb2t2ZwDHaTgR3R2dZecTECzuX+/ceGBt8663UUNhir/X233fqHen5RZMAJu106cs9MQr7k+gw3auw+mNZb4bAZnvE3HPHY9Kq4ZDyFeDiFzZU1uLq5Da3+QCaoS0hFXQROhx01tRVwudmHE9FS2vfGm3puYS7ccQXsjplHWl1KyWQSoyOjOH7iuBox9tjRozh08BDeeP01/PKZZ3H82LEZm7pWVlbi0h3WBZ+8+S0Rea4Db+3RS7RQMtqgy8fmr0RE5c6wPvfSZgqpREKvIcrwxZO4uHtQNWPNDeqybLW18HzoHji2bIR94/pJk8OaEI7APHFSbz3xeGkGWxNNwLRWDBexP/QLLrlIzxHRfEkRmM9Rjc7QfmupeAG62/Ch1rMKcTM0bQonh9ERelM9dzE4DQ92NNylbgthe+Cr9xf1Vwammbbe91LWF+DJu42mkziVGMRb8U5rfvoX3+DI5MBNBpKwxdO4sr4FW2rq4HdkKuekoi4eicDuNFBTE1CVdUS0tB5+8Jt6bmH+w0c/cdYr1qLRKH759DN46eWX1ftKIpG03r8K63+urW0FPvGpT6o+8ZaKDKrzr9/4ml6ihQrUN1mfI/xFDxHRcpBKxBHs79FLRJkRX68+3TteUaf6JpFry5zrS6OpEd7/+ClVYTeVXE8lnnwG8ccezzw2s1L+sCab+jPitOOtplr0+4vTFPue++7Vc0RUmDTe6H8UnaG39XIx2FQhWD7qnSBdrEEEbdhScxPWVF6hl+ev6GGdkMAuEkkhMSWwM603wIFUEK/HO9CXCum1GdmwTr1xxlKosblxQ9MKtPorYNcnUQaSiEXCcLnsqKoJWF+Qy6Myh+h8s9iw7oP3fVLPLS15fxkZGcFzz/4Sr7zyMuLxuL5nYc5GWCe+++A/6DlaCAnpJKwjIqLlQ8I6Ce2IpPJt7eAoNvWPqKBOJmP1KrjvvgM2n1dtoxgG4Hbn/QWxXBPC+m6J3IpN6zts/OdPIPnSK0ib0i4M6Kr04e3GGsTti+89imEd0cIlzCie7fw6IqlRvWZ5aPCuxWUN91jvQ4W/hxSlz7qppEms12uHa8oosZJcNjgqcL13Hba6muA1nJMPwHrTtCds2Oarwx0r16uBJKYGdR6PQzV9ZVBHRIWQi7KB/n58/R++huee++WigzpavthZORHR8sP3bsryJRJoHQur+exXTZvPB5vX+jvi9U5MepAwuQacOinSJUvu9n4frC+b1s4yjd9kqg1FUROJcYRYorNMmpBe0nAHjNJEWCVgg9vux0X1ty0oqBMlqazLkjfCWMxEPGGO92OXZb1NojcZxMFELwbNMEaH7aiGGxdW1mNloHK8JFH2kUomkEzErPfQzKiv0kk8EZ09y7GybmBgAP/y0DfR29er10xlQ01tLbZs3gyvdcFXU1ujBqOQfusOHTqot5mMlXXLk7+2gV/6iIiWmWQsitBgn16i85WEZquGg9jYPwKn9QUzG9ahugqOC7YArkV0cWHtL3X0OMyOTut5Ml+R5SvsqeoADjRUI2mMP9uCsLKOaPF6wofwat8jeqmc2XBD6yfgX8TgGEUbYCIfKTl22A3YrDc2eb/L/hJDyO8rAoYbbY4qVBketNorcGlNE+o9XvU4YcobppS7mwkEKnzW5GVQR1QGFjvAxLZLdui5pSHvJf/6ne/izJnTes1k8n707lt34e577sbGTZuwZu0aNDc3o7a2FkePHEVXV5fecrKzMcCEePuN1/QcLYS3otr6XOJnCRHRciLfD2KhMb1E5ysJ6FaMhlAdjU+ur4nGkOq0rtdicaQHBguf+vthnjyl5rNBXZY8Z0elD6lFXjtwgAmixQs4auBz1qAnclivKTeZLOua5o+g0tWs5heqpJV1uVIpqbBLI5Gnym4qqaYzUymkzQScDgO+gHvJK1eIaGbLrbKus6MD//i1r1vXcVG9ZrKrrrkGt956a97Q7ZF/fRivv/G6XpqMlXXLU2XzivFfChER0fIg3w9Gu8/oJTpf+eMJbO8eQm0kNq0xXNr6bPf/0Rf0UoGiUcQe/QlSr08ecV++KMv0/MomDHkXNzAVK+uIikMGf+gM78ee/kdlKbOyLMj3Cxuuab4X1e4WvbxwS1ZaYLcb8LrtkL7snFP6ssslnXmmknHYDROBgBsVVT4GdUS0KIcPH54xqDNsduzatWvG6rgY+7Y75zCoIyJafvjeTcKVSsOTTOX/CpxOIz0WlL8sSIfCMKXSzqKq6VMmzO6ezIAS8ndJthkaRjqot7fuTw+PqO1zZZ8nEOP1IFG5kD7g2vxbcHnjPdZ3ufIZy8BjD+D61o+j2t1qLS3+M2vJwjrFOl6plPN6DPi8djgcNvVemWWmkqqazu9zoqLSA4/HzWavRLQo8pv4kydO6qXp2ttXzBjUJZNJjI7OPOKQ9L0p+yciIiKi0rObJhyzNNMyO7tVaGceO47Yv34PSFjfLyXEGx5G/Ic/Qbp/ILNhPI7Ecy8ideCQ2l6afqXH8jezlq+r3kQqs0BEZcJAg3edqmKrdDXpdWeLDS3+Lbiu9eMILKKPuqnOShImo8VKdZ3fl6m0M2xpNYCE221DdY1PDSShvjwvPowkIsLQ0KCem84to37NYHRkFMEZLtxEMpHgqLJERERES8RIZ6aZmN3dmRmXE+motKrIbJy2rtfS4YgK5dRyJKL6qRtnpqz7MyPM5mPnL2eJypL0C3d1871YV3kV7EZmBOil5LYHsK32Xbio7jY4Da9eWxxntWxNytldTgOVlS7U1wfg93sylXS55XZERIuUnqWfzN6eHj033YED+zEyOr1JRNbI8AiGh4b0EhERERGVUlq+JlrTTN8Wzc5O9V3SqKmBzetBOpnM3DH1AbE4zJFR2LKjx0qIF09k5vOQ/vCIqDzZbU5sqrkB1zbfiwbvWhgo9eB/NtgNJ9oC23Fty31YWXGp6lqp2NjGlIjOef6AT89NNzwyjL17905qzirzZ86cwU9+9ONJ66eKxWN45qmnZ92GiIiIiIrDtNmQMGwzdilvDg2rW1tlBeBywezolAs7tS5XOhazLuSigLSwsPYpVXfjwV4OeaRMUUepv/wT0eIYCDgbsKPhblzd/Guoca9QIV6xuew+tPo3Y2fLx3FR3XtUP3WlwrCOiM5pUsHb2rZCL+X3o0d/iKeeeBJdnZ04cfw4frZ7N775jX+SHun0FjN7e9/beOrJJxnYEREREZVY3G4gNkNwJrVv6VAos+DIfElPHcvfb3E6mQKcLlV9J2Ge2defSeVmEHSVTyf2RDQzqXCrcrfiquZfxY1tv4k1lVeqpqp2NRDFQipkbSr089grcUHtu3BD66dwcf374XfUWPeVNk5jWEdE57wtWzZbb9wzv90Fg2P4+c8fw9985Sv42j/8A5555hmEwvpibx5effVVjIzM3FyWiIiIiBZPgrqI0zFzrpZIqvANhgGbw4nU8RPqF7fTpFKA3w+b7rvY7Omz/sy/V3nOkKv4FTpEVDo2GCqk21JzE97R9hnctOK3VIC3qmIH/E4J2uR9IV+VbmZ9wFmHNZVXYGfrfdZj/6MK/uSxmX7pFhL6FY5hHRGd85pbWtDc2qKXCiO/nbl0xw447Pl/o2oYdlx7zbUIBEpXAk1UHA247Qv34+HvfQMPP/y3+JNPXKjXz+C3/ndmWzX9b3xar15y5XIcRER01iUMA2MuJ1IzNYVNmYAMLGE3YAv4ke6TEG4KCfOsbYwK69rN57O+d1v76u1Vt1PJcwx63arpLREtT/J9TkK2Wnc7Lqi9Bde3fArvXvk53NL+WbxzxW/jprb/qAI5CfRuaf8d677/hOtaPqGCvkpnk3psKfqkmwvDOiJackvdZNRnXYjd/v73w6mbRMyX2+3Br/36vbjt9tuxctVKvXaCx+vFr9/3UVx1zdVwOJameQSb25aJZRkg3YabL6rKzNp9WHPRZZl5IqJ5aEil8B+CQfzX4WH8+eAg/q6/H1+1pr+w5n/fWvehsTE0S7USUQnJABN9fg+iM113mSbMvgG5YILR3JQZAXYqa5tUTy9sbvf4ABPm4PQBw+SKS0LBXuv5UjIIIhGdA2yw2QzYbS4Vwkn1ncdRqZq5euwV1jqPavYq2yxVBd1M+K5DREsuEY/ruaXT1taGj3z011Hf0KDXzMx6C8eWrVvV9hs2bIDT6cSdd9+NVavX6C2A5uYW/Nq992Lt2rV6zWQSqk2a9H+LdTbOHRVH47br8aHPfh5/8nd/i2/91cf02qX0KH6xRzfXToVx6LXnM/NERLPwmybuDIXwtwMD+JVwGFdYn0Nrkkk0WusbrGm1NX+5te6eSARfsbb58NgYKqz1RKUy5nZhwOtWV1W5V1Zq3vq7p/qfsxhtrepWyLXd+BdvuS6TZq/S950O4dLBUPZeJbtvqaob8nkyo9ASES0hhnVEtORCwTE9tzBpM2FNhYVW0l/J6jVr8Fu//dt4/wc+gOrqGvh9fni9PjVJ9Z3fH8DKVavwG5/5ND704Q9j5cqV6nGiurraWvchrLLub29fqYI8mc/tByWdti4Qk2NIDryOxNtfQer1LyH56heQfO0PkXzj/yDV8Qtrm+kjjRViseeOzp4r/8Ov4M4btmBNow/OszKoXB8e/eJncc+dH8U993wGf/Dgfr2eiCg/Cd3+z9AQfi0UwnzetuSLxd2RCP5kcBD1rLKjEjGtS6/jtQGEdd912cBOrsjSZgrmwIBc+MG+og3OK3ao+21VlXDuuBiQbksMO+xbNsC+Yb1qLqvIyLA55DEymEVnhQ8RjgRLRGcBwzoiWnJDA5nfeC6EVKmZodNIHvlnJPtfhplOqHXzIcGaNFe9/PLL8Tuf+1181pr+42//lpr+n9/5HXzuP/8nfPJTn8KKFStgSMfEOUGckH7p7vv4x/HxT34ClZWV0+5PWceT3PsVpE/8O2ymddHnsi4I7R7rjihs8WGg72WkY4sbiGIx546IiGi+6lIp/NngINoKCd3053GTaeLL1mObkov7BRXRTGTAh7eaa5CyrsXkb934laBUzY2MZub9PrhufVdm3ueD46rLVWgHw7oevOhC2DeuV6EeYrHM6LBadl+dlX70VHhZVUdEZ4Xtga/eP79vuURE2sMPflPPLcyqdetx1fXv0EuFkwq2VO9zSJ95DHBXw1j9Adi8zbAZ7mkB2lJRgaEZs+as5zd033hyLBIujhxE+vA/A65KGJt/A4Z1zAv1wtNP4OTRI3qJFqKqpV3PLYL0WXdTtnlNJx6/87/hAb00zW2fxzfu2wK/XpwsjL0PfgZfXDXL/nKfK7QfD937ZTyaWbKswq5P/wp2XbkebZUTfTImRjvx1lM/wNcffAG9eh2wC1/45q9gmz6Q0N7v4KP/Y3dmIZ9pr/Gr6Pn8b+D2y1rhlyKDRBgdr/0E93/5URzPbARcfhs+e9vV2LamAX6Pc7yCUB3P49/BHz/0ZmZFjsbr7sJHbr8e21ZWwZ99CbLvF36A3/lL6/hmONeNH/p/8Vf3rMf4Q47vxu/8Jx/+2/euR5te1/H4R/E7X9EL+Bj+avw+fd7lRE76+cj6L+AXLb+FT9y8KnM8qTB69z+Nbz/wHTzbpTYiOuc5rc+u/z40hG3ZsE064f/c54C//VtgcDCzbqrKSuBTnwL+/u+B0UxYcsIw8Pt1dYgV6bN5pOu0niNSV1xoGwlhe/egmpcqFPliazTUw3HxHIMo5TC7upHcu0/NZ78YD/jceLmtAWYRB5a457579RwR0dxYWUdES67z1KlMuLVA0uGno/FaGBs/ovomSe//B5gH/hGprl/AjA1bWyx83wslIaFNqujsLqSTIaS6n7aO50nrUJKwOQLWBtbbrcNvzctw3wsj50zOHZHScjP+89/8v/j4LVsmBXXCWdmKS2/7TfzJn9+LS/W6xWr8wufxoSt1UCecPrRdeRe+8D93oVGvwpVXY+e2VlT7J4I6oY7njt/GX316i16Tceknvog/+d3bcOW6nKBOyL7XZgO6PFp24dPvmQjqMLof3/6z7+QEkwvnuvR38ZldOqgTdh8at+3CZ/7bx4p2LonK3a5weDyoSwcCSP/jP1ordwF/8zeAx/qsm8rtBu6/H7jjDqQffBDp+nq1erX1Gf3+UEjNExWbXO11Vfiwr6kGMYcd2Z4Spc+6+M9+Me8pN6hLGpmmr68WOagjIioUwzoiWnKJRBzHDx/USwtks8FesQ6OC34L6dptSEc6gTOPIfXmnyJx8BtIjR1FOjGKxfYRNx+qr7rEGFKh00gc/Q7MPX9iHctPgTGpN0rDjPVbV45xoHItbPbMqGMLIedMzh0tM49+GR+986N4aG9Yr7B0PJ3pO+5OXd21ALd9+i5c2TI5pJvKv+ZmfPx3JwdkC9OKbRf59Pxk/m0340MX6YVUGMNHX8X3vvYX+C/q9X0BDzzViYS604m2y2/FTWrectPn8On3rJqh4nA2DdZrv328QlBVw33/H/FoUarefNh4UetECJjD2XY17rpHLxCd466KSaV4RjqVQuzw4cwv2drbgYcfBtat0/daZJ2EeRs2qG1iJ0/CzGk6m7svomKT0VpPVwWwr7FGDQYhgZv6la38EnUek/XH+GPCLgeO1lbg7aYaJBnUEdFZxrCOiM6KQ/ve1nOLY7O74VhzD+zrfxXpijXW1VYStpEDSB/4GpIyyMPhh5A8/ROkhq11qahEZ9akLuMWJDOmq/Wf9Txm8CSSnb9A6si3kdr3ANL7/g7GwBtIW8eElbfBvvZD1rusC+nBPWqd0XiVtYeFX/wV65zRueBXcN2WnPBs9Ah2f+ULKgD8L1/5BQ7p7npE4/ZbsVPPL0ai61V8/fc+inv+45fx0It9OoATDdh4ox5l+YEv4ZO/99f49o/fxHGswqU3tMDVP4Kh7Pf26hZsb8nM3nnzFkw0CE+g97VH8YDs/87fwxcfegEdOa9hkts+hru2Tbz23uf+Dl/8fp9eKgLrXD76l7+njuP+R49goibIibbtu/Q80blLRn/dnNPXnBGJwP2FLyD+xBOZwK6mBvjrv5Zh0QGpoJOKulWr1H3xF16A6/d+D/ahIf1o665UCk2F9HtHVCAZcKI74MXe5hocbKhC0OVUV3pSaZettste+cnt1ClhN3CyJoA3m2qt2wq1TER0tvGdiIjOipGhQRzYO73/qoWwGQ4Y1Vvg2PRx2Fa/X/VjJ6GYLT4CDB8Eup5E+tCDSL72v5B86y+RPPpdJPteVGGbGemFGeuzpkFrGoJpPSYdH7VuhzPLsQGYUev+cCdSQ3uRPPlDFQImX/sSzH1/C5z5GTD0JmzWdjKYRLrxcti3fRaOpmtUk9e0NMsdPgxby/Uw3LWZA14AOVdyzoiU21ahcbyZaRh7H/kSvv74SbV0/PFv4v5XOtW8Ul2P7Xp24TrxzJf+GruPWrNd+/Hol3+Bgzkt2/x1OzIzLTfj4//zf+Mb3/0GHv7eF/H7n/1NfPyuLTnH6kf1ZXJ7M7a3TdSvJQ7txhe/9Agel/2jD3u//3f4nT/4R3XfZH5c+oGJ/v8SHU/j639WnPeRDKnS+xIeekbCvz48++BX8WJH5h7hr5mlaS7ROeLieHzar5Vspgnn//pfiD/ySCawk/7pHnooMzU2ZirqHnsMzv/+32FMCeZkX7JPolKSQSAkpDteU4mX2hvwemsduiu8iDvs46GcBHfZeanIG/K4cKChGr9c2YQD9dUY9LlZUUdEZYNhHRGdNXtefrGoo5vaDCfsjVfD2PpbsK39D0hXb7Qu3iY6zrJJ1V2kF7aB14Hj31PVcObb/581/Q3MfX+D1H5r2ZpS+/82c98+61bu2/vX1jZfQfrwN2HreRa20BnYUhG9V+uiz1MPtL8HxpZPwbHqThjOiuw9MHufBypWqeNaKDlHcq6I8htG75SmtL0nR3IqwoogNIIzk5qZvorhaZVvu/CFP74Xu7a16oEZEkhEwxju6ENoWlGNtUFOn3a9Zx6ZZ39zVajOGZ8l1HkEr+n54rDO5ff1rNKHM0M5zZeJzgNSWZePkUjA+cADSP7rv8KUbWTQicrKTEXdT38K15//OYxoVG89WTUr62iJSJVd1GFXfdm91lqPn69rxY82tePHU6bdG1bguVVNOFZboZq/SnhHRFROGNYR0Vn14jNPIV7E/mxs1n8SltnrLoZjw32wb/ttoOlapD2NgEOazk1cjKleSswEkIwAiWCmEi82pCZbfNhaNwpbMmRtYx1fOueLhuEG3LVIV2+FbfPH4dj2u3C03ADD2wQZ/CJLig/ga4Vj/UdgcxTeM5eQcyPniM4xhmtiUIY57KyY6++OH9XjHcFlNK6qWkBfcLPw+FCjZzOuR2POikTE+vdy39XYVqlX9L6K+/+fT+LDH/4MPvnbr84ZxDW23Kbn5tKHQ4cmGuBWX34Xfn/Ka5/RDdXzOCfVaJx0KFuwqTGnuXGcwR2d+2b7cmBYn0mORx6xPhtz+oOVqruHHoIxy0ASjEGIiIgKw7COiM4qadr5zC9+VtTALkuCM8PbAvvK2+DY+hkYmz8J27pfga31RqQrNyDtCIw3h5jpq4QEbmnDjbR/FdB0NWxr74Zt88dgt/bn2HAv7NZ+pBluPtJxsaPuYtgceUbOmwc5J3Ju2Pz1HNS4Dh+6TvfzJkITAZQM5nDp/3sz1lhza276Tdx9cVVmda5XOtE7nh9XYfuHPocPbcvsb81NH8N/vjKnuWZvF57RswtmX4Wb/s+vYKf0N7fuenz8/9yMjeN/rRPoPfECdq3MeT12JwKScbVchY/8n+uxJqeKLuNV9MrAzZpzy634q8/ehktVn/WrcOldv4m/+qOPqfsmS+DM/btxaLx4pwqXfuTzmMjXwojn5OptF30Ou2Sf1jF/9u7cPvJm4sOmXb+deUzLFtz2+Y/h0pxUtbdrj54jOnflvhtNc8EFsH3jG7C5XKqiTiab3Q5DBpi4+GK90XQx9dsrIiIimi+GdUR01vX3dOPxn/ywqE1ic6kRvxxeGL5WVXFnX7ELTqmIu+QP4Lj0f8C+/XOqCaux8aMwNtxrTR+BsekTMC74bdgvtbbZ8T/guODTcKy6A/b6y2EPrIbNWaGr6EpTLyDnQs6JnBs6Nxwfzak6sTdg5+/+KR7+3t/iC5I0vdY/qfqs+tJ78Sff+wb+5LeuQlu+T+qu3Xj96MRXamfdhbjzf8r+5DHXY814CVkCx1/8DvbqpcXwb9yFz/7NN/Dwn34MuzbmVJuFjuCFb1svYTjn9VnH8/E/tbb9m9/EbbnbjuvDI88dyQkFfGi74S78vjxG+rr7Vet1Z6v0pup6BPc/dnLisZVbcNf/3KUrFfegd0DNZGSPwzrmnc2zj5yb5WzZoY/98/jIlQ0TI8OmOrH3sf16gejcdUqPjjnNFVcAf/ZnqvmrNIONf/e7iD/4IFLSxNXjAf70T4Hrr9cbT5B9nTT4lYOIiKgQ/OQkorIg1WM/+8G/FW3QidlJwCZD9huqeao0XzUq1qpBKoyabdZ0AYyqDTD8K2A4K63tHLJ15qFLQM6BnAtW1J1b9j52dObmoHt+jr2n8tSzJDrxeO5gEeP68O37H8FrA7PWwGB4zyP4sweLMVLqCHrzHrwMbvGPkC7zep/cj448hxPaY63X87l6v/1VfHvPiF4qTO+D38EzOefLv+12fPoOqezbj917OvNUBiXQ8dSreY9jsrD1OvOdU3n8d/AAC+voPHDU40Ewt485m/X5t2UL8KUvARUVKqhL/OM/wvXXfw3X17+O5Fe+AlO293qBL3whU2Enj9Gi1vZvyn1EREQ0bwzriKisyEAKu7//CI4dOqCa15wv5LXKa5bXzsEkzlF7/g5/9u1X0ZEzMEPo6PN4VA0OsR8PfPk7ePZUGInsd+TRTjz74F/igZm6gerajT/+5Jfw9adOYji3GW0qgdDASbz48N/hD764e54DN8wlhL1/+gheywmy5Dme/fsv4Ivf12Hgnn/E/37wBev16W2s4+jduxv/3xdnCgv78OgXP4s/ts7J8YGc121JWK/9tZdf0Uv5WOfrX57PCQd92HbXx3BbC7D3gb/EQ091TrQsToVV0Pa/vzJzf1q5end/HbuPTvRNp47l+3+N3/nKUvwigejsM202vOx26yXrn1B9PcyvfEVV1EkVXfzP/xyub34TqmrdmlyPPILEl75k/ZO3/tFZjzP/8i+RXL9ePxp43elEkpV1REREBbE98NX72YkEERXk4Qe/qedKy+l0oXXlSjQ2t6Cmrh7+QAWcLpf6crCcSTCXiMcRCo6p5q693V3oPHUKiURcb0GlVNXSrueILLd9Ht+4b4sefCKMvQ9+Bl+cMrou0flmbTSKPxochNvhQNr6zI3ddhuM3/xNpP/pn+D613+Fbcov02Sb+PvfD9tv/AbMb3wD7ocfhk0q8JJJfLG6Gvtk5NgiGOk6reeIlp977rtXzxERzY1hHREVbKnCOqJSYFhHkzCsI8rrpuFh/EY0CqdhqH7nkq2tcHR0zPgLM/lFVKqxEfa+PtVxRNI08c8uF35QW5vZoAgY1tFyxrCOiArBmnQiIiIiIprkqaoq/NBmU33USfjm7OyctbJd7nPooE4e83g6jZ/U1GTuJCIiooIwrCMiIiIioklSNhv+ubER/+ByIRSNzqsfWdkmEovhn5xO/H1zMxKzhHtEREQ0M4Z1REREREQ0jfRF99PaWnymtRXPxuMYSCbVIBNp01TBXHaSdUPWfS9Y2/xWUxMeratTA1UQERHRwrDPOiIqGPuso+WMfdYRERVOoreKZBKN8TjWh8OoSqXUQBMjDgeOeb3odrsxZreXNKRjn3W0nLHPOqIyIr9s0rNTqU+xMviFEyvriIiIiIhoVvKlZtThwBGfD7vr6/HdpiZ8p7kZP7HmD/r9KrRjNR0REZWVKYlc2lqOpJLoj8fQHYvgdCSEE+Ggmk5Z813Wuv5ETG1jTnuwvl0irKwjooKxso6WM1bWEREtT6yso+WMlXVEZ0cqbapwriMSwplIGEPxOGIpEymkYUokl9bVdBbDZoPdZsBtGKh1udHg8qDd50OTxwuH+oWUNUmCtgS/m2JYR0QFY1hHyxnDOiKi5YlhHS1nDOuISk/6Uc2OXB5MJrB/bARvjQyhNxadKIzL2UZWyqwK7HQOh7TU1BmZXE62tZaqXS5srazBBRXVqHO51eNzn6sU2AyWiIiIiIiIiIiWJ0nbLFEzheOhMfy4+wy+fuIwft7bhR4V1GVCt2y0lh0gSf4zZVlu1ToJ6mQr609rWQIzm83AcCKJ5/p78dCpo/j3rtM4GhpFSJrKyvPKVAIM64iIiIiIiIiIaFmKp00V0kk494Ou03hzZAjhZFIFbhK8SaCWydV0sKYr4mTJlIBOFmWdTSrq5Faivcz9meo6a5U1xVIp7B8bxg86T+OnPR04GMyEdnqvRcWwjoiIiIiIiIiIlg8dvI0k4nimvwe7ezrw9tiwGhwiG7BltpgcwqnJIjV0rR4/tlfUwWndL6GdYj1WhXo522b2o/dm3UgF3+GghIOdeLKvG72xiLqvmBjWERERERERERHRspAN07qjEVVJ99rwIEbicaRNieDUFhPVcnlk1za7vbilaRXe17gaLR5/JrCzHiMDTUyrwtOBn47sVBPYYDKJvWPD+H7HKRwOjqrBLPQGi8awjoiIiIiIiIiIyp5kaBLJHQ2N4eGOE+iIhJGyVqZVqGZNEpZJsDYeyc1MNnVZf2wJVOM/tKzHzpoWeAy7CuLU4BHZwC6XXq/CNHleM42hRFwdy0uD/YiYxWkWy7COiIiIiIiIiIjKXsxMqUq6RzpOIpSUJq+Smak/MkGaCu1mJttKGJcZWELYkLCWvYYd19W24O6WtdhWUQuftTxO9p3Leo5MOCj7yDSbtVn/PT/Yh5eG+jGWTCw6sGNYR0RERERERERE5SsNRFMpvD48iF8O9CIl9XUqRNOx2AwhnayV7aSJqty6DTsaXB6s8VagyeWVe8dr8GRPbZ4Abqlvx7saVmKdvxJ2a78S7OXduzxn9nmtfcdNUx3f68MDaoCLxWBYR0REREREREREZUmFbTDx1ugQXhzqU01NVYKWNSWoy1S6ZSRMEy7DwHp/FW6pX4F7WtbhLmu6o1kq6OrUNrmPlsfK9hut7d/TsAo317Wh1ulGQod9EspNlgnsZB9yvwSKrw0N4s2RQcTNlLUys1WhGNYRUcEyb0VERERERDQXXjsTLYIEbzYbToVDeKK3C5FUSgV1mX9VaRWU5ZLATAaIkHBNqukuqarHr7VtxAdb1uOK6ias8PhR6XDBbRiqam4mkrF57A7sqGrER1dsxuXWrcPIDDChQrsppFms7E0FdmYKT/R142hwTIWMCwnsGNYRUcGcbpeeIyIiIiKi2fDamWgRbDYMxqP4cfeZTDHdeFBm3aqBJHJIsGfdSAgng0Z8pG0T3tO4Ck1unxqEQlXHWffLNob158xRXWYbmRLplAr23lm/Au+oWwGf3aHCw3yy/djJsck2T/Z3ZwbAmFQGOD8M64ioYP5AQM8REREREdFseO1MtHChZAI/7+3CmPQBl1PRlp4S1Nmsu+Teaqcb19W24taGVWj3BjKDSegQL3/ENju79SgZ1OJAcAhHQsMq8JuVBHaSI1rTaCKBl4f6MZyIW6smjn0+bA989f7CHkFE571Xfvk8jh86opeIlpeqlnY9Vzzy2zu33aZK4xdyEUBEdC6QLxVJM41YSjryLv5XjJGu03qOaHlZs3E9Lrv2ar1ERPMlIdtLg/14dqAnE5JlP1qmVLbJUtK6XwaMeEddG1Z6A9b1ef7aNNmFbJ/dQ75Pq+w2cnsmGsRrI/04GRlDJJUZNGKmyrosm3XcEg/KZjKgxVW19bi0pk7NzxfDOiIq2Kmjx/Hi08/qJaLlpZhhndOwocplh9fBQnUiolyRpImReAoJs3hfNRjW0XJ15fU7sXLdGr1ERPOSTqMrFsFPejrQF4kiZUvDsD5SJpqaZkgFWxImGl1e3N28FlVOt75nMonPpOmrhHgyH04lkbIe67NPDtCkbs5lPcdoMoGXR3qxZ3RADWghjy3oE01+aWXtR46v2evFLY0taPP6x9fPhd8uiKhgLStXyO8J9BLR+cnnMNDsczKoIyLKQ94b5T1S3iuJzmdyzSzXzkRUmCTSOBwcQ180irT1UaKCOn3fuHQa0gtdndOD9zetRo0rf1CXYcNoKhPAfbfrCP7u1D48N9Sl1st+s/uW233BYXyn8wieH+pWg0XIv2Op8iuE+ras+sgz0R2N4FgoqEamne9e+OlJRAVzOp1YvXGdXiI6/8iX0DqPQy8REdFM5L2Sv9Sg85lcM8u1MxEVIJ3GUDyOQ8ERFW6lTd3jW05FWnZE1oDDiRvqWlHv8qpKualk1WAiil8OdeNbHYfx075TOBQaUX3hZaMz2asEaScjQfyw5zh+0HscvfEwDGlKq58nt+mrPHd2KfuUU0eIzVQAZia578DYCIYSsfHt58JPTiJakA1bN+s5ovNPtWv+/U0QEZ3v+J5J5zNeMxMtgM2GE+EgBuIxHZZZ05Smo4a1LNO2ilqs8VaqEGzyFpltDodG8OO+U3hhqFuFZRLAOa3JsDaWpq3yf288gmeHuvCTvpM4EBxWoZ8K6sSU5xUS3KX0QBPyCZcN6jJ/5tCPlT8HYjEcDY7NPUCFxrCOiBakqqYGG7dt1UtE54+A064GkiAiovmR90x57yQ638i1slwzE1Hh9o0OqxAsLZfdeQIzGchIqukurKiDy1Cx2yQyAJz0NyeVdJ3R0PiIsCIbqo0k43hxuBff7zmO10b6MGotq6fL3D2NOh5rMtMmVnkr8K76FfhA81pV2VfhkApaXQGYyzoOqbKT9XtHhxCSQSqmbTQdwzoiWrCLLt+Bmro6vUR0fvA6Zvr4JiKimfC9k843co0s18pEVAAdYkkfb13WlJZltW7yZ4gsSYXaxZV1qHF6MitzSEXdG6MD+GHvCdXnnHqEtS7blFUCN6mcOxQaxs/6TqmKO6l3U8+nt8lHHi9x3PaKOtzTsgGXVTVgva8KO+va8M76drhtdjUS7DTWOtltXyyO7khEDYiRebKZMawjokW5/Lqr4XLP1pEn0blFfnNHRESF4XsnnU/k2liukYmoQDon2z82rG5VbpYnPJMmqDL66ya/VK5OD71ORMbwy6EuPfLrdCp0S6fV/R7Dbj1t5jly+6XLRx7jtTtxUWUd5HdQEhhKeJdIJbHBX4UVXv/4vieR/VqrZO+d0bD1OLl/9ufipyYRLYqU9l97840M7Oi8wRawRESF43snnS/kmliujdn8lWhhJIg7HBxVhWdTMy8hHydSBXdRRR18jskDvsnm4VRSNWkdSyYyK2cwXmWn/pw/aV6bbXSbDflkHw6bgQ2+KtUfXr7QL22ztrJWS9VgTJrCTt9kEoZ1RLRo9U2NuPHWW9gkloiIiIjOW3ItLNfEcm1MRAszHI9jKJFAppe36aTvOb/dgU2B6klpnsxJiHYyMoZTkWDBIdx8SAgXSSXRF4/oNRkSrEk/dq0eP6qcrsxxTU0aZdFaF0wmMGq9PnkdedNIjWEdERWF/Pbwnbe/h4NOEBEREdF5R66B5VqYFXVEi9MbiyJtSoiVp/TMWp2y/mh0+VDjdKsKuyxpjir3yeivEqiVijR93R8cRkz1hTdBnrvC4UK905OprMtTXSeVeHHrtY0mE2qAjHzbZDGsI6Kiko5033XH+7Bm43r1ZkREREREdC6Sa1255pVrXw4mQVQcwWwTUTVN/j6pMjDrtsnlhX1KX6jS89xIIoYzsWBmoxKR55HnmFpdJ+8H0gRWQkRpKjuNWpdWzXyDyaQKF2fDsI6Iik5+o3jZtVfj/b/2QVx5/U51ESPNAqQPDwZ4RERERLTcyDWsXMvKNa1c28o1rlzryjUvq+mIiiekquLSUIM0TMmzZNEOA3Uut7WQHv9mKetldNeeWBjhZLKk3zllpNlYKoVO67lyK/uEhHRVTrfqv25aFGcdb9q6XyrqIiqsm53tga/eP9c2RERE54yf7X5Szy1Me8Cl54iIqBCng3E9tzDv2nWjniMionPVz3o68drwADKVZ5NDNzWCq2HgA02rsd5XrbeRASfScBkOPN5/Gs8NdavgrlTkiOJmCpdWNeDmuhXTRjs/EhrBYwOnMZZI6Gq6XGlIv3rbqqrxjoYW+OyTB8jIxco6IiIiIiIiIiI669TAC7OQpqYuw27NTWynKumsx0lV3lJUo8nzyaizMqjEVE7r2BwzRG0yIKwcn3TJpyoHZ8GwjoiIiIiIiIiIzrq5wjqpVZPqtHzksfnvKb6kKfV80xlyADMchNreum+u/uoEwzoiIiIiIiIiIjrr7CrtkjArf+Il98wUdkmfcXPHYMXhMPJHhpmsMf+xq7XW/fPpU49hHRERERERERERnXUO6ectLWFW/tgtkTYRM1N6KUOFd9bjAg7nPGKwxZOaOulvLl/feEnr+GQQiXyk7k9engxSYZOZWTCsIyIiIiIiIiKis84t/dHZrP8l75oSeknAZZppjCUTKvDKkko16QOuweVVI7GWmjxDvcujquumiqSSSJgpNfLrJPJaJKiz/vBYj5MqwNkwrCMiIiIiIiIiorPO63CoUEv/MYmsScHEYDxmLUw0eZX1MthDs8sHv8OZqbQrEekXz213oNXtmxSoyTPKfaPJuKqum3b01vHarPslpPNYj5+rKSzDOiIiIiIiIiIiOusq7A5pZ4pMad1kUpwmeuJhpMzJgVgKaVQ4XVjhCWSSs+zGxWTtUp5nhcePepdXr8yQgDBuPWd/IoqkdTstilPHY1PNfAMOCetmx7COiIiIiIiIiIjOugaPVw0ykXdcV2uVNCPtjUcwlIhN2kIq1ezW7UZ/lepPTnUOV2TSlZ7HsGNbRW2muW4OOa5wKo5B67gyWWGesNB6vNMwUOlwZkaNnSVQZFhHRERERER52fJUNhAREZVKlcOJOpdbzeeL26SvulAqiQPBIRXIZT+lZFspyFvpCWCVtyLvYxdqPHizbmXfMuWSe+02Ax3RMIYT8cwx5YaF+vHypwyCUe1yqe1nCxQZ1hERERERkeJzJ9FSE8Ila/pw55VHsKZxVN9DRERUehLGrQ9UToRtOifLkkUJst4YG0AwGZ8Uysm81+7ApVUNqHS4MisXSYI6NXKr9cTVTjcuqarPVO7lkOeVfuoOhYYRS6XkQZk7cqg+6qzVzW6Pqs6b+rqmYlhHRERERDRFXUUIN247qiaZP5c57Sa2rhjEB685hI+9Yx9+5dpDuHn7aet1R3G6f3L1ABERUcnoAGtToFIlYJlFqZebTKrS+uIRHAgOW0sSlU2Qx6z0BrCztjn/QA8FyAZ10mRVBn69vKoBqzwB1eQ1S55PBo04FhrFmWhQrVHhXg6p/8sMepHGCp9fNYWd68AY1hERERHRecsw5KJafzvQAp4YbrnoEHZdekBNt1x8SK3LJY8xzoEmoltWDOIz734T77n0BNrrg/C4krBb5yRl2vCT11chkeLXBSIiWiI6wGryeNHq9mZCrynBl5BPX7fNjj1jAxhMRDIrNdlaRmW9sKIOtzWuhteu+5azHpS3H7lZyL5UYGf9d31Ni9qnar6aQ5bGkgm8ONKDmGmOv4YJaaT162jwuNFsvTbHlH3kY3/fbbf+oZ4nIiI65x09ckLPLUyVa3JnskS0fLXVjeDazcexpmkQPnccsaTDuii3qWq66y84DpcjparOWmvHkEwZONVXo0K7ja19uGh1FzZYt5G4C2MRj97j8jMw5sGla/vgdEyuXJAqAr8nie4hnzovxTAaT+m5hVm3frWeIyKic10ibeJEOJhJ5uSPKaGdNJeNpOQXTDa0uQNqOXcLeVizx4dapwdjyTiC1ramtVYCwGl5Wo7sfWnr+Q2bgSZrHzfUtmJ7RS0cUhE3RSqdxqsj/dgXHIQphykrc49V54PyrJfV1GOVL8CwjoiIaCqGdUSUdfsVb+O6C45jfcsAWmpG0VgVwqrGYVyz+QQ8zqTeSr4QpK37x+BxJbB1RS8uW38GF6/tUo9zOZJ462Sr3nI5ssHvTqC1dnpT3xp/DBe0D8LrSuL0QIUKMheDYR0REc1LOg2nYcfpSAhh6QMuKycEU1Vy1qIM6FDtdKHB5VW52NRPqhqnG+2eAPx2B0KphJpSakudolkkwJP9yX8Svsl9EvJdVFmHa2pasNpbocLAXNnnOhYeVVV1ETOZee5JQd3Ec9S7PbimrgEVDqd6vrkwrCMiovMKwzoiEk5HCh+67nVVUSZhXKUvhvb6EaxtGlQVdVPJOrlPtpFt5TFyrV1XEcZTe9fBTM/9W/JyFYo5ceGq/knfL7Ic9rQK8hoqIzjVV7moZrEM64iIaF6sDyS33UDETOFMRH6ZlFMNpz+sVOCVBuKmid54BO3eACodTtXDXe7HmczLoBMrvBXYFKhWoZ7dWiuBnUzSZFbYDQMBuxMrre0ur27EdbUt2OCvttZNry7PBnV98SieHOzEQCyq1ud+kNrGg7pMNd+O6jo1cIb0b8ewjoiIaAqGdUQkavwR3HzREb20cA67iRcOrVLNYZercMyJKl8MjVURVT2X7ztEbSCGan8UBztr9ZrCMawjIqL5kl8NuQ07OiNhhFUT1sy6SR9S1rwM9hAyEzgeGVNBmwRu+UjVnMvaX5vHj60VNbioog4XVtbhgopa1RfdVdVNarq4qs7aJmA9d+4wEhMkgpN7gqkEHus/rcNEa+2UD0+1ZP1hsxlo9fqxo6ZeVQBm1ufb82TL91eAREREREQFkoq6Sl8UW9t79JrF29rejQpvFA774sKos+m5g62IJux482Qt/vHxrTjUWa3vmbChZQTXbe6Yz3cMIiKixbE+bBrdHmypqFLVaNKXqqpVy2laKqSHBukDbjgRw7/3HMfR8KgaBXaqbG2e9IWXtPYhI7JWO9wqvJOqPGku67LWyX2yzeRnmSDrO6NBPNpzAiciQRXITdvW2oesk+d02+3YHKhEvUv/Um+eH6KsrCMiovMKK+uIzk9ttSPYse4Mtq3sweYVvWqAiArv5BFeF0oqzuorQ1jdOITW2lHEU/ZlN+hEPGWgsTKCp/atsI7dhUOdNarpb3NNeNL3iqbqCI71VKqms4ViZR0RERVCmovWuFzoiUYxnEiMB27KlNBLmrZKBV5HLKSCsjqnRwVlU4M0eVT2kXJf7iRy7xfZ9dJnXdRM4e2xITw92ImumPX5qO/Lbdaabf6q9mOtX+uvwKU1dfBLX3XqnvmxPfDV+7PPTUREdM772e4n9dzCtAcKa+p24+//FW7f4kNk/8P4gz9+TK/N9RF8/qGdaNJLoufpT+HLX9MLs/nEF/EX17foBUvXs/jc5x/SC5ap91tmPo48dn0Of/ThzfDqRZH38XMdh+WDX/57XDnpULrw4ke+gO/qpXznAeED+MFv/gUK/4lN3dfU5xK34NN/dw82+PQiwjj8rd/BA7v1Yj55zqcy9fVOO2/z2HeunOeZ+nch+/dp3ILP0fnFMNL46Dtewqa2PnhcEwNHlEIk7sDBjkb80xOXwzQLuSxfQjYDNqcXyZQJIxW1vjxkvg5IOBdPTvxCQvrlu+GCM9ixtk+vydhzoh6PvblSL83f6WBczy3Mu3bdqOeIiOh8MhiP4V/PnFCDSaiBJazPLfmETU8dVVVXtEnV3EpvAFdXN2OFx69Cs8zAEZkQbT6yQZmq6rNuO2JhvDzcqyr3YmZKPdfUwFDRzyP3VTgceF9LO9q9Pms/hTVsZTNYIiKiUpDA5qG/nxysTCWhzNSAar7yBUctO/EXf/c5ZL/OfnDD9GDJu+Ue/NHv36KXZvMRfH5KUCemPX4exyEB0+SgTrTgyoe+iA/qJXxi3fTz4NuM23P2Mz95Qj/1XH+FT+/Si9OCOuHDhg//PT7/Cb24UHkCzsy+c59/NtaxXTb95yamBXViQefo/CNhlDR7LXVQJ2Tk1Avau8cDsKXkdpqorUzopZkZnioErvscetp/HSlHhV6LSUGdMNM2PPn2CpzondhGyAixS3EuiYiIJPyqdblxW/MKuCTwkvaw6lM2T1CmwzMJ5g6HRvBPHQfx7z0n0BkNqco4ebz0Nyef0NLQNd8kZC9Om101r+2PR/HD3pP4l45DeGtsAHEzlQkM8wR1qqpOHZ71HNb89fVNaPP4YF9A9MawjoiIqNgkwMoTdE32EXw+G3JJddRHPoXP6Wnuqrqcx0pVl/WYH+wPZ5Z9K7FlPBSSirLsfh/GYb2Jtzp/GDTNpOPKefyq7Tocmu9xZCrEMvuxpqe79NoWrM4Jx3K3mdhPVUFh5ge/nA3q9Gv/1gFE1LIPKy7JhIw3/v57dVAnFW/yfM8i23tZ04aP6Lnpbmyoyszo1zo+5VTV3XjJSv1zz5777HmbeP7ZTBzbVLdgyyp9R/b5s69tyrmm6SR06hqq1EulJ88lz7mUvG4Tn7itB6l5VPPZ3BPhm+nw67n8ZMAJaRqbOwqsDKqxrmlELxEREZWQDr6avV7c0NAEr82eCcSEtX5i1NUMqaKTNVLJ5rSmvcEBfKvzML7TcRjPDHXhRGRMVehFTRMJM636qJNwL2nNx6x1I8k4OqIhvDTcjX/tOoyHOg7i1ZE+a1tThXcyemxus9dx1nr56Jemuh7DwDsamrG5okpV+Y0fbwEY1hEREZWEBEETIdBUN/7+pROhUqHNGHfVIxs79BzOBEVP/vFr+rkmQqHvfj636WcLKnXWExnOhmWzeQhfnnRcj2H/ySkB2jyP48k//p3JAeTXjo6fl8oGHWB97QuTtmmq1gcbHpnxHE53C2p1noauo5nXvvsv8KZ+udmQcWLfp7BfNU19CC9mw8GWdbraTyr0/h5/MakiL2Ne5y/7/NZ5G5yaaaiKSmvfUyvidn0Ot0jlXDisA8b8sucau/sxmpmjOUjg9NKhwpttLtRLh9rVcy4V+R7wq+/qxYluN0aCDr1WM+wwAo3qy46jYTN8l30Mvh2/ru8E+pvfj76WDyDqW2Mt2ZBw1lpfNiZX2PWPeXC8Z3LY2VYb1HNERESlJeGY1MRdUFmDy2vr4DGszzr5mLUmFdVNCeyyZK1UyEnQdiwyiicHOvFI91H8X2v6fvcx/LD3BH7Se0pNMi/r/q91DfewdfvYwBkcCo2oJq8yimw2BJwW1Mlz6+dXQZ3drvqou7CqVj1uoRjWERERFdvXvoDPfWT2PsrGAyPrggBfllBIT/Np0riiSldvhTF6Rs1YujCq86aJyjlp7pndd6birKA+6yb5CK7MNsHMBlHzPo7JJoLKMM68PnEs0swzex5Us9mC+2PLH0j2DOeGjDmB3kj/+L6f7MsmalWo3ZV7jNMr4qQp8PjP68uTK/Ge/OMfZSrppCnwlNfymDrvOc1cJ1XEWevvkGrMMA5//7U8IdxjeOD7mUq6puv1c4//TH80//7wzmMHOhr13ATTtx1pY6IGNu1Zj7SjRl2Mm/5LYFZcnZmseVmn7rO2mSrt3WLtJ6CX5Lkyf3uWgnxnuOO6AWxYEcVjL00fwdXZvB2+Kz4F36X3wrv9Ltir2jJ3qC8WmS8XCXcTBhtuQX/zbehtvQcR/wa1PkuCxyf3tU36LlThlY6+iYiIloZ83qkgrLoOV9XWq2atmXhMfxrNEthJwCZVcfKYuGliMB7FqUhQNZU9EBzCfmuSYO5kZAx98QiiqaTar1TnyW3+PVsmPacNbsOwjq9WHaPPMeWXZwViWEdERLTkcgKjlp2T+3OTPsimBEBTjTfHxAgGCwxpvFt2TvQTN2+5/cB14UXd7HMhx5Hb79qcIZN1Lq4spA+5nEq/0b6ZAsn5VRhOVAhOBIrjAWsuCeUm/bwewwOvTN9vzyvZ0DHn/vHKPmm+m+lDb9ZzklMlOKELby4ofD2/BDwxXLi6Uy9lpOGA2f7fYNZ/cPwiPNX8aaQrr7eukL0wV/w+zLbPwWz9LMymT1n32pEOXIlU23+yts9cuKvJ5kZqxX9F2rdddqHIc8lzLoW2+hiu3DqGM71uxJOTL+1t7kq4N75bfUmxV6+yVlj3W18sEp2vI7Ln26jt+TF8Y/utLa1XYt0X97SqbUdqr0XKPrl57GjYjb7RiWDTbkgzoNwvKURERKXnNRy4vLYetzW3wyX912X+t9gyTWJnCe2EfM7JJMGdTJOW5T8J6Kz52eQ+j2ypHm99xF5X34TLaxoQKHDk13wY1hEREZ1VE/3KvZgNYrJNMbPNJcenzIAMU6vAppoIoR7DA7+p+1Ub75etBVdOGfxh0nNMrexTx5DbD9xE09r5H4fIVPlNBHXTK/ykuWy2H7jsuWi6fr4DM1hymoWON6/NpZrUzlX5lw0eH8KX1bFMVEh+9/PZcynTRB9+E01nM6PeZgbcmNwfnlTDjQ/MoSovrft01eD4ABzj1Xf5ZJrljlccyuNV339TB8+gqeoqQrjl4kO46cIjeo1mcyJd+z6Yrb+LdMU1alW65hak/RdaV8h+675bgUQfbGPPwxZ6PXO/4UO6/h6kna0w6+6BWfOeTDVe3R3W/iaaushzyXPKc5fazgtH4XSk0TPk1GsmpGOjiOz5DkzrNit2/GlE9/8QyYGj8EROo3rgKVQMv6LvBezJEGp7fwJ7avqxS3PYLOkbL2/n3kRERKVkffTYrT+2VlbjnrY1aPZ4YRgSuMlIsDqSS5vyR2a+EHN9rOmQLtPThXwKSkhnU8fwoRVrcEl1Lbx2ObrFY1hHRES05HL6MRvv2yynueaCTFSM5ZfTL9s8B21QQZ4eQELCtc/lBHUzy3ccEjRlR1/NhJNzNcX97hMTA0NUrlAzC5a3Im6KiSrB+cqtoMuGlR/Bap3/TVTITZz3iYE5cuUMHCFVlSo0zYajmZBPVe6Nj5YrzWR1ld7Xni1o8Irz1Y3bjuK6rccR8MT1Gi37W3O7H+aKzyPtapeVmUnfZ0sMwhbrgC3eYS2ZsAVfVvenq25UjzFb/5M1fwOQGoMtvFc9RshzyXPKc5eS35vCjs2ZvuPGwvn7xUmNdCAd08Gb9QUjcfrFzHwO/8hb1p+ZLzVGKgxXLH9PkcGIS89Z81HnTMULREREJaUq36wPoZU+P25vWaH6h6uQajapIFcf5XK/datCu8WSgM7a5ZQPPXmuSpdTNXl9f+tK61gCqtlssTCsIyIiOgvGg7mcqqxpgypkK7DGJx2WjQ/Q4MOGd2SaYE7vB+4j+Pyk5pk5oVCO3Go2NWX7iMsOdmCRUVrzhmvzOo6cEVpVRVj+wO+DX85UDWZNjKpaiIdwQudn4819rddxYTZAO/mW9dpyBspouVRXpOXpj09Xsk0MMHELPv3l3KrDnL7n8jQDzq3amxYWzjTAxLzkhpdzBbQktq/qgt2Y+WLdNvgDpN2rkWr5bWthIowS6cprYdbfDbP2fdaSkQntosdgNt5r/ZDXAf6LrPvvtP5u74UtNZx5kCbPKc9dStvWhK3nyczPNAqsfJmw2TP95pjREaST05vnGuk47MlM6JeWTrtn+IqQOyJs5+Dso8gSERGVlP7FWq3LgxsbmrGruQ2bK6vgU595mfuk8k2RoE2Fd+oPtWp+Mo/TQ0tkntKafNZnpVT2vauxFTvrmlDjmF7dvli2B756fyFHSkREtKz9bHd2SIGFaQ9M/jI/u4m+3qY3+5y4byoJxyaNnppHbt9vk3Q9i8+pPuVm3v98BpmYcf/KRHPYxRyHyB6LNB+d1HdfVs4gE+PbjO87j12fwx99WAZqmCq3Ce9MxyRNV3WzVwnUcqoK/+CPgU//XbY6cLLcn9ds5236a815vkkmjm9i39KMOP/zz7wfEndd/Sau3XJiWmAnTVqTV/bAOPQxwFENs+33rNsqGF1/A6P7ASQvOwaj437YQm9IygXb0I+t63MTyTV/hXTTrwPRE4A9ADjrYTvzZ3Cc+SO954yUaeCX+1fjkecv1GuK71du7sMVWzMh2y9ercKPnqtV85NYXyh8Oz4Ke6X1l876khJ8+k+nBXamzYXuVfdZczY4Y32o7/4+bOlU5s4cOzd34qqN3TCtU/nAzy5EJF5Y59mng1OqGwv0rl2Fx9tERHQekBDOZkM4lURPNIK3RodwJDimRnJVIZu+X5rJSoCXzqm4k/wtE4rpYG88mMsu6/utP6SJ64ZABbZV1aDB7YFXjxJbCqysIyIiOiukT7Scfs+UTD9ncwV1QirifpBt1qpJGDQRYk30zTYhs/+5grpCzH0c85OvCbDaz/hosBODcvQcnmXfu/8Cf/CtbBNabVpFn5z7bB9+WRLm5QRe41WD2QrBnKbL46b/vFSloupLLtfk8/7dw/r+nAEm5pbpf3C8X8Ms9doY1M3myb3r8My+NQhGpwTt6rfrcjluwuj7FmyDP7SujKVPNmu9vi/trEXa3Yq0q1VtKWyjz1p/OKztfwLbyFNq3hh9Rt2XJc8lzynPXSry3aDSPxGoVQeSem4yGf3V5tZVcNaDnO1XZuZzhKokUMy8PtPuQ9ydP173uRPqdt+ZuoKDOiIiopLRgZmEZ2v8Fbi9ZSXuW71BVb1VOzOf/+qjPS1BnTUjVeeGDCQhkZgEbjIvq9Ufan+yuWlta1ozNdY+rqlvwK+uXIv3NK/AKl+gpEGdYGUdERGdV5a2so6KJ1ttxioyKpyMzHrlxpO4/Yp9eo1Ecg6kNn0Txpk/hRF6LdMUtv2/wxh8FLbhnyK1UUJh6yI8nQSSQ7Af/S1rKQXTtQLmmr+wHvcngKMSZvMnYT/y6UnNYH/w0la8eGgVglG3XlN8hi2N37ijGxtWRNVyZ78Lf/btNjWfZXNXwH/1Z2Cz57xvWV88El1vINm7H8FwHFHfWoQrNlt3THzhsJkJNHZ8Z9ogEx+69hCaqsP49rMb0TMyU+XtzFhZR0RESy1hmuiLR1XFXX88hoFYDKFUAkkzDdO6GpBJ/lcjw1r/ya3PbkeNy416txutHp81eSf6o5MErXQZ3Tj7+2679Q/1PBER0Tnv6JETem5hqlz5O3GnEtt1M96zvR7O8FH88q+ex+J+inS+iScdKji7/oJjeo1cZ5tA5BBskYPWfFKFbbbwfmt5f2bAiMgR2IKvwDb2YmZKdGauzeW+6GFr27dUH3byGCN+Uu0z6+FfXoThUOFhVkGsLxOXbAyhvipTUSeDTbx8oALRWE7DmVQc6XgI9vqNMEdOwXBXWo8zYK9ogbNpG84k2pBwN1gbSihpwhXrQtIeQPXgM3Bb87mc9hTese0M3jpVh72n6/XawozGpzetLcS69av1HBER0TykpQ9Zmxp8osXjwzp/herXbkOgEhsqrMm6Xa/mq7DVmi6oqsaFVTVqVNfNgSqs8PpR5XSpAG88pFuCoE6wso6ISiaRSKDr1Bn0dndjeGAIoWAQiZj1xUG90xGdHVUtMuLjwrGyjmh5um7rMdx9zZt6qbQe/uWFeHb/Wr1UOv/hpn5cdcGYXgL2HPHhod1N2Va8GYYdhq8OZqgPjvpNcK26GvaqzCglB4/2qVtnrAcVI2/AEz6BhLMGjuTItD7rrt96BvUVUXz/pXUw0wv7prLYyrqRrtN6jmjpScWN0+2CPxBAdV0NGpub0bJyBZzO4ncsT0Qlpj8op34rHf90K2Hz1vliZR0RFd3I0BD2vvYGXnziGZw5eQrDA4OIRiJIpRb3G3WiYvBU6I7PFoiVdUTLj82WVkFdlT/TZLTUpNntCwdXWXOlvdj3eVLYvnaiv8faiiT2nfBhLJzzPmV9IZHqOmGG+5HofAOpoRNwtl6MgaEw6rr/HZXDL8ORyDTjtZsR66gnf30JeBK4dE0fHn11LZI5I8IWarGVdbHgqJ4jOjvkWlauaeXatsO6xj345tsIh0PwVwTg8RY+hjkRnSUSxlmT9DmXO8k6NZWBhX/aEhHlseflV/Gz7/8Qxw8dYQUdERGVBenfraVm6YKeltpRGEbpPwPfPu5DIjnxpcLlTOO2awfnfO50bKIaz56c3C9dPjKS7r+9tA6xBH9ZQZRLrnXlmleufeUamIioWBjWEVFRSDXdz3/wYxzaO9F5NxERUTlIw4a3TzcvyQimUes59p+Wpqil/818OGrHKwcCeilj08oIbs8T2Lldpp4DzOgIgs/8BZpO/xPsyYngbiYjYTfiSQZ1RLORa2C5FpZrYiKixWIzWCJatP6eXjzzs8cRGpv7gp/obGMzWKLzjwRnfSMBDAV96BioQtdQJRx2ExXemN5icWR/b55sweHOBuw71YyXDq/CaMSj7y2tkZADl20Owp7zK/j2xhg8LhOHTmcGufB7Urj7xgHsPebXNe/Wn6kEjHSyxA11J2MzWDrXSRPZ08dPor6xAb6AX68lIiocwzoiWhT57aEEdfFYcb7wEJUawzqi89NYxIMTvbU43lOnbhMpA1vbe/W9i/PT1zfil/vXYv+ZJhztrlfPtVSCETtcjjTWtk70xyfd7axuiaGlLoGufhfeefkwtq0N47VDAUTjZ69hDcM6Oh9Iv3adp86gZUUr+7EjogVjM1giWpSXn3meQR0RES0biZRdhWn7TjfpNYsn1XSjYQ8SZ6GpqAxo9+Pna/DW0UwVXa4L14XwX37tDK68YAxet4l3X8HmeURLQa6N5RqZiGihGNYR0YJJR7pDAwN6iYiIaPkYjXhV/3KLJf3gLVWT19k8/ER93sBOmrkauq2rNJdtqYtnFoiopOQamYNOENFCMawjogWR5q8cTIKIiJYrqYJ762QLzLQNyZSBMwNVeO7gavzizQ0IRl16qwmyTu57/sAqdAxUImUa6rHSV51U651t0hz2oZ824snXKxGJ5b/EN6zVl29h/7JES0WulTngBBEtBPusI6IF2fvaGxgeGNRLRMsH+6wjoqyBMb8K4Q53NeCN42149Wg7DpxphMMwsaZpCIYtMxyDBHNPvrUOj72xUfV31zcaQM9wBY731OKlQ6uWtI+62chAGjKoxJtH/aivSqChOqnvmVBfncBTb1QtyWi1U7HPOjofmaaJ1pXteomIaH4Y1hFRwRKJBF584hm9RLS8MKwjoiwJ2Y511+Nodx16RioQSzhUMNc9VAm/J476yjCSKTtePboCP9+zEZG4y9rGiV5r22M9dTjaU6/6qis34agdw0E7dmwOjTeBzTU46kTXwPTqwVJjWEfno5GBIWzYtgV2O68fiGj+2AyWiArWdeoM0tZ/REREy500ZU2rnt0mBKNuVUW3+7XNapJ5WZdLKtNMc+mr0+ZDRof98Dv7YTfSSKZsCEcNHO3w4FuPNeALX1+JVw8G9JZEVGpyzSzXzkREhbA98NX7+Y2biAryyi+fx/FDR/QS0fJS1bK4pijtgaWvRiEiKsTW1WHsvHAU+054cbrXjYERp+rT7mw7HVzc4BYjXaf1HNHysmbjelx27dV6iYhobqysI6KCDQ+wo1wiIqJydeCkF3//g2Y8+2YVTnZ7yiKoIzqf8dqZiArFsI6IChYKBvUcERERlRtp2ktE5YPXzkRUKIZ1RFSwRGxxzViIiIiIiM4XvHYmokIxrCOignFwCSIiIiKi+eG1MxEVimEdERERERERERFRmWBYR0REREREREREVCZsD3z1ftbkElFBHn7wm3qOaPmpamnXcwvTHnDpOSIiKsTp4OL67RrpOq3niJafe+67V88R0VmTNoFUZjJHRpDu6IbZ24f00BDM0SAQjQKJZGZbpxM2rwe2igrYaqthNNXD1tICo6oSsBuZyVa6+jeGdURUMIZ1tJwxrCMiOjsY1tH5jGEd0VmSTgPJJNKhMNJ9/UidOAXzxBmkR0f1BgWqqoR9VTvsq9tha6iHze8DHA7AVtyR2NkMloiIiIiIiIiIzi3JJMyubiRfexOJHz+G+I8eQ+rNfQsP6sTIqLWPt9W+ZJ+yb3kOea5iYlhHRERERERERETnhnRaNW9Nvvgqkr94GsnnXoLZ1QOkUnqDIrD2JfuUfavneOEVmD19mUq+ImBYR0REREREREREy18shtSevZkA7eXXYfb2A6ap7ywBa9/yHPJcycefVs8tx7BYDOuIiIiIiIiIiGhZSw+PIPHUc0g89zLMzu7iVtLNRUI76znlueUY0kPD+o6FYVhHRERERERERETLUzqNdG8fEo89idTbB4BIRN9xFljPLceQ+PmT6pgWimEdEREREREREREtPxLUdfci8dPHYZ46U9omr/MlVXanOhCXY+ruWVA/dgzriIiIiIiIiIhoeZGBJCSo+9njmb7pykxa+rL72RNI9/TqNfPHsI6IiKgAZnEGeCIiOq/wvZOIiIot2/TV7B/Ua8qP2TeAxM+fUsFdIRjWERERFSBeDqX1RETLDN87iYiomNJDQ5mBHPrKr6JuKrOnD4mnrWMdHtFr5sawjoiIqACRJMtDiIgKxfdOIiIqmmgUyZdeh9nRpVeUgNcLo60N9nXrYF+zBkZjI+Bw6DsLZ57uQPLl14BYXK+ZHcM6IiKiAgQTKSTZnouIaN7kPVPeO4mIiBYtnUZq/yGkjh5HKQaTsNXXw3nTTfDcdRfcu3bBdfPNcL3znXC9733w3H03HDt2AB6P3roA1rGmjhxH6sAhvWJ2DOuIiIgKNBznl04iovnieyYRERWLDCSROnAYiET1miIxDDguvRSee+6B86KLYDQ1wVZdDVtFBWyVlTBqamC0tsK5cyc8d96pqu4KFo6ooHE+g2EwrCMiIipQJGliIJrUS0RENBN5r5T3TCIiokVLJmAeOqpGgC0qux3Oq66C85prYPP5VHCXl80Gm8MBo6UFrltuUc1jZV0h5NjNI8es1zL7dwmGdUR0XjINOyIeHwZr6nC6bRUOrd+CN7degje2X4Y923Zg75YLcWTNRnQ2r8BIZTViLjfSBb4R07ktbH357A4n+CWUiCgPeW+U90h5ryQiIlq0dFoN1GAeP1nc5q+GAfvmzXBs2wab261Xzs2oq4Pz8sthNDToNfOUSsE8diJTXTdLzzq2B756PzveIaKCPPzgN/Xc8pOy29HT0ILO5jbE3B7EnS6kjdlDOCNlwpWIwRsJY+WZk6gdGoBttndWKmtVLe16rnjsNhvcdhsc1t8lRrpEdL6ST0bpny6WSiNlfakqtpGu03qOaPm557579RwRLUgigeSre5B8/uWFhXWGAVsgAFtVFWwul1qVjkYzVXWXXw776tVqXUGs40i89BISL1vHFJ/fwBGKNLm99ko4LtkOOJ165WQM64ioYMsxrJPKuN76JpxqX/P/s/cncHJV953w/bu39u7qrt73Vmvfd0AyuzAWiwN4CyZ2jBx7CLEzM89kyDzDOHnzOv58Xj8OkwxPmJnnIfjj2DEkOITEC97AwiBAICMLBBJaaO1qSb3v3bXfe9977j3VtXR1d1Xvrf594arPOXetUuvWuf86CyJ5fGOSTdHQIJounkNZbxecGrtCLjQzEawjIqKZx2AdLWQM1hFNjdHbh9gvXobe1i5L8uDzJWd1rayEYuYFY3jYCrIpZWV5tapLpXd3I/rTn1o/86HW1cB198eglARkSTp2gyWiq15XWSUOb74Op1aunXKgThj0F+HY2k14f+N2DBf4ZSkRERERERFNO0OH0dkNvXPiiRlG8fmslnPum26Cc9Uqa6IIxeu1FtGVVYw/N9lAnWAdr6Ii/7HrOjqhd3Vbry0bBuuI6KoVdzpxdulKHNmwDUExUOg0El1n+wMleGfLDqtbrT7WIKREREREREQ0eZoO7fxFa7y3vIjuphs2wLl5M5TCwrwDajkxz+G6+Wa4770Xjk2bgFwDf3EN+vkW67Vlw6dLIroqiQkkjq3dggsNYoYeWTgD4i4nTqzZgPONy2UJEREREc01xQBc5kOwL6ahMBqHPxozf8ZQENXgietQORgU0cIhgnUXJjEUQkGB1apuKi3ncqEGAnCuXAn3Rz8K7/33Q21qkmvGp4vXxGAdES0WMZcbRzZsRXdZ+YSTR0wH0arufNNynFm2ygoSEhEREdHccOo6yoMRLO0bxJqufmzo6MWmth5r2dzWi40dPVjb2YcVPQOoGQzBG8+zpQ4RzTqjfwAYGJS53DlXr4YyzT2sxqQoUJxOqNXV8NxxBxzr1lmt7sZj9PXDGDRfWxYM1hHRVad5xVr0lpTL3Oy5WL8UbVW1MkdEREREs0W0pKsaCmNjey82mIsI1C3pGzLLQigPRVAWippLBJXDYTQMDGNldz/Wd/ZiS1sPmsztRCs8Ipqf9MutMpUDVbW6vKoVFdaEEnNBKS6Ga+dOqEuWWEG88eiX22QqHYN1RHTVMMwb4fklK9BeVWOmZeEsEq34mleum5NAIREREdFi5Y7rVgu6zW09qB0IWl1eHbphPeyKRVQLMxeHAauLbPlwGGs6+7GttRsloagV9COi+UVMxpATMevrqlVw7doFz6c/nXN31JkgJq9wbtxoj5U3jrFeG4N1RHTVGCr0o6V+7m7Igi4CdivWIOqe2XERiIiIiAjwR2LYfqXLakXn0TSIAUlyecgVMTkRtBPbiq6zFcNhbG/tQnkozIAd0Txj9PbK1NhEUMy1bRvcu3bBuWYNlKIiKDMxoUQeHEuXQq2sNC9u7OswevpkKh2DdUR0VTDM6tbZpasRczllydwJFvjZHZaIiIhohhVFYtjQ0Wd1bxUSj8NWrE10hauuglJTPXoR5YUF9nZiU3MR+3pjGrZf7kblcIgBO6J5RB8YkqkxuFxwrF0L59atUPz+cYNjs0lMbGF1hR1n7DpjMPtrY7COiK4KnZXV6CmbH91PRRfcs00rrYkuiIiIiGj6ia6vYly68mB4pIVcKiVQDO8f/D58/27PqMX75T1wbjcf6uW2gkiLRbSyE+PYVTFgRzR/hEIykZ01G+uWLVB8PlkyvQzz/IY2ucloxIQT4wbrxnhtDNYR0YKnqQ5cqlsy8u3ofKA7VFxomJsBTYmIiIiuZqphYHVXvzV5hBVwM/OiHijGLxaLaFUjWrSIFjZZl+Iia4bIxPbWIo5jEscTk02s7B5AUTRmFxLR3Bpv1mZVhdrQALWkRBZML+3iRUR++EPE33nHzOQfsLMCiOK+NJYxXpvjnnvv/kuZJiLKyfH3jsjU/CC6nYrAmAiQZSNujet8XvwfdVW4zaycnY1E0D/Jb0byEXe6UNXVDoc+8+ei3HmLAjJFREQLSWRoQKZosasdDGFV98BIazi1pgae+34Hzuu2w7lts71sWAeltASKaNEiHpRTF7FPcTEca1Ylt9+yGYjFYHT3WME/t1lXFGMR9/o8dgBwijZs2yJTRJSv+IHfylQWDgecmzbZLdhypHd2IvSP/4jY4cOIvfsuYu+8A727Gw7zXqK4Ze8o8z4gtosdOGB+AEWgnT9vBfvFLLPjBt8yGP39iB8/PnagzzyW8/rrZCaJLeuIaMHrLSlFfIyx6orNm/cfVJXj1uIiPNXWif9xpd3MV6AxcROeQSGvFyFfgcwRERER0VSJVm9L+wat1nXiYVY8MquV5XCsXGYuK0YWtWmJ9RBsiFZ3GYuglJWmbe9YvRKKHAheHFN0gRUt98S4eEQ0x5zjjEsuAmcul8zkRh8etgJw7o98xFocjY0wRFk8bm9g3if03l7EDh2yAnTu++6D65prEH3jDcSbm/PqEqv39Jh/6DKXxRivjcE6IlrwusqqZCqdR1HxR9UVqHG78P2OblyOxqwWdX1xDUs8Mx+s0x0O9BWXyhwRERERTVV5MAJfTLMCagnGcNB8IO61ZowcWcwH5AmXtO3NJRgUR7OOKY5fGI2jIhiGmugjS0Rzw+eViSx0fcxx38YlW+SJxVFfD8XMJxhDQ3a313jcCtKJLrZO86dr40bE9u+HduZMbl1izW1EN9rxgnXKGK+NwToiWtB01YH+4uzjE9xa7JeBuh6EDPsG6VVUlDsd6IzJb01mWF9JmUwRERER0VSI1nRloTA88fRgnXbuPMLffQbhf/inyS3f+yeEvv1daO8chqHZdcbE8SuHw3CM1yqGiGacWuSXqSxEK7jW1vFbr+XDPF70N79B/MMP7RZ7sjWuxeOBEY8jfuAAtJYWWTg2vb19wmsTY2hmozz51BP8noCI8vL8956Rqbk34A/g0PadMpcUcDjwV031eKGnH7/s67fKnGa1649qKnAhEsXPe/tnZUIKdzSKm36zT+ZoPgjUNsrU9HEoCjwOBU7V7jpDRLQYic/VuG4gohnQUh9upkl/68QPRnR188Y1bGzvtbqnZrY6EePKeX73kzKXp5j58P3+EWjnLqR9jlu/06qKN5dUYciTXze7TPd/6UGZIqJ8xV76NbQPTsrcaGpZGdwf/3jO49bFz59H9Oc/R8G///d2/oj5798sc996K5TiYkRffx3G4CCMvj44t26Fc+NGq/Ve6Pvft84lxq1zLF8Ox9Kl1v7ZiG61otusdtK87nFa4Tk2b4Br9y6ZS2KwjojyNp+CdR0VNfhg/WaZS/rd8lJcX+S3xqi7Eo3K0qkRwb5t/gJUOJ14c3AIAzmOVXDLm6/Aqc1OSz6a2HQG61yqgoDbAZ+TDdWJiFKF4jr6oxpi+vQ9ajBYR4FwFJvbelAciY36ckz8phV+48+BjHGJxXYT/hYGg4g8/yPzobpZFiSJ9jDv1lWgrchnF0wSg3VEk6cdPoLYK2/IXBYOBxzr18N988327KsTGDdYFwjACIetiSHE5BIiKOfcvNnqJh/67nfhuvFGONeutVrdKWOMNyf2F91oxQQWYmy88bg+discWzbKXBKfLohoQYtmmShCdHVd4/OiJx5HzzjdXcUkE/+9qR5fb6hDiRyj4Aa/H3eUFFvH+IuGWqz22mMIfKa8FLvNcrFdk8eNGjmI6S1FfvzPZY34ZNnYU4VH3R6ZoqtJgVNFTYGLgToioizEvVHcI8W9kmi6OHUdbtlNNRujs8uKzGkfnkLkn54zn8DjVqDOGBxC5N9+AqOj097QPE58/wFoR4+ZKw2r66s+MPZsw4VRTjJBNJeUulqZGoMYG+7kScTefluOPTk1ivkMKBaI2aQziNliRUBwzEDd0JDVMk9MTjFRoE5Q67O/Nn56EtGCpme5gfocKgrM8mGz4hWRY9WlEt+w3lUSwD1lAXyjpRWXolF8pKgQRQ4HdpcWY3OBD58pL0G122VV8OrNG/INRX5cMG+22/0FKDSPL7r3fKmqHE7zPOIYO/yFI4G9TIbKjpFXG/EQWu4dZ1YqIiKyiHslv9Sg6eIwq3WOLK01EyVaa7v5p2F1V9POnhsZJ0p0Z9MvXQYSvS3E+suXkw/1ugYMZ3/AF7W48QKERDTzVPPZDcXFMjeGWMxqzRb50Y8QP3bM6oZqmM9v2Rax7SgicG+Wj2wntsk2pIP4EiDlWIlF7+62WuKF/umfoB09am03EaU0AKUo+5h1/OQkogVNzTJYp+iu6jBrVjFDH6m8papwurAr4Me/dfVh2Nz/pz19eLV/yArwFZpL1LwpfxiKoNe8wXaaN2mPomBY09BslkXNCuJKrwf/pb4atW4X3hywu8P+v60daA6H5RnSZbtGWthK3MnZooiIaHy8Z9J0y/waNJHX29rNjGJ1Y1M83uSDdsYORth8uBZjGsueEtBEgC97PY6I5gGHCkdTg8yMT29rQ/TFFxH6zncQfuYZhJ99dtQSe+UVuXWS2C/y4x+PbCPSoixT9MCBtGOF/+mfEPr7v0f4H/4BsbfeAoaG5JYTU5c0Wq8tGwbriGhBExM4ZAobOsK6gRKnEz5l9G3Ob94QPaqKjnjM6i77n+qqrbIVXg+cZgXvmY5ubCr0oTeuYVDTsdbcRpQXmNv0axq+frEVBwaHETIrdlHzXLsDxbijNCCPPlq2a6SFy+9yWBNJEBFRbsQ9U9w7iaZKN6t1uvkRnO3LWEHv6LB+qqJe5vPAGBi08pkMs25mDA1D8cjhVMw64XitYOJjPEwT0Swx/w2qS5eYP/P4LBEt4Pr7YfT0jF6yBNTELK9p24t0tvuCaLGXeqzeXqu1bt6cDjis18RgHRFdhbzh0TfGQU3DxUjUavnWkKiEmUR4RbSc+1xlqVXJu624CJ8uK4FbUbCnshyfKAtY+/Wa+xebN81i88PgP9dVocLlhNfc7w+qyvHL3n4ryHcmHEG5WX5tYSE+bu431iQWIlDn4OQSVxWfk4E6IqJ88d5J00FTVMTGeFgXv2GGHHfOGmDe3E67eMkszBLaE2PQiZ4PovWdSe8fgJGlJ4TYUywh86GaiOaQ+W9fNZ/X1KoKWbDwqVWVUCrKrNeWDYN1RLSg+YNDULXRs7L+sLsXZ0IRfKWmEp8uK8U9pQE8UF6Gu8yf/29rJ/7nlXaoioLvd3Tjxb4BPG9u/+22LjzX1WPt/3x3H/YPDOEfO3vMsl7reP/c2YtWOb7BW4NDVplobff35n7LRau8UZ0ygKLBfpmiq4Vb5UcnEVG+eO+k6RAx613hMVppWoG1RFdWGdDTzl+wfmYyxBepHg8Unx2sM7rExBRZgnomUTrgkd1liWjOKP5CqCuWIdukDwuO+RrUFUuhFBbIgtH4qUlEC5qqawgMjA6I9WkanmjtwA+6erDM44ZHUfHT3n78W3evte58JIpf9w/gSixm/RSTTJyJREaCcaKl3MtmeZuZF5NU7B8cslrUJYiK27vDQbw2MIjDwSD+oaMb2UbIK+3vlSm6WrAHLBFR/njvpOkQdapWK7dsYTXrV0x8gSuCbg6HNWadfuEiFCXLL5+umw/+fjtYZ67XO7rkinTiPEG3C5ExZn0kollk/jtUG+ugitZoU+Vy2bO9Jlj3DI91P5gNVivBhnrrNY2FwToiWvAqu+3xSTKJ4NmhoWH8j9Z2/FtPL4bFTF8zJGhW+jI7TzjMCmPJQJ/MEREREdFUxFUVfV63NYZctoCdCMJZ49SZD9xKoBhGv90tNo3cRikstLvLiqLOrjEf0rsKPeZ5GW0mmnPmv1HRdVRdvnSk9exkqYEAvJ/9rMyZh1uzBs7165OTzswk89rVZU12l95xgoMM1hHRglfS3wtXbP6NCyfG0/OFgjJHRERERFPVVeBF0OW0gnWjAnaaDl12aXXU1lgTSYwivmBtbYfiNh/KnfaDuRhIPvORWRw74nSg0zyfzmAd0fwgWtetWg61ulIWTI64T0T37oURiVjjVWqnTyN+7BiQ7Z6haTBE76txJqHJh7h28RrGa1UnMFhHRAteQSiIwuHss33NpfKebrhinAmWiIiIaLqEXE60+u0WcaOIVnNy/GG1rtYK2omgm6I40lqwWLM3igdlGYQzhoetnwmJQKAIDPZ7PaODgkQ0Z9TKCjjWrQZky9jJ0i5cQPTVV6GdOoX4b387MkFNmmgU8aNHEf3FLxB5+WVADpk0aQU+ONavtl7DRBisI6IFT4xb13DlIpR5VJNSNR1Nl87JHBERERFNB0MBLgYKrUkfEkG1BNFCRu/qtrvL1dfB86n7rHIx46L77t1QysqsLmjuXTfDde22ZFc6MTtsCnHMkMuBy8UF1jh5RDSPmP++RbDOsXKKk02IFnUnTyL6yivQO7IPq2S1xO3stFre6efMZzszP2nmtYprdqxdnfblwVh45yGiq0JlVwfKezplbm6JoOHy86fZqo6IiIhoBsScDrxTX2mNYZcWsBMt6YaG7LTbBed119hpp9N8SF5htWoRD8lKQz2Ummp7XSgEQ0xMISWO1RLwo7vQmxYMJKJ5wuOBc8d2qA21smCSxL/94OwMW6Q21Jn3pO3WtedCefKpJ3j/IaK8PP+9Z2RqfhkqLMLhzdciNhsDg47Db1YStx59B+5YRJbQfBKobZSpyWn0u2WKiIjy0TI0tS+x+ltbZIrIVj0Ywqb2Hrg13WqFIh5sldISONeusdZPzIDe2Q3t9BmZA3TzQK3+QhytKYM+jUPV3f+lB2WKiKaL3tGJ+EuiZVz2GZ3nCzGZhPPOj1oTZOSKwToiytt8DdYZUHChcRnOLlspS2afquvYcvRdlPbb46XQ/MNgHRHR3GCwjqabahioGQxhZfcA/NHYqEki8iEeiiMOB64U+9BcUQJtmieVYLCOaAaY9wC9rQPxX70CXY5XOd+I8emcd+yCmmjNmyN2gyWiq4ZiVrOWtpxFTXvrnIxfp+oG1pw+wUAdERER0SzQFQVtRQU4UVWCTtllNVEFFKG2iRZBbC9GoRr0uHC6ohinywPTHqgjohkixqesqYLzjo9CqZp40obZplRX2oG66ipZkjsG64joqrPq7Ico6+2Wudmz5NI5VHe0yRwRERERzTTRVbWr0ItjVaU4Vl1qBd0SATixpAbwEunEevEz6lBxrqwIR6vLcClQiJiZJ6IFRATsaqvhEt1Ml9RjSpNOTBfzGtSmRrjvMK9JtKjLYUKJTLwTEdFVR0zssOn4eyjv7oSiJ6pnM0fM/ComlBCLmJmWiIiIiGaPqO0F3U5cDPhxsKESh+sq0FbsQ9Rpz/aaGpwTi2g51+dz43hlCd5sqkFzRcDKa5N4oCai+UGMB+f62C44NqwFfD5ZOgcKfHBsXGtey61Tau3HMeuIKG/zdcy6THGHEy0NS3F+yXJrmv+Z4IrFrK6vFd0d1nh1NP9xzDoiornBMetoMeOYdUSzJBKBdrwZ2slmazw7zNYzmsNhdcl1rFsNx9rVgGdqzwxsWUdEVy2nFseyC6ex5YN3UDg8PK3j2Inx6Ur6enHt4bdR1dnGQB0REREREdFc83jg2LoRzttvgeO6bdZMrDPaNVZ0eRVj0+3YDpc455aNUw7UCQzWEdFVT4xft/XoIaw6cxLecESWTl7xQD82nHgfm48dhi8clKVEREREREQ058Q4dqJb7EeutYJ2zht2WOPaidZv08bpgFpXA+eNO+H8qHmOHduhVE7fJBeOe+69+y9lmogoJ8ffOyJTC4dT01A82I/61kvwhsOIOV3WTdxQHTAmGJ/EYe7riUQQMPcXXV5XnD+FwtAwVIOt6RYib1FApiYn4J7GD3kionlOsZqlT89YEgPRqY3rGhkakCmihWfDti0yRUSzRlWh+P1Wyzd16RI46mvNhwGP+YESBSbZiEMpCcCxZhVcO7ZbregcSxqgBMzni2menIZj1hFR3hbKmHXj0c0bd8TtQcTjw1BhIYK+QjPtNctFIMaAQ4tbQb3C4LAVmPOEQ3BHo+bjCm+ZCx3HrCMiGluBJ45AQQQ1JUEsq+rHe+crcbZ9al9yJHDMOlrMOGYd0TwgGlto9qIPDsC43Aa9oxNGTx+MwSEYoRAQ18ztzGc+lxOKz2cF+5SyEqjVFVBqa6EGiu3AnFiUmeusymAdEeXtagjW0eLFYB0R5aK8aBibmtqs9NELNegeLLTSVyOXQ8eq2j5sWtKFyuKw+Xyimc8gBvqDbvzDq+sR06bnYYTBOlrMGKwjonzMXBiQiIiIiGieU1VDdvVM8nsj2L2lGXdtP2ktu7c2W2WpxD7qdM5cNEfWNfTgj+88go9vP4/GiiF43XErUKfpCn55uGnaAnVERESUO376EhEREdGiVF/ejzu3nrQCc5uariBQGILbGcfN689ix+oW+Nwxa9mxqsUqE+sCBSFrW7HPndtOWsdYyE5eLs0akBMBu52r2lFaGBZDvBIREdEs4gQTRJS3hTjBBFECJ5ggooT7dhzDzRvOYWVtN2pLB1AVGEZTVR9uWHseXldcbgWrBV1t6SC87hjWN3Tg2pWXsHV5q7WfCOAdvVAnt1yIFBR6YqgrG5b5pNLCCDY09sDnjqOluwiGMbWoHSeYoMWME0wQUT7Yso6IiIiIFh0xLtvmplYrEOdQddSXD+D6NRdw++ZT8HtHj61WaJbdvvk0rl97wdpW7CP2FcdwOaYWhJprxy6VQx+jR6/HpeHaFR2499qzKHAnA5hEREQ0cxisIyIiIqJFp9gXtsZnmypxjOKCsMwtTJ0DPhxvKbPSY7WeW1nTj91bLsgcERERzSQG64iIiIho0RAt6kRwbX1juyyZuvWNbSjyheFcwC3s3vqwDuGYA0culOG7r6xH85USuSZpVW0/bl57mWPYERERzTCOWUdEeeOYdbSQccw6osWpvqwf16y4hI1L2rG2oQNblraiyJc+w+tklRSGUVE8jKVVvagrG0BUc2Aw5JVrF4aopqKqOITXjjeY1+5G85VSuJ0aakqDacG56pIQzrYXYzjikiW545h1tJhxzDoiyofy5FNPLPw554loVj3/vWdkimjhCdQ2ytTkNPrdMpWbXV/7W9y3rgChE8/jz7+1V5am2oNHn74J1TIntL/+MB77jsyM56Fv4PFbamXG1Lofjzz6tMyYMtebxr6OLO56BN/8/Fr4ZFbIuv9E12F64LFvY2fapbTi7T1fx3Myl+19QPAkXvjK49gns7nLPFbmuVIlth1vmxQ5vNYRifcv39eRco6svwuj/l5zvPZFTFUN/MFtB7GmvnNaur6OJxR14sPLVfj+q9dB1+dpEzRFheLyIa7pULUwFNiPAyI4F40nv5AQY/LduuESrlneKUts75+vwN4jS2Qudy1Do8cCzEd/a4tMES0893/pQZkiIpoYu8ESERHNBBGoefrbVqBuTCLokhmgytWogI2p9iY8/nePYJfMPrAqY73Jt+5+fPNru2VuPHvwaEagThi1fw7XIQKW6YE6oRY7n/4GHpA5PLRi9PtQsBb3pRwnN1mCfta5/hZfvUtmJRFAzOv9z+G12nbjq39nHjvL+zcxc99rR/+9JVjXnHkNNCERjBLdXmc6UCeImVM3NLaNBMBmk8elo6w4JnNjU70B+G9+BO2NX4TmLJKlSAvUCbqhYN+xBpzvSG4jiBliZ+O9JCIiWqwYrCMiIppuIqgzYaBmDx5NBF1Ey6s9D+MRuUzcqi5lX9Gyy9znhRNBO1+wBOtGglKixVXiuM/jlNzEV5JjsCftulL2b9okg1O5XofdQsw+jrm83ipLa7H0IZk0pW6TPE4gr2DmA48lgm/ytT97EiErX4CGbYkgox1MGx1AHE+ur1UEC+/HqnFitOPZ9bXfGXtf8/cqcc2ihePI+8lWdRMSQafW3mKZm3niXOKcs8nn0fHQve3QcmjNp3iSwTfdWShT2YkJJ0TX2JiWfGxwOnSsqO6XOSIiIppuDNYRERHNiCBOPbsfYw1hv+tr25NBpXy7et5VgUTYof2U3QVz37feledKBqWeezQ1iFOLYhkECvUlgmXjeRqPpV3XXpy4kBFAy/E69n3rT9IDkN85M/K+FFfKANp3vp62TXWJvNhg/5jv4Wi7UZYYkrD1jP3aX3wcR+TLTQYZpdb9yYDbKCLoJlreyRZ5Ob7WBBFMe3ust1kEc8WxM1vk3fUIdouWmMGgDDCmSmlxZ153zl2ZySICTgeb8++2OVkHmxvHnFV1Jqhmjf737+jA+TYP+oecslRSHVD9VRADzzkr16Lg2i+j4JovypVAV80n0Fn7KYQLlpk5BTFXGQwlvYVd16AX59rTg531ZUMyRURERNONwToiIqLp9p2v45E9f4InX5T5LEaCUa1nAKs7plxy6fbZEJCt9oIYuGQlTK0YkHGnZMs52R3TOrbd4iyvMevS7MHORJfeRCAs5+tIlwxUBnHpcPJaRHfZxPtgtSDLe8y67AHJ9r6MICP24smvPDz2WHOm5DXKQFzOr/VpPLbn4XHe45SgW1qLPLP8k6I1ZhCnfvwuRg+jn3xt7acgA4n2klu3Zjp5uUqmkvSCTTDUZBtYw7sShrPU6sCqF26DXnS9vZhpUWatM7fJZPjWmcfxy5w4l/3bMxvE5A+fvLkbqxrC2Htw9AyurppNKNjxMAq2Pwjfps/AEai3VxjWK7KSMU81eip3o6vmXnTU3Y9Q4SqrPEEEHvcdr7d3kYp8MczTEfmIiIgWPAbriIiIZl1KC7Dam9K7Y4px2h7bIzPZ7apM7NyPnnECgtn41t2UHCcuZ6KVWUr3Uhnkmsx1JCbcEEInfj5uQFO8FztTuslOKKX120Dn1FqeJVvN2QHFqbzn6fbiyUMykBi8iBPyWA88ZnedHfM9SXlt1bekj7MnxhF8NJ/3aRHyeyPYvPSKzNkMOKE3/hn0igdGRpfTar4Ko/gWs4bsg97wNej1j0Cv+0/Qqx821zpg+HdCq/9Tc3t7RDprUTzQGv4bjIJN4hAWcS5xztlQXxHBzvWDuNThQTSeXrVXPMXwrL4TiqLAUdJkFpjrDQOxK4cRev8HKGv/BQoGT5hbmq/EXBf11lnb9pfdCM2R3j12IOhB50AysOlQzXdBSYneERER0bRhsI6IiGhOJceVG+k2WbvCDqglukuOLPaEDPs6E2NFBVCWMi5cQrJVmWxBZh0/0SW3FjszJn9IO0dmyz7rGlLHgUt2rc39OgS7lV8yUDe6hZ/oLpsYhy3xXlTfMnpiiDG92DXSIm2ke22qvLrU2i3kEi0k83utE7BaXprHlq0GRybgCJ7E3lxaPcox85J/p+b7tGr8AO9iVl40jN1bm/HRzadliaS4YJTdA73uP8MousEqMkp3wyjcbNaQC811dwOxTiiDB6AMH7bXqwUwKu6H4aqDXn4/9NKP263xyj9pHi/ZdVScS5xTnHum3bR5AC6ngfZelyxJMiIDCL3/z9DNnwmRc68jfOJniHefgTfUgpLu11DUd0iuBRzxYZR1/BIObfS1i+6wCWJsPBG0JCIiounHYB0REdGs24ueROwn0aXUNNJdc1KS3SSzexpv5zlpgxXIk5Mq2BMa5DKRQbbrSJ10wQ5OTtQV97lXkxNDFDdYiUkb6XI87SZ6z3OxG+ua5EFEq0oraJpsOVd9i5kXLS1TApGJMfPEe5nohktj27XxDG5efw5+b1SWSKL/qOAohN7wKAx3oyi0F7lOifVAiVyGEr1s5nQoQ7+11huBXdY+et2fmulbAW0QSvADax9BnEucU5x7JhX6NFyz1h47bjCYPs5cgtZ/GUZEBt5Eq7qWt+10isL+o+afdis5VQvCHcke1h4KuWXKTIddad1iiYiIaPowWEdERDQHRgJziVZ0plGTKiRaYI0sMlg2MkFDAVbdZreoGj0O3B48mtadNiUolCK1NZu1JMaIS0x2YBKztGYNruV0HSkztFqzy2YP+D3wmN1qMGHXtiUTzKabzdM4Lxu4jXT3NV/HZtnNOHThaB7j32VMMJHja83JWBNMjCsZmEu2oss+Rh+l29TUCoeqy9xoSs8LMDxLodX+RzOTDEYJRvGN0Ct+F3rZPWZOtYN24bPQqx40f8lWAIVbzPWfNn8FPoCi9dk7SeKc4twzaeOyoHkeOz3WLLCKYl63w550Qg/3w4iP7p6rGlE44nbQz1DFttkfEVJnhL3SM/4sskRERDR5DNYRERHNgeSYaLXYKbugJsauaz800aQKKa3kam+y9k10L0Xru8kxz+Q6e0m0bBOt5PZP2EIuNVhmte4aOY5YEoG1XK5jD5YmxuQbaTmWXJKTIyTfh7TjBE/ibTlL7AOJiTjGGdMv2SJPHu/zYtIGoRVHculimvDQChmIS8z0muN7noMHVsk3xJpgIrWrcmJJdm8VgVJ7IoyUse5G/l6T3ZPzem2LzNELtdD0sau8ysABqK3/2+7K6kyfoEEZeBNq179C7fm5mROdPnWrDMU7gfB5QOsF/NdA6X/D3iGFOKc490xaVhuWKcDlzB6QNAwdhha30qo3AMXpsdKpdMUNzWlPkKHoYtvsxxLj1Am6ufp02+jJLIiIiGh6MFhHRHlTrG5CRDQ1Yky053FKxn9sQZx69mE8JoNT4xEt4l5IBI8kq6vqyAyn2bpI2sef3Gyw2U18HbnJ1gXYOs7IbLDJSTmS3UCzePFx/PmziYCdNE6LvjGNtKRLtpqbrtf63CkZdEuZYCInoqXldLy2RWbfByvwxvFlGAqnt5pL9OEUATi181koPT8T0SyxYmSd4SqD4amD4a6zthSUgf3mH05z+19C6X/NSqsD6cE6cS5xTnHumSJ66hYXajIHlPjtgFwmMfur4pGt4MydXI077XSK4cBm80/79emOAkQ9dhg4U4EnZv08fqkcoajdWo+IJsa6MxHlS3nyqSc42gQR5eUnz/4LopHZmeWOaLoFasW4VJPX6M944KdZkpiRVgQc7UkfiHIlZmbdufoC7ttxXJaIkJwT2ppnoF76a6jD79pdYRv/AmrPT6H0vQRttQjCmg/YRhyI98Jx5j+YOQ26uwH6ssfN/f474CyGXvOHcJz+alo32BcOrsfbzU0YCo9uxTZdVMXAH32yDasa7NZ1V7rc+Jsf1FvpBMVThMLr/xiKI+W+Jcata30P8Y4TGApGES5YjmDRWnNFMpig6DFUXf7nUZNMfO7GZlSXBPGD/avR3i9bluahZShj3MA89be2yBTRwuL2ePCJz39W5oiIJsaWdUSUt0K/3VWGiGjW3FWBYvEz39ZoRCYRNDtyQbSOS1IQh9ryf0EJ2gE8JXIejkt/BWXgNUAPWevUy49DvfI/obZ929zCbsUmxq1TL4n93ocy+Ja53bdGjVd35HzdjAbqBNEpN3WcupryKEqL01vXGZFBRJpfgmEY0PoumAW6+QIUuOq2wbflc+ip/jiCRevMLUVQUoc7fMXaNtDz5qhAncuhobpkGEcvlqFjIP9AHdFixrozEeXLcc+9d/+lTBMR5aSnqwt93T0yR7SweItkX8pJCrizz7hIM+z0Abzyo5/ipZ8dwHlZRJSPa1ZcwvrGxGiANiXWYQXtEpR4DxQ9bLUxU2JtUKIt9iLS9ibJdWL8OiNuptOPKbT3+XGxq1TmZs6K+jAaquzWaqJbrOgKe+RMelBAH+60WtFFLx6APtRhjVuneoutHbp77W7drkg7SnreQnHvQfiCZ+GJXDFfX3rnm5vWXUFMc+DFw0thGIl3Iz8D0WS33cmIDCXmRCZaWGob61G3ZGot+4locWHLOiLKW1VNjUwRERHNf4piYMeqizI388S5MoNdM+Fca3rrvXVNIdSWZ3Q11TUrSCe6v8Y7TyJ46HsIvvN9uRIob/sJKlt/BG/wnJkz4Ir1QDHSg2p+bwy1JUH8/N1l0CcZqCNazFh3JqJ8MVhHRHmrXdJgPoSwsk5ERAuDGN+ttnT2WmXVlg1AlTOnzqRj5woQiyc/j90uA/fe2DPhuUX32ARHPL27azYOVcePDq5AJMaWxUT5EnVmUXcmIsoHg3VElDeXy4Wlq2duhjsiIqLpJMZ3O9ZSMyszmIbNc5xoqZ50V9F8BMMOHDqZ3u11zZIQ7ssSsPO4dZkC9HA/ht54HNUt34cjngzcjaU/6EE0zkAd0WSIOrOoOxMR5YNj1hHRpBQW+XHmZLPMES0cHLOOaPERgbPOfj96hwpwuTuA1t5iOB06inzTM7O5ON6RC7U4daUSxy/W4OCpJgyEvHLtzOofduLatUNwpHwF31gVgdeto7nFngii0Kvhd3d144OzhbJzrvmnFoMqxtyz8rODY9bRYrTj5hvg9flkjogoNwzWEdGkiEpHPB5Hd0enLCFaGBisI1qcBkNenO8ow7n2cutnTFOxvrFDrp2alw6vxpsnluPEpWqcaauwzjVbhkIOuJ0GlteFZYk92cTS2ghqy2No7XLjY9f1YePyIN5t9iMcnbuONQzW0WKzeuN6NK1YLnNERLljN1gimrQt112D0vJymSMiIpr/xIymIph2vKValkydaE03EPQiNgddRQ0D+MWBUhw9Y7eiS7V5xTD+6xcuYeeGQfg8Ou7c0SvXENFME3VkUVcmIpoMBuuIaEquu/l6uD3ps9ERERHNdwMhnzW+3FSJcfBmq8vreJ5/tSJrwE50c1VlX1fRXXbUbLFENO1E3VjUkYmIJovBOiKakkBpKW68fRcDdkREtKCIVnBHL9RCNxTENRWXugN468Ol+PWRVRgKu+VWSaJMrDtwsgmXu4uh6aq1rxirTrTWm2uiO+zTL1Vh3+FihCLZq/iqWXzduoknlCCiyRN1YlE3FnVkIqLJ4ph1RDRlBf5C1DbUoaezG+FQSJYSzU8cs46IEroHC60g3KnWSrx3rh7vnGnEyUtVcKo6llX3QlXs6RhEYG7f0RXY+95qa7y7zgE/2vuKcK69DAebm2Z1jLrxiIk0xKQSR84UoiIQQ2VJXK5JqiiJ4bX3ArMyW20mjllHVzvR9fXG229FWUWFLCEimhwG64hoWogJJ5avWcVJJ2jeY7COiBJEkO1sWwXOtJWjvb8IkZjTCsy19Raj0BtFRXEQcc2Bd8404OX3VyMUdZvbuNBhbnu2vRxn2iussermm2DYgb4hB65ZOzzSBTZVz4ALrd2jWw/ONAbr6GomJpO44aO3cuZXIpoWypNPPWF/ZUhENE36e3tx6vhJnG8+A8P8j2g+CdQ2ytTkNPpn/wGXiGZfedEwNjW1WemjF2qsVngLhZgd9r9+/hLKAnHENQXRmGIF594+XmSNaxeJzc1IOC1DUxsvr7+1RaaI5gfF/G/p6hVYtX4tu70S0bRisI6IZkwsFkPrxUvoaGtDX3cvhoeGEItEGcCjOcVgHRFd7dYvDeKmzQM4ft6Hlg4Puvtd1ph2c43BOlrIRGDO5XGj0O9HSXkpqmpqULukAS6XS25BRDR9GKwjIqJF5Vcv7pOpyWGwjojmOzHWnpj8Yr6ZarDujrt2yRQREdHVjbPBEhERERFdReZjoI6IiIhyx2AdERERERERERHRPMFgHRERERERERER0TzBYB0REREREREREdE8wWAdERERERERERHRPMFgHRERERERERER0TzBYB0REREREREREdE8wWAdERERERERERHRPMFgHRERERERERER0TzBYB0REREREREREdE8wWAdERERERERERHRPMFgHRERERERERER0TzBYB0REREREREREdE8wWAdERERERERERHRPMFgHRERUR50QyaIiChnvHcSERHljsE6IiKiPER1XaaIiChXvHcSERHljsE6IiKiPITibB5CRJQv3juJiIhyx2AdERFRHoZiGuLsz0VElDNxzxT3TiIiIsoNg3VERER56ovyoZOIKFe8ZxIREeWHwToiIqI8heI6usNxmSMiorGIe6W4ZxIREVHuGKwjIiKahKD58NkWjPEhlIgoC3FvFPdIca8kIiKi/ChPPvUEB94hIqJF41cv7pOp6eNQFHgcCpyqAkWWEREtNuKhQoxPF9EMaMb0P2LccdcumSIiIrq6MVhHRESLykwE64iIaOYxWEdERIsFu8ESERERERERERHNEwzWERERERERERERzRMM1hEREREREREREc0TDNYRERERERERERHNEwzWERERERERERERzRMM1hEREREREREREc0TDNYRERERERERERHNEwzWERERERERERERzRPKk089Ycg0EdG0isViaL14CR1tbejr7sXw0BBikSgM8z+iuRKobZQpIiJaSPpbW2SKaPYp5n8ujxuFfj9KyktRVVOD2iUNcLlccgsiounDYB0RTbv+3l6cOn4S55vPMDBH8w6DdURECxODdTTfiADe0tUrsGr9WgRKS2UpEdHUsRssEU2r93/7Dn7145/hXPNpBuqIiIiI6Kol6rqizivqvqIOTEQ0XRisI6JpIVrTvfzCL9D8wXFZQkRERES0OIg6sKgLizoxEdFUMVhHRFPW1d6Bfb/ci97ubllCRERERLS4iLqwqBOLujER0VQwWEdEUyK+PXzz1/sQjURkCRERERHR4iTqxKJuzBZ2RDQVnGCCiKZENPdnizpaSGZiggmHosDjUOBUxVDTRESLk3ioiOsGIpoBzZj+RwxOMEELSWl5OT5238dljogoPwzWEdGkiYF0OUYdLTTTGaxzqQoCbgd8TjZUJyJKFYrr6I9qiOnT96jBYB0tNKs3rseW666ROSKi3PHpgogmRTTtZ6COFrMCp4qaAhcDdUREWYh7o7hHinsl0WIl6srsDktEk8FPTyKalFPHT8oU0eIjHkLLvU6ZIyKisYh7Jb/UoMWMdWYimgx+chJR3mKxGM43n5E5osWnxO2QKSIimgjvmbSYiTqzqDsTEeWDwToiylvrxUswrGGkiRYfv8thTSRBRES5EfdMce8kWoxEnVnUnYmI8sFgHRHlraOtTaaIFh+fk4E6IqJ88d5JixnrzkSULwbriChvfd0cKJcWL7fKj04ionzx3kmLGevORJQvfmoSUd6Gh4ZkimjxYQ9YIqL88d5JixnrzkSULwbriChvsUhUpoiIiIiIaDysOxNRvhisI6K8cXIJIiIiIqLcsO5MRPlisI6IiIiIiIiIiGieYLCOiIiIiIiIiIhonmCwjoiIiIiIiIiIaJ5gsI6IiIiIiIiIiGieYLCOiIiIiIiIiIhonmCwjoiIiIiIiIiIaJ5gsI6IiIiIiIiIiGieYLCOiIiIiIiIiIhonmCwjoiIiIiIiIiIaJ5gsI6IiIiIiIiIiGieYLCOiIiIiIiIiIhonmCwjoiIiIiIslIUQ6aIiIhotjBYR0RERERElgJPHLWlw9i2rBOf3nkay6oG5BoiIiKaLQzWERERERFlKC8axq6NZ6xFpK9mLoeO9Q09eOCGZnz5tuP4vRubcfumFvN1h9HSVSS3IiIiotmiPPnUE2zbTkR5ef57z8jUzNI1A8ODMYSG4giH44hFdWhmmU2Ri80QSesP+cNKJtbbBYb5X6LMSKxTEuVWRi4JYp39M0GewmSuM9Mim76N2Ce5fWpSbCfWiSKHQ4HHBfg8gL8ACPgBlV+fzIpAbaNMTU6j3y1TRHQ1UFXzU8C8QRvJGzz83gjuufY4ti6/YuXfO1eHn/12PYbC5k1bEt1DxR56yn4L0bqGHtyx+SJcTl2W2DRdwfMHVuJS9/QF61qGojI1Of2tLTJFtPDc/6UHZYqIaGJ8NCSieScS1tBxaRhnj/ei7eIQ+nsjiIS0jECdkMhLqc9LKavspPhz9ANVZkkycGfLXJ+Wl5uOPmr6MRLEdmIRa+MaEAwD3f3A+TbgyGkFLW0KwhGxJRERzYb68n7cufUkdm9pxqamKwgUhuB2xnHz+rPYsboFPnfMWnasarHKxLpAQcjaVuxz57aT1jEWspOXSxHTRj8SOFQDO1e1o7QwLL7XIiIiolnkuOfeu/9SpomIcnL8vSMyNf26W4fR3jKIcCjlG37rIcFukZYuEf6S5HZpG5pPGHZW/BQpO2iXKLP+tJ5CREs5B6C6YKhOGE7zp8P8aS3mQ4w4TnL3xB8pDzAjCTOVSMufyVWSKLALR1aZiWBYQVefeR2GgqJCWU7TzlsUkKnJCbjN3xMiuirct+MYbt5wDitru1FbOoCqwDCaqvpww9rz8Lricivzo0ExzPWD8LpjWN/QgWtXXsLW5a3WfiKAd/RCndxyIVJQ6Imhrmx0V9/Swgg2NPbA546jpbsorfXhZAxENZmanMgQx8+jhWvDti0yRUQ0MQbriChvMxGsi4Y0tJ4fxHB/JBnASqSsH1keEEaKZHhM/GEuSqJ/qjASTUv9aUfcdIcbcVcR4r4Kc6lEvKDcSmuFZl4s/kpEiyuhF1UjWlKDeEk14kUl0F0uKHocqha3jzRyusQ5BJFOycuk+JHsJmtft5WzEnb5cMh8oBlW4PcBTqdVRNOIwToiElxODZ+7+bDV/VME44oLImis6Mfy6h64zXWZRJlYJ7YR24p9xG27vCiI1z5YAd1YuB1WhiMubG7qSvkCKsnpMKxAXmVxCBc7i7O2wssVg3W0mDFYR0T5YDdYIppz4eEYrpztQyQUkyUZRETM/iNdRpH53DQiNZ1gmLc8XfUg5ipDuGAJor4maN4qGA4xBpH50KXF4IgPwxHphzPUA4e5OEP9UKJDULWIFVDT/CWI1K/G8MYbMLT5ekQaVyAeKLVa4qWyn3eyXIQp+SyU2ek2SXSRPdWiYDiU5cmJiIimrNgXhtedbD03WeIYxQXmTXsB6xzw4XhLmZUeq/Xcypp+7N5yQeaIiIhoJrFlHRHlbTpb1kXDGlrP9UPTRLfX5AOCSCVboJmsZLKDaVKiRP4UPxJNA0ZWqYg7/Ii7SqE5AtAdPqiIwRnrhSvaDacIzkV7zZ99cFjLAFRzcYbNJdgH11APnINdcA50wtXXAVdvO5ToMHR/EeLVdYjV1CNWW2t9/aEODkERI5Vnuy7JTibXj6yyEskNdfMwfUNAoJAt7KYTW9YRLW6iRZ3fG8Wmpjasb2yXpVPTOVCI3qECa7KJhdrCrqO/ABuWdON4Syl+8e4yq2usmA02VXlRBA5FR0t3sSzJD1vW0WLGlnVElA8G64gob9MZrBOButhI5T0ZqLKlBr1MGcGsJFGWZTtFhab6EHeWwnAUmCU6VH0IrlgXnLEBMx2BYpjnNsxyc4/UWWHtoyWOmcjrUDQNajwK5/AA3O2X4Oxus2KDemEhoo1LEGtoMI9pHi8UNLdNCUAmDpVGFGZ2hU0kbOKKhiMKKqYWX6IUDNYRLU71Zf24ZsUlbFzSjrUNHdiytBVFvumZ1aekMIyK4mEsrepFXdkAopoDgyGvXLswRDUVVcUhvHa8wbx2N5qvlFpdf2tKzc+z5McSqktCONtebHWdzReDdbSYMVhHRPlQnnzqicTTKRFRTp7/3jMyNTXdV4bQ1xU0UylPARmBKrt1nSyzftjp9BtXyjYm0YNHV9zQlCIYqtss0eDUzQq+ETe3sve0/0wcS+5rPo2kBuxEKtnuLWNbU7KnkALdbZ6vtBTBrVuhF/mhhoMo+O0hODp7EidLHGKEnnLsRMo6ZmYXJDNbVWo+aFYmDkRTEahtlKnJafSL36nc7fra3+K+dQUInXgef/6tvbI01R48+vRNqJY5of31h/HYd2RmPA99A4/fUiszptb9eOTRp2XGlLneNPZ1ZHHXI/jm59fCJ7NC1v0nug7TA499GzvTLqUVb+/5Op6TuWzvA4In8cJXHsc+mc1d5rEyz5Uqse1426TI4bWOSLx/ObyOxO9JpjH/vlL+bvL6O12kVNXAH9x2EGvqO6el6+t4QlEnPrxche+/eh10PeN+Pl8oKhSXD3FNh6qFzY8Z+/NFBOei8eQXEmJcvls3XMI1yztlie398xXYe2SJzOWuZSgqU5PT39oiU0QLz/1felCmiIgmxjHriGhORENx9HUOZxlbLlkgHnFye8wR+9j7iWCarhRYgTqxr6r3wxXvNM8TFWusbQQ7PGbvk3hIST23MNG508bIi0bh6mhH8ct74T1xHIbbicE7b0No+0YYXhncST982vHTVmU5cUcvEJ6eBiA0W0Qw5elvZw3AjBCBn8wAVa6yBOJQexMe/7tHsEtmH1iVsd7kW3c/vvm13TI3nj14NCNQJ4zaP4frEIGo9ECdUIudT38DD8gcHlox+n0oWIv7Uo6TmyxBP+tcf4uv3iWzkggg5vX+5/Babbvx1b8zj53l/ZsuD9w2c8e+Gon7vOjyOtOBOkHMnLqhsS3ls2X2eFw6yorHGP81heoNwH/zI2hv/CI0Z5EsNT+bUwJ1gujWu+9YA853JLcRxAyxs/FeEk2FqKe5NB2+mIbCaBz+aMz8GUNBVIMnrkOd/X+iREQ5Y7COiOZEv9WiTgSpRE1pvNpSyjoraeezBdIMRYGmFkKHx6yAheDQe+HUQnJl4jjJgN2oo5ibpLRxk38m9sv8mSqxrbm/rsN7/CT8L74MV2srwtduxuC9t0EvKrS2yS7lmFYy4xwy29GX7VXTvCSCOhMGavbg0UTgR7S82vMwHpHLxK3qUvYVLbvMfV44Yf+bQsESrBsJSonWYonjPo9TchNfyajIWXZp15Wyf9MmGZzK9Trs1oL2cczl9VZZWoulD8mkKXWb5HECeQUzH3gsEXyTr/3Zk7DvAgVo2JYIMtrBtNEBxPHk+lpFsPB+rBonRptNdYm9g2glN/I+mUvWFnPm71d+104i6NTaO7lx1iZDnEucczb5PDoeurcdWg6t+RRPMvimO8f7fDI/gszXIbrGps4C63ToWFHdL3NE84vTrIuVByNY2jeINV392NDRi01tPdayua0XGzt6sLazDyt6BlAzGII3PrXu2UREM4HBOiKadbpmYLAnZdDqbAEqSTxypLVOyL4ZdMUB3XwYF1s7jKC1jOyXtk96MC7Jzmc+4uSat37KQ4rzOkJhFL56AL5Dh6FVlmDwgTsQX1JjbyCJ7SY6fqpu87nIrH/SghHEqWf3Y6zh63d9bXsyqJRvV8+7KpAIO7Sfsrtg7vvWu/JcyaDUc4+mduusRbEMIIX6EsGy8TyNx9Kuay9OXMgIoOV4Hfu+9SfpAcjvnBl5X4orZQDtO19P2yYRvEKwf8z3cLTdKEsMSdh6xn7tLz6OI/LlJoOMUuv+ZMBtFBF0Ey3vZIu8HF9rggi6vT3W2yyCueLYWVoNDnRO1J01ETQMIjTWpdMoIuB0sDn/bpuTdbC5ccxZVWeCatbof/+ODpxv86B/KGNGItUB1V9lfsAocFauRcG1X0bBNV+UK4Gumk+gs/ZTCBcsM3OKNWO6YX6mpuoa9OJce3qws75sSKaI5gfRkq5qKIyN7b3YYC4iULekb8gsC6E8FEFZKGouEVQOh9EwMIyVZsVqfWcvtrT1oMncTrTCIyKaLxisI6JZFxyIINliLZvsgbQkO598DHKYD0Ue86cBhzEE1RATR4jyjO0SrevkT7s8fRvDXJdsXWcb1bpOHDzRBzaxyiT2GmnAJzbRNHjfOY6iF16B7vdi8LMfQ2xJehuhZCAy4x1JHD9BZvuG0q+N5qnvfB2P7PkTPPmizGcxEoxqPQNY3THlkku3z4aAbLUXxMAlK2FqxYAM3iRbzsnumNax7RZnkx/fbA92Jrr0JgJhOV9HumSgMohLh5PXIrrLJt4Hq+VY3mPWZQ9ItvdlBBmxF09+5eGxx5ozJa9RBuJyfq1P47GxWsRZzL+Ta+W2Ga0PhepbEn9f387aXTnRcrD99Z9j5DIoJycvV8lUkl6wCYaabANreFfCEJMSmWm9cBv0ouvtxUyLMmuduU0mw7fOPI5f5sS57N+e2SAmf/jkzd1Y1RDG3oMlsjTJVbMJBTseRsH2B+Hb9Bk4AvX2CusDy/5wiXmq0VO5G10196Kj7n6ECldZ5Qki8LjveH3yM85U5ItlfFoSzR13XLda0G1u60GteWMWXV4dumE97IpF/K5mLg7z91l0kS0fDmNNZz+2tXajJBQdVQUjIpoLDNYR0awLD4nx41KNXyuyK1VjbaNCh9tcL2Z0DZoVrIxvRdNPZBspE8fMtkFC9nNalbiUFhN2Kn1bRdb0xHW7LnWg6IcvQ4lFMLjnTsRWygelMYxUErNc2pDs1UsLXUoLsNqb0rs0inHaHtsjM9ntqkzs3I+ecQKC2fjW3ZQcJy5nopVZSvdSGeSazHWkTqQQOvHzcQOa4r3YmdJNdkIprd8mbqE2vmSrOTugOJX3PN1ePHlIBhKDF3HCOlbK70OKzPEBR8b+a92f2wQkNMLvjWDz0isyZzPghN74Z9ArHhi5g2s1X4VRfIv50eKD3vA16PWPQK/7T9CrHzbXOmD4d0Kr/1Nze/tTyVoUD7SG/wajYJM4hEWcS5xzNtRXRLBz/SAudXgQjadX7RVPMTyr7zQ/kxQ4SprMAnO9YSB25TBC7/8AZe2/QMHgCXNL85WY66LeOmvb/rIboTnSu8cOBD3oHEgGNh2q+S6MfGARzR1/JIbtV7qsVnQeTTP/peb2kCt+e0VVS2wrus5WDIexvbUL5aEwA3ZENOcYrCOiWRcNx+0aUqqUb/htozaQP01WUvwhHpac1p8qRGu69ECdXdGy98usdCWyqYG2kYBgatMBsyw9ZpZxIGGkyE6M3sKA62IHip57GWo8juBnb4NWXSrXJa5BSGldZyUyjmRmg5xk4iqUHFdupNtk7Qo7oJboLjmy2BMy7OtMjBUVQFlGyywh2apMtiCzjp/okluLnRmTP6SdI7Nln3UNqePAJbvW5n4dgt3KLxmoG93CT3SXTYzVlngvqm8ZPTHEmF7swoBMjnSvTZVXl1q7hVyihWR+r3UCVstL89gjrQZT/57Ekuw+PdJ11/x7sN+7ZLCUclNeNIzdW5vx0c2nZYmkuGCU3QO97j/DKLrBKjJKd8Mo3GzWkAvNdXcDsU4ogwegDB+216sFMCruh+Gqg15+P/TSj9ut8co/aR4v2XVUnEucU5x7pt20eQAup4H2XpcsSTIiAwi9/8/QzZ8JkXOvI3ziZ4h3n4E31IKS7tdQ1HdIrgUc8WGUdfwSDm30tYvusAlibLzRgzkQza6iSAwbOvqs7q1C4jfSqkGpKpTqKig11aMXUV5o/nu2trYfisW+3piG7Ze7UTkcYsCOiOYUg3VENOtikTEG8h2nUmRXvtI3ECE6+1FBjH83zjgjqc8SMhCXnBlW5Ec/bIzdFdY2EtiTElun7pW5jaOtB/7n98HhUBC7fxcM2V8v2+PO6CuyRaMyQQvcXvQkYj+JLqWmke6ak5LsAprd03g7z0kbrECenFTBnvggdQy8sWS7jtRJF+zg5ERdcZ97NTkxRHGDlZi0kS7H026i93yyRv9dJWf2FTPbisBqchIL0QIvp+7Ti9SujWdw8/pz8HszbqCi/6jgKITe8CgMd6MotBe5Ton1QIlchhK9bOZ0KEO/tdYbgV3WPnrdn5rpWwFtEErwA2sfQZxLnFOceyYV+jRcs9YeO24wmD7OXILWfxlGRAbeRKu6lrftdIrC/qPmn/ZnlqoF4Y5kD2sPheTs5qahsCv9uy2iWSa6vopx6cqDYetfbuaDrRIohvcPfh++f7dn1OL98h44t29Nq2/Jf/1WKzsxjl0VA3ZENIcYrCOiWafJAXxTK0hJY9eKUoNfhmHfvhTEM44jtsk8RkbeeroQe6WW2+mRc5jbpAbs7FTGccaqwWUttgNyztOXUfAv++CqKYfy6VtgOEbfhtN2zzgHxz6+eowE5hKt6EyjJlVItMAaWWSwbGSChgKsus3uMjt6HLg9eDStO+1urGsaHVlKbc1mLYnWXnc9gt2yFZyYpTVrcC2n60iZodWaXTZ7wO+Bx+xWgwm7ti2ZYDbdbJ7GednAbaS7r/k6Nss4V+jC0TzGv8uYYCLH15qTURNMZP5dpYwPmFdrQMpmU1MrHOrYN0+l5wUYnqXQav+jmUkGowSj+EboFb8LveweM6faQbvwWehVD5q/ZCuAwi3m+k+bf08fQNH67J0kcU5x7pm0cVnQPI+dHmsWWEUxr9thTzqhh/thxEc30VaNKBxxO+hnqGLb7I8IqTPCXukZfxZZopmkmvW01V391uQR1m++mRc1JkMxa3Ii2G4uiscDxe/PvhQXQSkoGNneWsRxTOJ4YrKJld0DKIrG7EIiolmW/ZOYiGgmmbUhUY+yftolUnpganQ+SeynQLTQG2sbuzw11jVWbC1ZPRuLvT65lZ1KO95I2g7KJVobpL8+m3r6MtyHTqBwZT08m82HPVPyGlIOmnr8hGxltCAlx0RLtJSSkyqY2g9NNKlCSsur2pusfRPdS9H6bnIcOLnOXpItsUIn9k/YQi41WJY66YG9JAJruVzHHixNNAoT4/GlHSd1EoXk+5B2nOBJvC3HZ3sgMRHHOGP6JVvkyeN9fq18Ha04ks/EGg+tkIG4xEyvOb7nORhpJZc6wUTa31Wi23EQp35s/y4892hKQNVanscpeTlWq8d8ZxReRI5eqIWmj13lVQYOQG3933ZXVmf6BA3KwJtQu/4Vas/PzZy4v+tWGYp3AuHzgNYL+K+B0v+GvUMKcU5x7pm0rDY5s7rLmT0gaRg6DC1upVVvAIpTTMiUTlfc0Jz2BBmKLrbNfiwxTp0gZiY/3TZ6Mgui2VIzGLJmdE1Qa2rg/dxn4f3SF0YWzyfvMX9pHeYvtVkby1xMzs0b07b3/sEX4NywDoroPmuuL45EUW+eQ0xUQUQ02xisI6I5kQhmpXKYFSpfgRdFgSKUVpbBX+yHz+eFw2l37REVp2RQy3xSyHYQISMqZ2Vl2dgBO3F0uU3iHBnHt6t2WSSObf0p2PmRP0cOI7u7xnXoLxyAt2cQVZ++GYrXbsmRenyxy0h+zBPTwibGREsGXGxBnHr24ZwmDxAt4l5IBI8kK2gzMp5ZcqbSJPv4k5sNNruJryM32boApwehkpMwtJ8a59gvPo4/fzYRsJPGadE3ppGWdMlWc9P1Wp87JVtbjUwwke3vSnQXHn9GYcrNvg9W4I3jyzAUTm81l7jHWxMUdT4LpednIpolVoysM1xlMDx1MNx11paCMrDf/MNpbv9LKP2vWWl1ID1YJ84lzinOPVNEvKG4MDmsRInfDshlErO/Kh7ZCs7cydW4006nGA5sNv+0X5/uKEDUY4eLMxV47FZGxy+VIxS1W+sRzTbR6m1p36DVuk48zIrfXLWyHI6Vy8xlxciiNi2xfufFTP+Zi6CUlaZt71i9EkplpbWPOKao3omWe2JcPCKi2aY8+dQT9t2KiChHz3/vGZmanLPvpXTqMmtD67ZvxJaPbMbSVcuSFShRURJPIiZR1tXRjTMnzmCwfwinj59Bb2cvrC86rU3kdtafCVY1y06aRPcGp8uJooAf0WgMw4NBub34067qpe4vw2pmsShPrEkcL/nTXpM8j0gmysSEsYk1I8cT5fJnwco6LN1zJ4aPncPFf3sduln5TN1OpKxtrUSiHNi2JnE9NBmBWjEu1eQ1+jMe+GmWJGakFQFHBrEoP2Jm1p2rL+C+Hcdlibi/OqGteQbqpb+GOvyu3RW28S+g9vwUSt9L0FaLIKx57zXiQLwXjjP/wcxp0N0N0Jc9bu733wFnMfSaP4Tj9FfTusG+cHA93m5uwlB4dCu26aIqBv7ok21Y1WC3rrvS5cbf/CB9tnHFU4TC6/8YiiPlvmV+psZa30O84wSGglGEC5YjWLTWXJH8nFH0GKou//OoSSY+d2MzqkuC+MH+1Wjvly1L89AyNLWBV/tbW2SKFjPRqm5DRy+8cW3kt1ZdthTuj98BpSD/ARRGmNWr6OtvQnvnXWvcEVHbEktzRQBny8x/68l/IpNy/5celCkiookxWEdEeZu2YJ1Z6alpqMbv/8cv4q2X38Q7bxwaGc9OBMl8hQVWEG/7DdegoNAHVbUbA2tm5WxwcBD//O1/RVd7t9jYKk/ezFJrUwrcHjc+8YW7sXL1MisAKLb79c9fx6G33kdcBsjEHslAWTIttrera1Yu608rjpYIppk/7K3t85i7W7IF6xRVwcYv3Y3yxkoceuqnGGrrsbYbWW/9TB46kWCwbmoYrFug7noE3xRdWkUrOXb5pEmoDAzh/3P/yzJn0ws2QQmdgmLYAS/DuwqId1nBOaNwG6DKB389ZM0IK+7C1n26cAuU4DHzVu0w91kNNXjE3k76//3Lx9A5YHcrnSni8+UP72vD2iV2O1LxBdY3n25E70B6izdX3VZ41t4Dvf8iHAHz/qfIjjWGgQ/PdpoJ+SFj6HBH2hDx1KK0+zUUDJ20yyWXQ8O/v+sIjl4sxysfLBG7543BOpoq0ZpubWcflvYOpXURE7+Ois8HxT/JsRTNAxjRCDAchKElg4CiVtrr8+BQfQViWcYZzgeDdUSUD8c99979lzJNRJST4++lP5Tkq7ct+U29y+NGPB5HLBbHhVPnoev6yBINR3Hx9EW8/erbeOvlA2i90o7+7j4UlxSjtLwU19y4DUtWNFgPLF0dPeZzRuaTg4LaJbX4vT/8lFUJE91qXS4nYtEYyqpKccOu69B87AzCIfGQJoJj9mOYnRbkn4mIm0UG4eS6xDbJnyYrKY9m/mGvSa4f2dc8UKitC9tu2AiPWf+7dDLxEJLYNnkWO2HnaiusHzRJ3iLZl3KSAu7sMy7SDDt9AK/86Kd46WcHcF4WEeXjmhWXsL4xfboOJdZh3lmT3UeVeA8U3Z5ZUom1QYm22ItI25sk15mP8YoRN9PpxxTa+/y42FUqczNnRX0YDVV2AEx8VImusEfOpAcJ9eFOqxVd9OIB6EMd1rh1qrfY2qG71+5/7Yq0o6TnLRT3HoQveBaeyBXz9aV/pt607gpimgMvHl4KY+RbpPwMRMeYDT5HkaEBmaLFyqPpqB8IojCaPsGYSIsgm/vjd8KxtCn/paEexsAA9J7etOMKLrN+eaWoAFE5LMtkbdi2RaaIiCbGYB0R5W2qwbq+lGBdOBjGhVMXcPn8JVkiWQGyZHVJdIXtae/BeXPbQ/vfxeWWK2alZz3KKkqxeuMqrNm8Cu+9fRR6SsDOU+DF/V+8D51t3XB7XCivLMOx90/iO3/7Axx55zhuvG0HPjh8EkOD4mElcS6rumf9tEtk+cilJEoTBRnbCZnbmj8yt7H3UhAdCqO2zI+dO9ab138ccbPymdoKb+RPa3M7z2Dd1DBYR7T4KIqB373hCAKFyQkZZpLodvubD5vMVOJ+PjMKvBo2LU8OeFhWFMfx8wUYDKbcp8zPTyNqf+7qwS7ErrwHrfe81eJOBOvK236C4r7fwhmzu/E6RCvCjECd3xvD9mWd+Ok7yxFPmRE2XwzW0VSJIJ2YWMKr6Vn/dXkf+AzUhnqotTUjiyMlPeZSVgLtw1MwukSPjSSr+mX+G+o265RDZl1yKhisI6J8TK0tLxHRpKQ/BMgYVDqrf01yOzHpRFFJsZ0xdJw5dhZ/82dP4KUfvoyBvgFU1VTi//iLr2Drjo32NqZASRECpXZgpml5I9749W/wkx+8CIdTxUfvvhGXL7aitzs5xpCQy2NV9m2S15o5iUVGdpR3X30Ph15+BwUF9thGyeNn7jnRkYiIKBsxvltt6ewFemrLBqDKmVNn0rFzBYjFk58abpeBe2/smfDcRmRQpgBHPH1cumwcqo4fHVyBSIxfVtDccuo63IkhU7IwOrus6pIIvEX+6TkgLr4ENYsGhxD5t5/A6BBdv03mceL7D0A7esxcacAwj6kPjH2PKIxykgkiml0M1hHRnMuIy41IDYpdd+t1+OSD96XMDGsgGonit2+8g6ce+3u0nL+EwqJC3Pt7H8edn7rd2iYSjphLGBu3rcP7hz7Aa798E4GyYnzlv+zB+i2r8YPv/dhcL8fPMVIrfqPDcfYk/kLiQjN/prO3TraRs2Vua+d7ugbw6svvoKs9PXCYJvtpiIgoB+JufKylZlZmMA2b5zjRUm1+to3+LJluwbADh06md3tdsySE+7IE7Dzu5OecHu7H0BuPo7rl+3DEk4G7sfQHPYjGGaijuecwf40do4Y9SVaTtFbRLd2AEQpBO3vOCsoJxuAg9EuXgais94n1ly/DCMqWqbpmjVeXjfiXPF6AkIhoJjBYR0RzIrOLjZD5WGMF8cQjlqKipqHGaiVXFJCt60xivCAhGonh6f/1LF576Q0rgHfN9Vtx6103or9nEJcuXLG22XrdJvz5Xz+Ch/7TF3DsvQ/x1N88Ay21O47VvE+cMD3AlrhO+8+xH7zGXmOSLzV9m5TOrmbi7o/vxGfuvxU+n9s6Z+bxRvKZzfaIiGhCuq7gV4fX4MV31+Ll91fhzRNLcaUn+XkyVa29xXjz5FL8+sgq6xwvHV4LfRaCdcJbHxQjmtK6Trhp8wDuvaFnpOV6oVfDZ2/rgprYzNCtrrEObXSXV6KFIPNfVyKvt7VbFSslEIDi8Zq/61krYTDCERh9/YBLdm3VRIBvdrrJExHlgsE6IpozqfWmrF1h5QOEy+2E1+exZnUVY89lIyaXeOOlt/Dar/ZDdai45Y4bse2GzTj05nv47f538a1H/2889mf/E3/95/8Lr/5yP4YGhpPnT1TkRoh8sqymvgKNy2pG3TDNat1IypIaSDOT9vHtwNvIKVI2sZlHMcv8fh9Wr15i/iywSpMPT8mzEBHR5F3uCWDfByutYNovzeWtk2JMuenx5ommkeO+ap5DnGu2XOly4/X30s8nJk+/ddsAvnh3B6pLY/j49b1Y2xRCwJ+cTINoIdLN323drFiNVTfSOzqsn6oYBsWsOxoD2VuOGtEojCGzLmjWLS3xmNVldizxKc4ES0SUL951iGgOJataVjDLXEbF7MwVTqcDDocTDpcDdU11qF9Wj6LSImvbzBYBB189hP0vHzB3M3Dz7ddjyKykvfijl1FZVwld0+0ZY8Uu5s61S6px423XYdedN2DXHdfjltt3YtnqJfaBUq7E7XbhC1/+BNZsXC5LDLPMiaUr6rDzps24bfcO3HbHDixfXm+tFYHHzdtWoaqmzMqnEoOcJy852YKuvb0XXq8bHm8yGJm8Ahsb1RERTZ2Y0XQw5MXxlmpZMnXHL9ZgIOhFbA66iorPz18cKMXRM/aXPak2rxjGf/3CJezcMAifR8edO3rlGqKFSVNUxBzZ/52JepOY0dVK+3wwK4/QLl6y/5FkEmPQiS6yovWdSe8fMOuIo7u6ij3FEpriTLBERPnibLBElLepzwY7JFNCRkjKzIqZUp0uFwJlAXxiz6fwsU98zJpgwmFWulZtWIWtO7dg5607cMPuG3HtTdsRCg6ju73HngnW3L+7o8fcboU1U+zwUBAdVzpx/x980jreueaLWL56Cb78J7+Pj9xyjZluwtIVjSPLxq2r0XziHD569w1YtW4pTp08b12WKF+ytA7H3j+FT/3ebnzmc3di+3UbsHrtUixb0WAu9Vi+sgEnT5xFRVUZPvv7d+C3Bz5ANBrHXb/zEfzeF+7EwMAw2lp7zGsU1b7E67Z/FhcXYMvWVThy5Ax6exLfAqe+N8n5Zzkb7NRwNlgiEuK6A7esPwunGARrCsQ4eC++uw66MbffgZ++5ENFIIbqsvSB8MVnR6L1em15FEfPFmIoNDf3Mc4GS1OlGgbKwxEUxOJptSTBCsmZdUXXzTdY+fg7h63Wcs51a2AMDUE7dhLO9WuhFBdD7+mBdvY8nJs3Qikqgt58CtrJZvPfSuZR7eOeLi9GZIoBO84GS0T5YMs6IppTaS3jzPqRqCJdt2sHvvTIl/FHf/ZVrFi7Ak6XPSC4ruvo7x3A0OCQlXY4VGtSiXse+B08+B8/j7LKEms70cX17Id2kG3bzs3weDzwuN1obKpDbWM1PveHn0FoOITfvH4Ir/7yTez92ev45Y9ewQ+f/QW+97+fQzQcxcrVTdhyzXpsvXadeb4gBs1jlpUHUG4ur/7qbZz68ILVeu9U8wW89cZhvLr3bfxm/xG4nE58+rMfxTu/PY54TMOXHv4Ebrh5G0KhCG6+dZs146t4jaK1XkGB18oXFIqBu+2uF+UVxWbeLDeXQrNcLKnVxtFVSCIimgzRCu7ohVprbLm4puJSdwBvfWiPOzcUll3jUogyse7AySZc7i6GpqvWvkfMY4jWenNNBOCefqkK+w4XIxTJXsUX3WOvWzfxhBJE81XUqVqt3FJqjyOsOpKm2S3pHA5rzDr9wsWsATjRqk7x+6H4vOaOCvSOLrkinThP0KyzRcz6HRHRbGLLOiLK2/S2rBNkJcr8seue27D9xmtw+Dfv4hc/+Dle/+VrePfNd7FywypztYJ//rsf4NWfvoo39x7Awdd+i9MnzqBhWQOqa6us/c+cOGf99BZ4sW7zGnjNStix905i4/Z1iMdjCAVDWL1+JaKxuBX4a2vtRGdbJy6evYKu9h709Q2isrocO27aagUDV65djncPHkVZWQBLltWj5cIVXL7YgW071ltj6P30317FyaNncf7sZXO5go/ctBkNjdV48af78cn7P4qly+pw5XIHnvn7n2HH9Ztw9MhpqwXgQ1/5BH7n3htxy65tuOXWbdi6dZX1Fqxd22Tmt44st5rLpUud6OqyWxOIx68atqybErasI6KE7sFCKwh3qrUS752rxztnGnHyUhWcqo5l1b1Q5fgDIjC37+gK7H1vNc53lKFzwI/2viKcay/DweYmq1vtfCBmoG1uKcCRM4VWK7vKktFjcFWUxPDaewFr29nGlnU0VbqiwBPXUBaOWq3sRv0WOx1wbtsCxeu1ZoPVL16C+7Zb0lvW+f3QL7TAGByGc+M6a5KJ2P4DMHr7Rh1P3AFaiwvQUeiDkS3olwe2rCOifLBlHRHNOtWRXtlJzZVWluFfv/Mc3n75NxjoG7BmdxWsb0VTNjQMHZFQGJ1XOnHhlN3K7cqFy3ItrCCdIMq1eByKqkBVVZw5eR6//tnrOPbuCfMhTMW6TStx72fvxJ/8xR/iq//nF7F+yypU1ZZb237w3ofQtDh+51MfRXtbt3W84kARdt99PZY01cLn8+DLX/kM/s//77/DR+/caY03t2pNE9pau3DDLVuxbHm9Ffz7139+GdU1ZYhrGuLmtcTNSubB3xzDr3/1W7xsLuLnm2+8bx3/1KkWvLz3UNrS2dlnrrEfGMcYpoWIiCZBTAQhZm4VQTjRyq5/2Ito3Ik3ji/HwVONCEVd1iLSokys6w/6zG3rsPf91XjpvbWzOplELkSjos4+F379TgCaGIk/g9tpYNuqYZkjWni6CrwIupxWzciuHaXQdOhdXdY/BEdtjTWRxCi6uU1rOxS3C3DaYwUb/f1ZA3Wi62uneT59ZCplIqLZwWAdEc0616iWSbKqZf54+YcvYfdn7kRZVZlZabIrRqoVaDNzir3Y7H1El55YLIZ//d4P8cE7J+0yh4o1m+2Wam1XOqwAmWrup6oOhIJhRCIRbLpmvbUsW9WE0HAQ3/1fP8CZUxdwy+6PoLTM7k574sgptF5qx8o1S1Ec8FtlIvgXjkSt69i39208+X8/i//1N89YXWO9PrcVwHN7nNiybY0VlHvh3/aZxw/j9jt3YKBvCMNDIStod+jgcbzy8iG8+utDeMVc3nzzqHX8M6cvm+XvmGXJpac70ZLAgKhXEhHR9BFdWTPb5wyFPVYAT8zwKhaRFmWpRMs0PUswbD4QAbnPf6wLDtUwP3MUBMMqzlz24tm9lfj63y/BOx/an2lEC1HI5USr3ydzGXQdRlePlVTrasU/VKvGqChm3XOkDmkW9/YComurDMIZw+kBbLGPWERgsN/rsdJERLOJwToimnVun4g4ZVZ77Pxg3xBe+fHL+J3P3WONXedyu6xWbqoYe0QE6zLuWiIQ9spPXsHpD07JEmDnLdeisanerK/pOLT/XTvoJ4J1DrGouOaGrfjX77+AH/3Tz3Hw9XfRcq4V67esRnVNBTwetxV0E8Q4c2I8O1G3u+X2HVZZT3c/1m1YYQXtzp+7jGUr67F9xwZcf8s2aJpuLU1L6836n1mRbO1EZXUZHvjCXaisKsPLL/0GWlwfeenWzLCSSzaZE/tnSn2M9KU/KxIR0QwRXWT3fbDCWkR6IVnZEEJHnws/fK0M/88Pa/BX/9hg/qzFoZN+RGKs/tPCJnpwXwwUYsDjsqpUqTVKMaOr3tVt1/vq6+D51H1WuVJRBvfdu6GUlVndFNy7bobr2m3JLgtidtgU4pghlwOXiwuscfKIiGYb7zxENOt8/tEDdyeCUcLlc5fxwtM/xvYbt+MPv/ZHWHfNeiv4Zbesy3bbUqzx4yqqSvDAw5/B7ffeZgX5WszjfHikGbr4VtVcRNBOnOfMh2fxe//uU7j9npux+boNuO6mrbjxth2obajGxbOXocXtMXUi4QiutHTg1ZcOWPnh4SA6WrtRWl5iXcuX/ugz+J1P3oZbbrsWN5jHEIG2zs4ea53Q2FiDu++5EQ1LqvDCD/fhwvk2qzwbj9ceuDgiu/2OxV8gE0RERGM4ecGHb79Qg/1HArjQ5p2z2V+JZkrM6cA79ZWIq2p6wE7U+Ybk2MhmXdB53TV22qxHOlauAAp8ViBPaaiHUlNtrwuFYIiJKaTEsVoCfnQXetOCgUREs4UTTBBR3qY6wYTT7cRAx7BZ+bEDaEnJdCQUwYnDx63A2Q0fuxG+Qp/Vwq7AX4Cahmo0LG1Aw/JGLF+3HOuvWY/rb9uJm3bfhMqaSqtF3XsHj+DFH+5FcCgEh8OBDdvEBBNxq/xccwv6+wfhLypERVWZtf25Uxfw2zffw29eexcxc7uSsgDefv1dKwDXfqULXZ29+ODwh7h0sQ0V1SVWK7yEY0ea8eN/+TVi0Riuv3kr/DKiJgKEly914MWfv4lj75+1goaCeM0iJWJ6iddfV1eJLdtW4bcHT6Crq98qS3k7LGLbplrzz4xyyg8nmCCiq12WYffnBU4wQdMp7lAx5HahIhiGw/pS1mZEIjC6e6F9eApa82n7Z2Z6JN+M2NuHYPT02vuai64CV8w64oeVJVYrvunCCSaIKB/Kk089wS8LiCgvz3/vGZmavK6L/RjqCVmVolSjHjDMbHlNBT73x78Pf5HfCrglWtmlEgG3cCiMwf4h7P3xr3HxdAt0OyRmrff57WDf0MCwXWTVvux1IxUxMzGSHjl+8qcc9QQerxvX37rdmrTi/XdOosuaAELB0hUN2PPQJ+Awz/Mvz76IM82XrPHtjJSerfbxk8E6Qbxml9uJ8vIAursHEE19mEmc3lQWUNFYIzM0aYHaRpmanMYsLUOJiGhiLUPjtx6fSH9ri0wR2cSMsDWDIaw060/+aCy12pQ3UTeLOBy4UuxDc0UJtGmeVOL+Lz0oU0REE2OwjojyNh3BulgojssfdlkVo1TZgnVurwef//dfQHlVOV761xetgF1BkR9uayYwBdFwFIODg+hu70ZfT7+5PuWo1uHsY6afS5Qlz5UIoomN0gJ2YicrqmYH2BJGrtNcZwfxgHs/81Fc95FN6O0ZwHf/7kfo7x2UaxIHTB7b2t/+P3ksS+I8sixl1ZqlKsy3gqaIwToiornBYB3NBNWsOJUHw1hq1rsqh8NWmag+pdauxiLqXIllyOPCxRI/rhQVIOaY/tGiGKwjonywGywR5W2q3WAFh0uFoekIB0XFPVmdslPp1StN03D+1HmcOXkWZ46fRseVTrRevIJL5y6byyW0trShp6MHoeEQDN3uXJtmpJVcqkSZ/DmyiZkYWZVIjxTIn4KdFi38RAVPtNr75Gdvh1uMlXehFYd+84Fd87Mk90tcSqL768gpRrbJ+Cl/VJYqKA0k1tFUsBssEdHcYDdYmgnii9CQ24lerwfDHhd8cQ1us46ZCMIliFpUaj6RjjpUXCz142xZMbr8XmscvJnAbrBElA9OMEFEc6a0vhierDPDZjBX93b14kLzOStwN1r6/goyZ1S116eHujL2ScmOpOUYc+n7J9L2z8TEFZVVpSgstMeqO3nsjBU0FMQ+aW3yRpJ2SDFljZQINco15g+fF6irSr96IiIiIrKJWlPQ7cTFgB8HGypxuK4CbcU+RJ32F2xivagdip9iEV1c+3xuHK8swZtNNWiuCFh5LesXvEREs4/BOiKaU5VLSqBmdDVIC25lNf76UQGycWVsN24dLfOYyXxJWbH1UwTvxFh1tuzXkHYKuUnm9Sa2EXXMJTW8VRMRERFNRLSyi5iVp9YiH96trcDLK+rw8zWN+EXG8uKqBry1pBrny4oQcjmgM0hHRPMMnwCJaE65fE5ULyuF6hy/kpTa8s1itXpLLRy1gfxpylw1In2FfQ67bNT5EuVWGC2RlsxrGewftpJDg0FrzLqkxIFSDjiStBMpayS7RATqltZznDoiIiIiIqLFhME6IppzXr8btSvK4SlwyhJhdAgr03jhvdHr7ONl3yfjXKkbJbrCJn5aRh+l7XInjh1pxuWWNjMnxs0b//oTR0g/UnIf0fV1xRIVsmctERERERERLRIM1hHRvOD2OVG3ugKBqkIrny2olllmx8/GDoqljV2Xsu1YAbIkud3IKjNhdY8QBeljyqWOXffCv76CF3/6hpVP3UbIvPY0crPENpVlKlYtdbBFHRERERER0SLEYB0RzStldUWoX1OBonLfyMypFpE2MoNeyWCYLTOfD3vfkQBd6olGHTb7ecKhKHq6+2UudSt57NT9RpLJuWtLAypWL3Oitoq3ZiIiIiIiosWKT4RENO+IVnYVjQE0baxCVVMAxeU+a9ZYhzPLLSt73MwigmDZA2SZMlZY2XEObEofuy5z20T5GMwVDgdQ4FVQVuJAY50DG1a50FDL1nRERERERESLnfLkU0+M/0RKRJTh+e89I1NEC0+gtlGmJqfR75YpIiLKR8tQVKYmp7+1RaaIFp77v/SgTBERTYwt64iIiIiIiIiIiOYJBuuIiIiIiIiIiIjmCQbriIiI8qBz8Agiorzx3klERJQ7BuuIiIjyENV1mSIiolzx3klERJQ7BuuIiIjyEIqzeQgRUb547yQiIsodg3VERER5GIppiLM/FxFRzsQ9U9w7iYiIKDcM1hEREeWpL8qHTiKiXPGeSURElB8G64iIiPIUiuvoDsdljoiIxiLuleKeSURERLljsI6IiGgSgubDZ1swxodQIqIsxL1R3CPFvZKIiIjyozz51BMceIeI8vL8956RKaKFJ1DbKFPTx6Eo8DgUOFUFiiwjIlpsxEOFGJ8uohnQjOl/xOhvbZEpooXn/i89KFNERBNjsI6I8sZgHS1kMxGsIyKimcdgHS1kDNYRUT7YDZaIiIiIiIiIiGieYLCOiIiIiIiIiIhonmCwjoiIiIiIiIiIaJ5gsI6IiIiIiIiIiGieYLCOiPLG+S6JiIiIiHLDujMR5YvBOiLKm8vjlikiIiIiIhoP685ElC8G64gob4V+v0wREREREdF4WHcmonwxWEdEeSspL5UpIiIiIiIaD+vORJQvBuuIKG9VNTUyRURERERE42HdmYjyxWAdEeWtdkkDB8olIiIiIpqAqDOLujMRUT4YrCOivLlcLixdvULmiIiIiIgoG1FnFnVnIqJ8MFhHRJOyav1amSIiIiIiomxYZyaiyWCwjogmJVBaitUb18scERERERGlEnVlUWcmIsoXg3VENGlbrrsGpeXlMkdERERERIKoI4u6MhHRZChPPvWEIdNERHnr7+3Fvl/uRTQSkSVE81ugtlGmpo9DUeBxKHCqnHqFiBYv8VAR1w1ENAOaMf2PGP2tLTJFNL+5PR7suns3W9UR0aQxWEdEU9bV3oE3f72PATtaEKYzWOdSFQTcDvicbKhORJQqFNfRH9UQ06fvUYPBOloIRKDuxtt3oaK6SpYQEeWPTxdENGWiMiK+PWSXWFpMCpwqagpcDNQREWUh7o3iHinulUSLhagLizoxA3VENFX89CSiaSGa+X/svo9z0glaFMRDaLnXKXNERDQWca/klxq0GIg6sKgLs+srEU0HfnIS0bQSA+ne8cl7sGz1SnD0LrpalbgdMkVERBPhPZOuVqKuK+q8onADY7sAAHGlSURBVO7LySSIaDpxzDoimjGxWAytFy+ho60Nfd29GB4aQiwShWENQU00N6Y6Zp3f5UCphw+eRET56I1oGIppMjc5HLOO5pIIzLk8bhT6/SgpL0VVTQ1qlzTA5XLJLYiIpg+DdUREtKj86sV9MjU5lT4nvA42TCciykdY09EZisvc5Nxx1y6ZIiIiurrxaYOIiCgPbpUfnURE+eK9k4iIKHf81CQiIsqDyqEYiYjyxnsnERFR7hisIyIiIiIiIiIimicYrCMiIiIiIiIiIponGKwjIiIiIiIiIiKaJxisIyIiIiIiIiIimicYrCMiIiIiIiIiIponGKwjIiIiIiIiIiKaJxisIyIiIiIiIiIimicYrCMiIiIiIiIiIponGKwjIiIiIiIiIiKaJxisIyIiIiIiIiIimicYrCMiIiIiIiIiIponGKwjIiIiIiIiIiKaJxisIyIiIiIiIiIimicYrCMiIiIioqwUxZApIiIimi0M1hERERERkaXAE0dt6TC2LevEp3eexrKqAbmGiIiIZguDdUREREREGcqLhrFr4xlrEemrmcuhY31DDx64oRlfvu04fu/GZty+qcV83WG0dBXJrYiIiGi2MFhHRERERIuWqhqjunr6vRHs3tKMu7aftJbdW5utslRiH/Uq6CK6rqEHf3znEXx8+3k0VgzB647DYb4nmq7gl4ebENP4uEBERDTb+OlLRERERItSfXk/7tx60grMbWq6gkBhCG5nHDevP4sdq1vgc8esZceqFqtMrAsUhKxtxT53bjtpHWMhO3m5NGtATgTsdq5qR2lhGIoiC4mIiGhWOO659+6/lGkiIqKr3pnT52VqcgJuh0wR0UJ3345juHnDOays7UZt6QCqAsNoqurDDWvPw+uKy61gtaCrLR2E1x3D+oYOXLvyErYub7X2EwG8oxfq5JYLkYJCTwx1ZaO7+pYWRrChsQc+dxwt3UUwjKlF7QaimkxNzoqVS2WKiIjo6saWdURERES06LicGjY3tVqBOIeqo758ANevuYDbN5+C3xuVWyUVmmW3bz6N69desLYV+4h9xTFcjqkFoebasUvl0Mfo0etxabh2RQfuvfYsCtzJACYRERHNHAbriIiIiGjRKfaFrfHZpkoco7ggLHMLU+eAD8dbyqz0WK3nVtb0Y/eWCzJHREREM4nBOiIiIiJaNESLOhFcW9/YLkumbn1jG4p8YTgXcAu7tz6sQzjmwJELZfjuK+vRfKVErklaVduPm9de5hh2REREM4xj1hER0aLCMeuIFqf6sn5cs+ISNi5px9qGDmxZ2ooiX/oMr5NVUhhGRfEwllb1oq5sAFHNgcGQV65dGKKaiqriEF473mBeuxvNV0rhdmqoKQ2mBeeqS0I4216M4YhLluSOY9YRERHlRnnyqScW/pzzREREOfrVi/tkanIa/W6Zys2ur/0t7ltXgNCJ5/Hn39orS1PtwaNP34RqmRPaX38Yj31HZsbz0Dfw+C21MmNq3Y9HHn1aZkyZ601jX0cWdz2Cb35+LXwyK2Tdf6LrMD3w2LexM+1SWvH2nq/jOZnL9j4geBIvfOVx5P83lnmszHOlSmw73jYpcnitIxLvXw6vI/F7kinz/R613aTfo8VFVQ38wW0Hsaa+c1q6vo4nFHXiw8tV+P6r10HX52kTNEWF4vIhrulQtTAU2I8DIjgXjSe/kBBj8t264RKuWd4pS2zvn6/A3iNLZC53LUOjxwLMxx137ZIpIiKiqxu7wRIREc0EEah5+ttZAzAjROAnM0CVqyyBONTehMf/7hEkHmcfWJWx3uRbdz+++bXdMjeePXg0I1AnjNo/h+sQAab0QJ1Qi51PfwMPyBweWjH6fShYi/tSjpObLEE/61x/i6/eJbOSCCDm9f7n8Fptu/HVvzOPneX9m4qsAb1JvUeLjwhGiW6vMx2oE8TMqRsa20YCYLPJ49JRVhyTubGp3gD8Nz+C9sYvQnMWyVKkBeoE3VCw71gDzncktxHEDLGz8V4SEREtVgzWERERTTcR1JkwULMHjyYCP6J11J6H8YhcJm5Vl7KvaNll7vPCiaCdL1iCdSNBKdFaLHHc53FKbuIrGRU5yy7tulL2b9okg0O5XofdWtA+jrm83ipLa7H0IZk0pW6TPE4gr2DmA48lgm/ytT97EiErX4CGbYkgox1MGx1AHE+ur1UEC+/HqnFitNlUl9g7iJZ0I++TuSRb1e3GuiZ5UHn+kdeW8V7TaCLo1NpbLHMzT5xLnHM2+Tw6Hrq3HVoOrfkUTzL4pjsLZSo7MeGE6Bob05KPDU6HjhXV/TJHRERE043BOiIiohkRxKln92OsIex3fW17MqiUbzfGuyqQCDu0n7K7YO771rvyXMmg1HOPpnbrrEWxjPWE+hLBsvE8jcfSrmsvTlzICKDleB37vvUn6QHI75wZeV+KK2UA7TtfT9smEbxCsH/M93C03SgLyGTrGfu1v/g4jsiXmwwySq37kwG3UUTQTbS8ky3ycnytCSLo9vZYb7PVotI8dpYWcQOdE3dRTpwfL3ZhwE7RBETA6WBz/t02J+tgc+OYs6rOBNWs0f/+HR043+ZB/5BTlkqqA6q/CmLgOWflWhRc+2UUXPNFuRLoqvkEOms/hXDBMjOnIOYqg6Gkt7DrGvTiXHt6sLO+bEimiIiIaLoxWEdERDTdvvN1PLLnT/DkizKfxUgwqvUMYHXHlEsuXRobArLVXhADl6yEqRUDMu6UbDknu2Nax7ZbnOU1Zl2aPdiZ6IKZCITlfB3pkoHKIC4dTh+PLfE+WK3e8h6PLXtAsr0vI8iIvXjyKw+PPdacKXmNMhCX82t9Go+ltYjLZP6dXCu3zdIirvqWxN/XtzO6K5vX/GO7JV1ym8Tf6c/H/V0j28nLVTKVpBdsgqEm28Aa3pUwnKVWB1a9cBv0ouvtxUyLMmuduU0mw7fOPI5f5sS57N+e2SAmf/jkzd1Y1RDG3oOjZ3B11WxCwY6HUbD9Qfg2fQaOQL29wrBekZWMearRU7kbXTX3oqPufoQKV1nlCSLwuO94vb2LVOSLYZ6OyEdERLTgMVhHREQ061JagNXelN4dU4xB9tgemcluV2Vi53705Bmk8a27KTlOXM5EK7OU7qUyyDWZ60gdd23CIJP5XuxM6SY7oZTWb7m0UBtPstWcHVCcynuebi+ePCQDicGLOGEdK+X3IcWo8QFTWgkmteLIpIKvi4vfG8HmpVdkzmbACb3xz6BXPDAyupxW81UYxbeYNWQf9IavQa9/BHrdf4Je/bC51gHDvxNa/Z+a29sj0lmL4oHW8N9gFGwSh7CIc4lzzob6igh2rh/EpQ4PovH0qr3iKYZn9Z1QFAWOkiazwFxvGIhdOYzQ+z9AWfsvUDB4wtzSfCXmuqi3ztq2v+xGaI707rEDQQ86B5KBTYdqvgtKSvSOiIiIpg1ngyWiGROLxdB68RI62trQ192L4aEhxCJR85GAtx2aO4HaRpmanPxmg00GudJbtIkWb4lxzZKzkCZnTJVloyY0yCwXXW0TLfiSx8zeei4l4JbSYm3C2UXTriF5rZa8riP1NY91jUnJ9yL12BPJ/n6PvMYsLfWSrz/jtWWaxHs+8hrybiGY7e8qS1nWa6JM5UXDuGXDWVy7sgV+b3I2UkPxIf6RDvMv7ywcZ74KdfAtxLYdgdr1PNTWJxG/7hyUjmeghD4EtBDU9r+HXvYJ6Ku+Dce7W2AU3wDow1DCF6BteQuOY79jHmO/deyhsBuHTjfi9WPL0T04/phwU/V7t3dix/oh/OZYEf7llQpZmuQobYJ3wyeheuxQduTsa4iee91KJwyWXGMu11lpR3wYJV2/hiecHtwUPr79HNY39Frpcx3F+OHbK9Na201kqrPB9re2yBTR7FPM/1weNwr9fpSUl6Kqpga1SxrgcrnkFkRE04ct64ho2vX39uLQmwfwk398Dm+/vh/nmk+jt7sb0UiEgToiy170JMZmT3QpNY1015yUZBfQ7J7G23lO2mB1S5WBOhGMemS8YNaIbNchAk2pwcnxuonanns1OTFEcYOVmLSRLsfTbqL3fLKy/F2NzJYbxKkfy8Dfd/bLST9Gj5lHSbs2nsHN68+lBeosov+o4CiE3vAoDLcI5Isyc5HrlFgPlMhlKNHLZk6HMvRba70R2GXto9f9qZm+FdAGoQQ/sPYRxLnEOcW5Z1KhT8M1a+2x4waD6ePMJWj9l2FEhu2MaFXX8radTlHYf9T80/58VrUg3JHsI0UOhZJfVgyFXXkF6ogWOlGHFXVZUacVdVtRxxV1XVHnFXVfIqLpxGAdEU2r93/7Dn71459ZlRgG5ojGNhKYq10x0i111KQK1th3yZlBR4JlIxM0FGDVbXaX2dHjwO3Bo2ndaVNmE00hJn9IO0eiBdhdj2C3bHEnZmnNGlzL6TpSZmgVLcLGCPg98Ng30rrn7tq2ZILZdLN5GucTk0kkuvuar2OzHW9E6MLRPFu3iXHh5AQTOb7WnIgWceLYI+MTZv5dpYwPOGqCjdTg5UwFC68um5pa4VB1mRtN6XkBhmcptNr/aGbSW84axTdCr/hd6GX3mDnVDtqFz0KvetD8JVsBFG4x13/a/Hv6AIrWZ+8kiXOKc8+kjcuC5nns9FizwCqKed0Oe9IJPdwPIz66e65qROGI20E/QxXbZn9ESJ0R9krPzLYYJFoIRF1X1HlF3VfUgYmIpguDdUQ0LcQ3ii+/8As0f3BclhDReJJjotVip5xQIDF2XfuhibpMprS8qr3J2nekK2vru8nukHKdvaR2Qd0/YQu51GBZ6qQH9pIIrOVyHXuwVL4uazy+tOOkTqKQfB/SjhM8ibflLLGiW6m1fpwx/ZIt8uTxPr9Wvo48x3YbacmWaLWW43uegwdWyTckdYKJtL8rGdzM2opu9AQTeQcLF5mjF2qh6WNXeZWBA1Bb/zeM8k8CzvQJGpSBN6F2/SvUnp+bOTFSnW6VoXgnED4PaL2A/xoo/W/YO6QQ5xTnnknLasMyBbic2QOShqHD0OJWWvUGoDg9VjqVrrihOe0JMhRdbJv9WGKcOkE3V59uGz2ZBdFiJurAoi7MVnZENB0YrCOiKetq78C+X+61ugUQUa7ErKHPjwRgbGLssYfxmAxOjUe0iHshETySrK6qIzOcJmcqTbKPP1EX1HxMfB25ydYF2DrOyFhvyUkY2k+Nc+wXH8efP5sI2EnjtOgb00hLumQgbLpe63OnMieYyPZ3JboLp45DZ89g+3ZmQy3rtXG8uvHs+2AF3ji+zBpHLo3swykCcGrns1B6fiaiWWLFyDrDVQbDUwfDXWdtKSgD+80/nOb2v4TS/5qVVgfSg3XiXOKc4twzRfTULS7UZA4o8dsBuUxi9lfFI1vBmTu5Gnfa6RTDgc3mn/br0x0FiHrsMHCmAk/M+nn8UjlCUbu1HhElibqwqBOLujER0VRwggkimhLx7aGolIgxPIgWgtmdYIKmT2KCBU6mQPkTM7PuXH0B9+1Itv4Ws8Fqa56BeumvoQ6/a3eFbfwLqD0/hdL3ErTVIgirmBvGgXgvHGf+g5nToLsboC973NzvvwPOYug1fwjH6a+mdYN94eB6vN3chKHw6FZs00VVDPzRJ9uwqsFuXXely42/+UG9lU5QPEUovP6PoThS7lti3LrW9xDvOIGhYBThguUIFq01VyS70Sp6DFWX/xkOTY51J33uxmZUlwTxg/2r0d4vW5bmgRNM0GLh9niw6+7dCJSWyhIiovywZR0RTclv3zjAQB0Rzby7KmDNZTnSGo0odyJoduSCaB2XpCAOteX/ghK0A3hK5Dwcl/4KysBrgB6y1qmXH4d65X9Cbfu2uYXdik2MW6deEvu9D2XwLXO7b40ar+7I+boZDdQJolNu6jh1NeVRlBant64zIoOINL8EwzCg9V0wC3TzBShw1W2Db8vn0FP9cQSL1plbiqCkDnf4irVtoOfNUYE6l0NDdckwjl4sQ8dA/oE6osVE1I1FHZmIaLIc99x791/KNBFRXsRAupcvXJQ5ooXBWyT7Uk5SwJ19xkWaYacP4JUf/RQv/ewAzssionxcs+IS1jemT9ehxDqsoF2CEu+BooetNmZKrA1KtMVeRNreJLlOjF9nxM10+jGF9j4/LnbNfIuaFfVhNFTZrdVEt1jRFfbIGXvsuQR9uNNqRRe9eAD6UIc1bp3qLbZ26O61+1+7Iu0o6XkLxb0H4QuehSdyxXx96Z1vblp3BTHNgRcPL4VhJN6N/AxEk912JyMyNCBTRPNfOBRCPB5HTX36FwVERLlgyzoimhTR/ZWTSRAR0UKgKAZ2rJq9L5fEuTKDXTPhXGt66711TSHUlmd0NdU1K0gnur/GO08ieOh7CL7zfbkSKG/7CSpbfwRv8JyZM+CK9UAx0oNqfm8MtSVB/PzdZdAnGagjWoxEXZkTThDRZDBYR0STcur4SZkiIiKa38T4brWls9cqq7ZsAKqcOXUmHTtXgFg8GTxzuwzce2PPhOcW3WMTHPH07q7ZOFQdPzq4ApEYWxYT5Yt1ZiKaDAbriChvsVgM55vPyBwREdH8JsZ3O9ZSMyszmIbNc5xoqZ50V9F8BMMOHDqZ3u11zZIQ7ssSsPO4dZkC9HA/ht54HNUt34cjngzcjaU/6EE0zkAd0WSIOrOoOxMR5YNj1hFR3i6fv4hLHKuOFiiOWUe0+IjAWWe/H71DBbjcHUBrbzGcDh1FvumZIEkc78iFWpy6UonjF2tw8FQTBkJeuXZm9Q87ce3aIThSvoJvrIrA69bR3GJPBFHo1fC7u7rxwdlC2TnX/FOLQRVj7ln52cEx62ixCpSUIFDGmWGJKHcM1hFR3k6dOIm+7h6ZI1pYGKwjWpwGQ16c7yjDufZy62dMU7G+sUOunZqXDq/GmyeW48Slapxpq7DONVuGQg64nQaW14VliT3ZxNLaCGrLY2jtcuNj1/Vh4/Ig3m32Ixydu441DNbRYuX2uFG3pFHmiIgmxm6wRJS3vm4OlEtERAuTmNFUBNOOt1TLkqkTrekGgl7E5qCrqGEAvzhQiqNn7FZ0qTavGMZ//cIl7NwwCJ9Hx507+PlNNBdYdyaifDFYR0R5Gx4akikiIqKFaSDks8aXmyoxDt5sdXkdz/OvVmQN2Ilurqrs6yq6y46aLZaIZhzrzkSULwbriChvsQgr+kREtLCJVnBHL9RCNxTENRWXugN468Ol+PWRVRgKu+VWSaJMrDtwsgmXu4uh6aq1rxirTrTWm2uiO+zTL1Vh3+FihCLZq/iqWXzduoknlCCi6cW6MxHli2PWEVHejr33vkwRLTwcs46IEroHC60g3KnWSrx3rh7vnGnEyUtVcKo6llX3QlXs6RhEYG7f0RXY+95qa7y7zgE/2vuKcK69DAebm2Z1jLrxiIk0xKQSR84UoiIQQ2VJXK5JqiiJ4bX3ArMyW20mjllHi9mGbVtkiohoYmxZR0RERESL0uWeAF46vNYKwolWdv3DXkTjTrxxfDkOnmpEKOqyFpEWZWJdf9BnbluHve+vxkvvrbWOMZ+IMew6+1z49TsBaProgJyYjGLbqmGZIyIiovmIwToiIiIiWrREV1bDGtktaSjssQJ4L7671lpEWpSlEi3T9CzBsPlABOQ+/7EuOFQDcU1BMKzizGUvnt1bia///RK886FfbklERETzEYN1REREREQZRBfZfR+ssBaRXkhWNoTQ0efCD18rw//zwxr81T82mD9rceikH5EYq/9ERETzHT+tiYiIiIiuIicv+PDtF2qw/0gAF9q81uQTREREtHAwWEdEREREdBURXXuJiIho4WKwjoiIiIiIiIiIaJ5gsI6IiIiIiIiIiGieYLCOiIiIiIiIiIhonmCwjoiIiIiIiIiIaJ5gsI6IiIiIiIiIiGieYLCOiIiIiIiIiIhonmCwjoiIiIiIiIiIaJ5gsI6IiIiIiIiIiGieYLCOiIiIiIiIiIhonmCwjogWpbjiwYCzDle8W3HedwPOFO5Cc+FunPTfZS0ifdosE+vENmJbsQ8RERERERHRTGKwjogWDQ1uDDprcKbgVrxffD+aC2/HFc8mdLlXoNfZiAFz3ZCj0lpEus8sE+vENmJbsY/Yd9BRYx2LiIiIiIiIaLoxWEdEVz0dDlzxbpEt5j6GXtcSGFDk2tyJfcS+zf6P4WTRXbjs3Wodm4iIiIiIiGi6MFhHRFctAw4ruHa0+NO44tmMkCMwqSBdJnGMkBpAq2cTjpjH7nU1WeciIiIiIiIimioG64joqhRTvPjQvxvnCm620jMlbh77XMFN1rliik+W0tVMN2SCiIhyxnsnERFR7hisI6Krimj1NuCoQXPhHdbYc/os3ObEOcS5mv27MeCsnZbWezR/RXVdpoiIKFe8dxIREeWOwToiuqoMOapw2v9Rq8vrbBNdY08X3mZeQ7UsoatRKM7mIURE+eK9k4iIKHcM1hHRVUOMHSeCZXM56YM492n/LvS4lsoSutoMxTTE2Z+LiChn4p4p7p1ERESUGwbriOiqEHKU4IJvJzTFJUvmjgYXLvp2IKiWyBK62vRF+dBJRJQr3jOJiIjyw2AdES14EbUIpwo/hrjikSVT53QA9SUKPrbWiQd3uvDl6134wg4X7t3kxEeWObCkTIHfM/bYdOJaTvs/hrBaLEvoahKK6+gOx2WOiIjGIu6V4p5JNNsUA3BpOnwxDYXROPzRmPkzhoKoBo/5O6mykTwRzWPKk089wdsUEeXl+e89I1Pzw9mCm6et26nXpWBDrYq71jtRUjD+RBGHWzT84FAMxjh30bLYBSwPvi5zNB8EahtlaupcqoKA2wGfk999ERGlEgG6/qiG2DQOG9Df2iJTRGNz6joC4RiKI1ErSOeNa3BqOhSI30UFmvnZHXE4EHQ7Meh2oc/nRlh8SzvD7v/SgzJFRDQxBuuIKG/zKVgnxqk7W3CTWf2aerCkwA185RY3aopUKDlM6JpLsE6BjuXB/SiNXZAlNNemM1iX4DB/YTwOBU7zAYBzARPRYiU+DsX4dBHNgDbeh+MkMVhH4xEt6SqHw6gbHEZxOIaCeByqDBZn+2zWzcKI04Fhtwttfh+uFBUg5pi5L98YrCOifDBYR0R5my/BuphagA/890JT3LJk8txOBQ/d4MKyitwrabkE6wSHEcOGoRfg1oOyhObSTATriIho5jFYR2Nxx3Ws7u5HzWAILk2zgnOJZTyiCieWuKpaLeyaywPo97phTLTjJDBYR0T5YL8dIlqwep1LpiVQJ9y0Qs0rUJcPMelFr7NJ5oiIiIhouvgjMWy/0oUlfUPwaBpEh9ZcanQiSCdicmJb0XW2YjiM7a1dKA+FrVZ6RERzicE6IlqQDLN61eFeLXNTE/DaE0nMpE7PauuaiYiIiGh6FEVi2NDRh7JQxMonalpWrE1VoVRXQampHr2I8sICezuxqbmIfb0xDdsvd6NyOMSAHRHNKQbriGhB6nMtQdgRkLmpWVmlwuUYP5AmJrLrCxroGEwu/WGzFpdjRU7MCiuumYiIiIimTnR9XdPVj/JgeKSFXColUAzvH/w+fP9uz6jF++U9cG7fmvY1qkiLRbSy29LWgyoG7IhoDjFYR0QLjmih1u5ZJ3NTVxsYP1AXihn4hwNR/I9fR/DXe5PLz4/Gc43VWcQ1s3UdERER0dSohoHVXf2oGgrZNSszL+pkhqJYi5gpTPF4oPj92ZfiIigFBSPbW4s4jkkcz6XpWNk9gKJozC4kIppljnvuvfsvZZqIKCfH3zsiU3MjphaizbMRujI9XVevbXKgNpD9u4uYZuB/74viQo9hta6bCkNxoCx2AQ4jKktoLniLpqdFJhERza7I0IBM0WJXOxjCqu4BK7AmFrWmBp77fgfO67bDuW2zvWxYB6W0BIpq1vFkAG9kEfsUF8OxZlVy+y2bzYpfDEZ3jxX8c2sadFVBr89jBwCnaMO2LTJFRDQxtqwjogUnqhRO28QSwnhdYC/3GWgbmJ4+EOKao0qBzBERERFRvkSrt6V9g1brOvEwK2pxamU5HCuXmcuKkUVtWmIF5gzR6i5jEZSy0rTtHatXQqmstPYRxxRdYEXLPTEuHhHRbGOwjogWHDFWnT5Lt6/h6PQE6gRxzSFHicwRERERUb7KgxH4YpoVUEswhoPQe3ph9KYsPT0TL2nbm0swKI5mHVMcvzAaR0UwDHX6qoNERDlRnnzqCd56iCgvz3/vGZmaGxd8O9E5TTPBCl/8iBsb67IH/461aviHA9P3jWpl9BSaQr+ROZoLgdpGmSIiooWkv7VFpmixEq3p1nb2YWnvUNrXtuKBVvH5oPgL7YJ8mQcwohFgOAhDSwYCxQgoohvsofoKxBxT+6L4/i89KFNERBNjyzoiWnAiapFMLTwL+dqJiIiI5pJb01EQ02QuSQTXjHAYrl03T2656Xqo5WVpgTpBpIsjMXjio89JRDSTGKwjogUnpvhkauFZyNdORERENJdE0MwXi6cF1EYYBpwb18O5fWva4srIZ102rbdnj5WHShB5h67DH43bBUREs4TBOiJacHR1emaBnQsL+dqJiIiI5pJT163WdWMxOrusLq3ah6cQ+afngHjc6iJrDA4h8m8/gdHRaW9oHie+/wC0o8esIJ9hHlMfGHu24cIoJ5kgotnFYB0RLRqP3O7GX33SO2rZUDv2rXB9jSPrPmLZUu+QW+WOg4QSERERTY5DF8vo2lSiRGttN/80YIRC0M6es4JygjE4CP3SZSAatfIQ6y9flhNKmHTNGq8uG9G6brwAIRHRTGCwjogWHFWfXFcEVVUgxgbOXJSsfSlsYl22fcTSHcy/4uaY5LUTERERkS1bd1VBb2u3Km9KIADF47VazVkydjDCERh9/YDLZRdoIsAXttNERPOA+bhJRLSwuIyQTM0dUffrHsq/ndx8uHYiIiKihUg3n151RbSdy07v6LB+qqUBwOeBMTBo5TMZ0SiMoWEoHrddEI9ZXWbHEhff0hIRzSLlyaeeyP9pk4gWtee/94xMzY0Lvp3odK+Wudz9l90eVBdlfhc7OX1BA998MSJzuauMnkJT6DcyR3MhUNsoU9PHoSjwOBQ4VWXUt/1ERIuFeKiI6wYimgEt0aJpGvW3tsgULValoSg2t/XAH41l/bxVqivh+5P/AEQiCP399+HauQPO7Vugt7Uh8i8/gvczn4DSUA/9QouZ/ze4P3UfHCuWQTt9FuHvPj3qmOK3WCxHaspwKVBolU3W/V96UKaIiCbGYB0R5W2ug3Wd7lW44PuIzOVuOoN1H1zR8P3f5D/Y8JLQQVRFP5Q5mgvTGaxzqQoCbgd8Tn7jTkSUKhTX0R/VEMsyvthkMVhHBdE4NnX0omI4nDWwphQXoeBr/8VqJRf69nehVlfD8+n7RgXrxHh20Z+9CI+ZV+tqEf/NQUR+8nMoGWOjiGOKQU/ebKrGgFe2wpskBuuIKB98uiCiBcen9Zs3r7kd6LelN/+HD3HNPq1X5mihK3CqqClwMVBHRJSFuDeKe6S4VxJNl6j5+xRyOqwgWiYrzKZpsMYqcTisMev0CxdHBeAsug7F74fi85o7KtA7uuSKdOI8QbcLESdn8yei2cVPTyJacNxGEA5DzuY1Ry71TWJyCfOaxbXTwiceQsu9rLgTEU1E3Cv5pQZNl7iqos/rtsaQy/q1qa7b49RZk0wUw+gfkCtSyG2UwkIoPp9d1Nll7ZNNV6HHPG/2dUREM4WfnES04Lj0YXj07AMGj+fxlyN49MfhUcuxK2MH3o636ln3OdWef7DOrQ+Zy7DM0UJW4nbIFBERTYT3TJpOXQVeBF1OK1g3KmCn6dC7uqzWdY7aGmsiiVF0c5vWdihuF+C0Z4M1+vuzdquNOB3oNM+nM1hHRLOMwToiWnAUs/pUHTkhc7kTw+aY9bNRS9ZvZiXD/C/ffcZSFTlpXTstbH6Xw5pIgoiIciPumeLeSTQdQi4nWv12i7hRzEqa0dVjJcVYdCJoJ2peimL+/qW0nDN6e81fTKe5kV1mDKd/mSr2EYsIDPZ7Pay9EdGsY7COiBakkthFePUsXRvmKa8+iLLYeZmjhcznZKCOiChfvHfSdDHMX6WLgUIMeFwjQbUEQxct67qtwJxaXwfPp+6zypWKMrjv3g2lrMwaz86962a4rt1mpS3R9EnDxDFDLgcuFxdY4+QREc023nmIaEESLdQqIwtnVlVxrWxVd3Vwq/zoJCLKF++dNJ1iTgfeqa+0xrBLC9iJlnRDQ3ba7YLzumvstNMJx8oVQIHPCuSJGWGVmmp7XSgEQ0xMISWO1RLwo7vQy9obEc0JfmoS0YJVGr8Ih5H+Teh85EDMvNYLMkcLHXvAEhHlj/dOmm6i5dv7NWWIpk42YRjQLlxE9IVf2MvPfplM/zQlPZL/OcLPPm/vai66uWjmE/Ll4kKcLStmoI6I5gyDdUS0YLn1IJaE3p7XLdbEtS0Jvm1dKxERERFNn06/F8erSjHkdlmBNsHo7UPswNs5LgehnT5j72cuEYcDFwJ+fFBdCp0BZiKaQwzWEdGCVh47j5JYi8zNP+LaymPnZI6IiIiIpouuKGgrKsCJqhJ0yi6ria9wRaxtokUQ24tA36DHhdMVxThdHoDGpqBENMcYrCOiBc5Affg9uIyQzM8fLiNsXRsRERERzQzRAq6r0ItjVaU4Vl1qBd0SATixpAbwEunEevFTdKM9V1aEo9VluBQoRMzMExHNNd6JiGjB8+r9WDX8aziNqCyZew7zWsQ1iWsjIiIiopkjgm5BtxMXA34cbKjE4boKtBX7EHXas72mBufEIlrO9fncOF5ZgjebatBcEbDymsIWdUQ0PzBYR0RXhQKtD42hg/NiwgkH4lgS+q15Tb2yhIiIiIhmmqEAEacDrUU+vFtbgZdX1OHnaxrxi4zlxVUNeGtJNc6XFVkTVYjutERE8wmDdUR0lTCsseFWDu8zb2zJ6fdnmzj3yqFXzWs5a+bEd7dEREREREREuWOwjoiuKn6tHSuHX4VXH5Als0ecUwQLxTUQERERERERTQaDdUR0VVFgoDjeijVDv0Kh1mXe5MQIJTNLnEOca83wXvPcV6xrICIiIiIiIpoMBuuI6KokZocVAbulwbfgNCKydPqJYzeZ5xDnculBWUpEREREREQ0OQzWEdFVS4wfVxY7h80DP0RN5AOrm+p0tHoTxxDHqokcs44txsqby3HyiIiIiIiI6OrBYB0RXfVUxNEQfg9rh17EquFXEIhfnlTQTuwj9hVj4oljNYQPW8cmIiIiIiIimi6Oe+69+y9lmogoJ8ffOyJTC4to/ebRB62WcJWxUyjSOsz8ECq9w3BqQYRDYYTDYYSCQQwPDmKgrxdt7R3ob29BTfQ4GkPvojLaDK95DLakW7i8RQGZmpyA2yFTRESUj4Ho1D47I0OzP3kU0XTZsG2LTBERTUx58qknOBI6EeXl+e89I1NEC0+gtlGmJqfR75YpIiLKR8tQVKYmp7+1RaaIFp77v/SgTBERTYzdYImIiIiIKCtF4ff6REREs43BOiIiIiIishR44qgtHca2ZZ349M7TWFbFrqdERESzjcE6IiIiIqIM5UXD2LXxjLWI9NXM5dCxvqEHD9zQjC/fdhy/d2Mzbt/UYr7uMFq6iuRWRERENFsYrCMiIiKiRUtVjVFdPf3eCHZvacZd209ay+6tzVZZKrGPehV0EV3X0IM/vvMIPr79PBorhuB1x+Ew3xNNV/DLw02IaXxcICIimm389CUiIiKiRam+vB93bj1pBeY2NV1BoDAEtzOOm9efxY7VLfC5Y9ayY1WLVSbWBQpC1rZinzu3nbSOsZCdvFyaNSAnAnY7V7WjtDAMRZGFRERENCsc99x791/KNBFRTo6/d0SmiBYeb1FApiYn4HbIFBEtdPftOIabN5zDytpu1JYOoCowjKaqPtyw9jy8rrjcClYLutrSQXjdMaxv6MC1Ky9h6/JWaz8RwDt6oU5uuRApKPTEUFc2uqtvaWEEGxp74HPH0dJdBMOYWtRuIKrJ1OREhjh+Hi1cG7ZtkSkioomxZR0RERERLToup4bNTa1WIM6h6qgvH8D1ay7g9s2n4PdG5VZJhWbZ7ZtP4/q1F6xtxT5iX3EMl2NqQai5duxSOfQxevR6XBquXdGBe689iwJ3MoBJREREM4fBOiIiIiJadIp9YWt8tqkSxyguCMvcwtQ54MPxljIrPVbruZU1/di95YLMERER0UxisI6IiIiIFg3Rok4E19Y3tsuSqVvf2IYiXxjOBdzC7q0P6xCOOXDkQhm++8p6NF8pkWuSVtX24+a1lzmGHRER0QzjmHVElDeOWUcLGcesI1qc6sv6cc2KS9i4pB1rGzqwZWkrinzpM7xOVklhGBXFw1ha1Yu6sgFENQcGQ165dmGIaiqqikN47XiDee1uNF8phdupoaY0mBacqy4J4Wx7MYYjLlmSO45ZR4sZx6wjonwoTz71xMKfc56IZtXz33tGpogWnkBto0xNTqPfLVO52fW1v8V96woQOvE8/vxbe2Vpqj149OmbUC1zQvvrD+Ox78jMeB76Bh6/pVZmTK378cijT8uMKXO9aezryOKuR/DNz6+FT2aFrPtPdB2mBx77NnamXUor3t7zdTwnc9neBwRP4oWvPI59Mpu7zGNlnitVYtvxtkkxLa91fIn9s/4e5HB+Gk1VDfzBbQexpr5zWrq+jicUdeLDy1X4/qvXQdfnaRM0RYXi8iGu6VC1MBTYjwMiOBeNJ7+QEGPy3brhEq5Z3ilLbO+fr8DeI0tkLnctQ6PHAsxHf2uLTBEtPPd/6UGZIiKaGLvBEhERzQQR6Hr621agbkwi8JIZoMpVlkAcam/C43/3CHbJ7AOrMtabfOvuxze/tlvmxrMHj2YE6oRR++dwHSJgmR68Emqx8+lv4AGZw0MrRr8PBWtxX8pxcpMl6Ged62/x1btkVhJBsbze/+l6rWOxfh8yA30pcjg/ZSeCUaLb60wH6gQxc+qGxraRANhs8rh0lBXHZG5sqjcA/82PoL3xi9CcRbIUaYE6QTcU7DvWgPMdyW0EMUPsbLyXREREixWDdURERNNNBFWyBLrS7cGjicCLaEG252E8IpeJW9Wl7CtaVpn7vHAiaOcLlmDdSFBKtOhKHPd5nJKb+ErGigZlSLuulP2bNsngUK7XYbcSs49jLq+3ytJaLH1IJk2p2ySPE8grmPnAY4ngm3ztz55EyMoXoGFbIsi4G1/9u3GCYllN72vNJIJ8owJxaXI/P40mgk6tvcUyN/PEucQ5Z5PPo+Ohe9uh5dCaT/Ekg2+6s1CmshMTToiusTEt+djgdOhYUd0vc0RERDTdGKwjorwp5n9ENJEgTj27H2MNYf//b+/Og+Q47zPPP1lnd1ejLwCNbtwgDgIgQJACeEMkRZkSqYMjWWbIloea5c6MZ72xGzPj+cP2bnjtcITXq90JR3BjIxh0eEOx4qxkLS1Lo4OkBIkiRJAQL5A4iPu+utH3Ud1dZ+bmm5XVXX0AqOqzuvv7gRP1ZlZVVldTTrz11O9938f//FMjoVKpQz2fWqZ87HDjTG4I5Jt/e8h/rZFQ6vt/Wjj0slk1fpHfUE8+QLqV7+hbo36ufTpxaUyAVuTP8ebf/ofRAeQ/nBv+vdQs9wO0f/jLUY9ZUef/sIO9N/0djvekGvJTEracy7331/9OR/y3OxIy+loOjARe43xTf/odU3nnV+RN53v1K+jGV8S5/1sYDhfHKPL1MTETOL13uvRhm5P13uk1N11VdSYE3B79H36uTRdbo+qNh/yjvkBQgepG9x9vS6HlW1W1579V1e5/5d8pdTT9C7U3f1WJqg3unqV0uEGONbrCrqO/QhdujA47VzXE/RaA26HvDKBUhHUAShaOljZnF7Do/MNf6k+++R/04uv+/gSGw6iWc5I3HNPfihnSuLrWr9obVN9Vr+FqUZ+fO41UzuUqyHLnzlWclTRn3Sjf1AP5Ib35IKzon2O0kaByUFc/GvlZvOoy//fgVb2VPGfdxIHkjZ4xIaP26cX/7o9uOdfbyM/oB2HT9l7d/yZ7/McWVMSZkO9PbjWv3SRfHyNOXmv0WyPsqp1yAiM1sE7FJjmhem8Aqx27V/aSh3Kb2zbHvPvcx4zlVG5zz1Pt75nXyv1Xnw1m8YevfLpTm1cntO+98Su4hpt2qur+P1LVp55T5c6vKVi7KneH470jr5mOrlDX8ifV0fRlta18VkOxzd7xPBM8vnl8Ve4pviWVaeIHoEj0nQGUirAOQMli1SMfSABMRkEFWPPe0cMxzTxt3/qmvzOxx5fnn9yrrlsEghOp3Lb39nOnjWOqzAqGl/oh12R+jvyCG8bQiZ/dMtA0v4sHbjF0dJyC6rO+9skEkiNGqtZyIdv0vdd9evEDP0gcvKwTxZ5rCv/NIVVXJHX3+uv+Xo6jkOw1/5PsZV8fnl0u2/THcmoedXvIlbJX/7nsVX8ie+W/l73ij9x7g3KqH1B21X9yH5+bkc7brKiyq/9MTtVOcwqPeS3zmrNh1bKkHtjer6ttUaUyo7v2VrRG0S2fl2VZCtatcw+49zuO0tc/0tDh76nhxquq6j/hPtJ9J+59qYqV3mN7Gx5RNjh6eGzfYFTtfSPBZjDg/hasgvQOwE3RdwZQKsI6ACWrW1rvtwBM3ci8cu8OT2+2MReo5YdLDm+5RQrebM/PFVWrhgnmKhupKvMryLzz54fkNuuBMQsijHqNsZV93s9QOA/cSPVX8T+HkavyGwmvxlf45arLRv8uVjw6fmGIm3q9Q31+c3jIaaGShtR+R9/yfpZcheS0vlev8tI9dwlVg6W9PgotXTKgJ+85rSfuPusf8VlhOQ1fkr3yP8pZ8rB3yKl/Uk7sbreHHHPve1pKt8vqPyhr4KPc/YEqOcuelRNeKXvps7Lrv5Crxlv6Ffd8I0NHzWuZ1zSvPdP23t2ncMjRje6wf2SEk+zT0OF/lO3e5iUv/EaJEz9VpvOcKoauqK5zv5b0fODfKwUzA2poe03B7Pif3QyHzTNz45nQEsDt0XcGUCrCOgAla2xq8lsAJmefuvLZS35IqWt4uOakjAwBndh39G6JizYULnpgAqdbDtMcNtHPYSrzntVm73gunLzdUNzv/3pkYYia1V5j0oaHHE+76Xmvk3e7/+YwHt9xTp/efkHVFSn/iM+MHzWCMdmr/1ROZI05mNv8+6x0l6zkNVmpa+6eLSv+vne/U/u49xx75X9y249J2X5Zg8e85xjmtcxrmteeSbHKrHZvzc0d1z84ep65vGzvNTlJP3gzVXVX3s21C8R6j7p/56rkAtlBRZITx9rxoZGhfPFEeNSwWAA3R98ZQKkI6wCUrHntavejCt+mA1MxHMzlq+hc4xZVyFdgDW9+WDa8aEGVNn8mN2R2/Nxo39SfjhpO+6S2rRuf7BRWs3lbvtrrqT/Rk35lmFnddMLAqaifo2CFVm912YkDv69/K1c1mPf4vWtvs5ruRL6ji36B2fBwX/d93O0PMx66dLSE+e/GLDAxje/15gtM3EKRr4/xdq5rUTBg+3vjWV0/lhNdr2zz/+jujJ5Xyql5RPay35Pd8CV3L5AL7RLnZTc+5/6PbKMU2+Xe/7vuf4JjsrI9uSf5zGua155JOzYMuq+Ta99sFVjLcn/uYG7RCTvRKyczfnhuwEkpmMmFfk7APHbijwiFK8Je77r1KrIAckyf2fSdAaAUhHUAShYOh7V+i/shBcCkjcyJ1qwH/CGo+bnrbnxwu+GRBVVyzXu95+aHXKrl0Mg8cP59uS1f7WWq5A7ctkKuMCxb8Wj+HPktH6wV83N8U+vzc/KZ+fhGnefv9Td/nh+uOvJ7GHWewZN6119d9ev5hThuMaffSEWef75vbPXfR4uOlFLh9m82+kFYfqXV6XuvX9/sP6hggYnbK/K/OcY5eqlZWfvmXV6r76ACLf9XbihraPQCDVbf2wp0/JMCXT9z98ygT9s7ppoHpMRFKdstVe+W1ftW7gkFzGua155JG5oTfsv9tzk0cSDpOLacbMZrBypqZYWiXruQbUWUDeXm1LJs89iJz2XmqTNs9+6zreMXswAwnukzm74zAJSCsA7ApGzevtVvAZgcMyfaKzrj5y85gzrz3T/St/xw6lZMRdyP8+GNzxuqOrzC6chKoSNy55/OYZm3/zmKM9EQYO88w/O6jSzKcePMLc79+t/pf/5uPrDz3arK7WaGK9lGqtam671+/4xfbVXCAhPGdL3+YvPmsY166/gGxRNjVmP0x3CaAC7Q/l1ZXT81aZa5Y/g+J9wgJ7pSTmSl90jD6jvg/hVyH/+arN79XjvQNzqsM69lXtO89kwxI3VrYll/T6qrzgVyY5nVX62oXwXnPim85oFcu8BA7d3u37n3ZwerlIrmouqxqqJp7/b41aUaSuWq9QDcGn1mAJNhvfjSC8w2AWBSDr//oU4fO+7vAfNDbbOZl2ry1lSP+cCPWZJfkdYEjrlFH4BimZVZH9hySc/cP/JvllkNNnvnywpc/T8UGDiUGwq75i8U6PqJrJ6fK7vFhKCW+8CMlOlW8Nz/4O5lZUdWy97wd+7z/ncpVCO76d8qePaPRw2D/fF72/Xu6XWKJ8ZXsU2XgOXo332lVZtX56rrrndE9J+/t8pr51nRJYo99N/LChZct8y8dS0fK9N2QvHBlBJVd2hwiQkTRobRWnZajdf+cdwiE3/wyGmtqBvU9w5s0Y1ev7KzBFfiY+YNLFFvyxW/BcwPW3Zs1677dvt7AFA8KusATJrpfNQvXervAcAMemqZasxtidVogGFCsyOXTHXcCEsZBa78r7IGcwGelbyo4NX/TVbffske8u4LXPs7Ba7/nwq0/r37iFwVm5m3LnDVPO+wrP533Mf97bj56o5cXDmjQZ1hBuUWzlPXtDSl+prR1XVOsl/J0z+X4zjK9lxyD9juG7AUXnmvKnf9gbpWfEGDS7a5jzShpK1I4rr32Nqut8cFdeFgVivqBnT0coPa+koP6oDFxvSRCeoATFbwS19++q/8NgCUbGnjMl25cEnZ7MhQHKCcVSzxx1JOUm1k4hUXMcPOHtQbP/yJfv7Tg7roHwJKsXvjVW1fkxvcnGel27zQLs/KdMmyE16NmZVulZW6kttMO/eQkfvM/HVOxm2PPqdxo6dalzvq/b2Zs3FVQqsbc9VqZlisGQp75Fxu7rk8e6Ddq6JLXT4oO97mzVsXqKjxntDZnRtWHU7eUF3XO6rpfk+Vg+cVTV5339/owTd7t11XOhvU6x+tl+Pkfxul6UtNra+QjPf5LaC8RaJRPfLZx1RRWfpSSQBgUFkHYEpq6+vdzsjjXqcEAIByZFmO7t982d+beea1xoZdM+FCy+h/e7etG1Lz0jFDTe2sF9KZ4a+Z9pMa/ODbGvzw//HvlJa2/lctb/mhKgYvuHuOwukuWc7oUK26Iq3mukH97NAG2ZMM6oDFIhfUPe71kQFgsgjrAEzZshWNevzpJxkSCwAoS2Z+t+b62avKam7oU8BfOXUmfXKhSunMSHgWCTv68iNdt31tMzw2L5gZPdx1IsGArR++t1HJNJXFwK2YvrDpE5u+MQBMBcNgAUwLU+Z/x52blclk1NnW7h8Fyg/DYIHFxwwRXdnQp9rYkMJB2z86MxKpkE5ebdTHF1Z788rNpHQmoPolGa3xh8Iay2ozqojYOn21ctRw1ah7LJvN7TvZlNJXP1BVz8cKZgdv+1Mm0yFl7al/x88wWCxkZjGJh59g6CuA6UFYB2BaNa1aqdXr18q2bfV2dvtHgfJBWAcsPia0au+tVne8Stc6a9XSXaNQ0NaSyqT/iKkx5ztyqVlnri/X8ctNeu/MOvUNVfj3zqzegZD2bI0rWJClrWlM5gK7K7mFIGIVWf3e4506dj7mD851/86mFTBz7nn7s4OwDguN5f7ZsGWT7v/0w1q38Q7/KABMnfXiSy/MfI0+gEUpnU6r5fJVtbW2qqezWwPxuNLJlPsRgcsO5k5t8xq/NTlrqiN+C8B8ZFY1rYikdc+Ga/q9h4/6R6fmn97ZqcMXV2koFVY6M7uBvqkafPrBbv3OntEr0hpHzsX02sF6PXpPr+7ZPKD//L1V6u4P+ffOvivxMfPplai35YrfAmafCebC0Yhi1dWqW1qvxqYmNa9drXA47D8CAKYPYR0AYFH5xetv+q3JIawDFoalS+L6X77+S39vav76H59UZzzm782N579wQzs35lZ3LWQ6+o77V8CS3jterX/81fLcHXNgqmHd55563G8BALCwscAEAAAAFp2+oUpvfrmpGnLPMVtDXm/llV8v09FzuWGvhcwwVxPUGWa47LjVYgEAQNkhrAMAAMCiY4arHr3ULNuxlMkGdLWzVu+cWq9fHdmseGJ8Ba05Zu47eHKdrnXWeAsumOeauerS2bmfyzI+FNR3ft6oNz+q0VBy4i5+wD1837aRlWABAEB5YoEJAMCicu7sRb81OSwwASwcnf0xL4Q707JcH19YpQ/PrfFWcg0FbG1Y0a2AlZstxgRzbx7dqH0fb9HFtga191XrRs8SXbjRoPdOr1N/GVTWGWYhDbOohJmrblltWsvrMv49I5bVpbX/49pRK8XOlqkuMLFx03q/BQDAwkZYBwBYVAjrAOSZkO186zKda12qG71LlEyHvGCutbtGsYqUltUMKpMN6sNzq/XLw1s0lIq4jwmrzX3s+RtLde7GMvUNlkdQV2gwEVRPPKjdWweGh8AW6uoLq6Vz9uffJKwDAKA4DIMFAADAomWGsjrezG4j4omoV0X3+qGt3mba5lghU5lm27NfnVaMSMjRN36nQ8GAo0zW0mAioHPXKvTdfcv1l//3Wn14qtp/JAAAKEesBgsAWFRYDRbAQrd9/aD23t2n4xcrdaUtqs7esDen3VxjNVgAAIpDZR0AAACwgJy8VKm//3GTDhyp1aXWirII6gAAQPEI6wAAAIAFxAztBQAA8xdhHQAAAAAAAFAmCOsAAAAAAACAMkFYBwAAAAAAAJQJwjoAAAAAAACgTBDWAQAAAAAAAGWCsA4AAAAAAAAoE4R1AAAAAAAAQJkgrAMAAAAAAADKBGEdAAAAAAAAUCYI6wAAAAAAAIAyQVgHAAAAAAAAlAnCOgAAAAAAAKBMENYBAAAAAAAAZYKwDgCAEtiO3wAAFI1rJwAAxSOsAwCgBCnb9lsAgGJx7QQAoHiEdQAAlGAoQ3kIAJSKaycAAMUjrAMAoATxdFYZxnMBQNHMNdNcOwEAQHEI6wAAKFFPig+dAFAsrpkAAJSGsA4AgBINZWx1JjL+HgDgZsy10lwzAQBA8QjrAACYhEH3w2frYJoPoQAwAXNtNNdIc60EAAClsV586QUm3gEALBq/eP1NvzV9gpalaNBSKGDJ8o8BwGJjPlSY+emSWUdZZ/o/Ynzuqcf9FgAACxthHQBgUZmJsA4AMPMI6wAAiwXDYAEAAAAAAIAyQWUdgBmTTqfVcvmq2lpb1dPZrYF4XOlkSo43UAaYG7XNa/wWAGA+6W254reA2WcmughHI4pVV6tuab0am5rUvHa1wuGw/wgAmD6EdQCmXW93t84cP6mLp88RzKHsENYBwPxEWIdyYwK89Vs2avP2raqtr/ePAsDUMQwWwLQ6/P6H+sWPfqoLp88S1AEAAGDBMn1d0+c1fV/TBwaA6UJYB2BamGq6X/74VZ0+dtw/AgAAACwOpg9s+sKmTwwAU0VYB2DKOm606c3X9qm7s9M/AgAAACwupi9s+sSmbwwAU0FYB2BKzLeHb//qTaWSSf8IAAAAsDiZPrHpG1NhB2AqCOsATMn7bx0kqMO84jjMpQgA8w3Xbswnpm9s+sgAMFmEdQAmzUyky9BXzDu27TcAAPMG127MM6aPzKITACaLsA7ApJjSfhaTwHyUzaT9FgBgvuDajfnI9JUZDgtgMgjrAEzKmeMn/RYwv2RSDNsGgPmGazfmK/rMACaDsA5AydLptC6ePufvAfNLJpnwWwCA+YJrN+Yr02c2fWcAKAVhHYCStVy+Ksf9A8xH2XTK2wAA8wPXbcxnps9s+s4AUArCOgAla2tt9VvA/JQajPstAEC545qN+Y6+M4BSEdYBKFlPJxPlYn5LDQ5QpQEA84C5VptrNjCf0XcGUCrCOgAlG4jzDTfmv0R/r98CAJQrrtVYCOg7AygVYR2AkqWTVCRh/jOTlfMhEADKl7lGs7AEFgL6zgBKRVgHoGQsLoGFIhnvU3KAb7sBoNyYa7O5RgMLAX1nAKUirAMALGqJvm6lBvr9PQDAXDPXZHNtBgBgsbJefOkFYn4AJXnl2y/7relT6WS1IduvmDL+kdl3zarS9WCV1w419Ci0rMdrzwUnEVWqdZmcVNg/gpkWqYqpoqZelmX5RwAAs8lxnNwXKCwogQXo2eef81sAcHuEdQBKNt1h3VInqQfSHYoo6x+ZGycDtToZqvXakdWtCq+Z42X2M0ENnbxDdn/MP4CZFgiGFF1So0glv3MAmE2poQEl+/tkZ+fuSztgJhHWASgFw2ABzClTUVcOQV1ZCmVVufW8rEjaP4CZZj4kDvV0qb+txZsryc7wuweAmWKuseZaa6655tpLUAcAQA6VdQBKNp2VddszPdpil8cE0mVXWefLXFuh5OVmfw+zzVTbBcNh71YMkQWAqXEcL5TLptOEc1hUqKwDUArCOgAlm86w7r5Mh1bZg/7e3CrXsC7bWafE6fX+HgAAAOYbwjoApWAYLAAAAAAAAFAmCOsAAAAAAACAMkFYBwAAAAAAAJQJwjoAAAAAAACgTBDWAQAAAAAAAGWCsA4AAAAAAAAoE4R1AAAAAAAAQJkgrAMAAAAAAADKBGEdAAAAAAAAUCYI6wAAAAAAAIAyQVgHAAAAAAAAlAnCOgAAAAAAAKBMENYBAAAAAAAAZYKwDgAAAAAAACgThHUAAAAAAABAmSCsAwAAAAAAAMoEYR0AAAAAAABQJgjrAAAAAAALiuVIkYytWCqjmmRaNQl3c2+r3a0ik1XAcR8AAGWKsA4AAAAAsCCEsrYa4wlt6ejVXW1d2tma23a1dupu9/buG93a4W7b2nu0pndAVems/0wAKB+EdQAAAACAec1U0q3qG9Seax3aeaNLd3T3q7l/SEuHkqpPpFSbTKvOvW1w91fEh7SuO+4FdnuutmtzZ6+iGUI7AOWDsA4AAAAAMC9Z7maGte6+3qFdLZ1eGGeCt6DjeB92zf1jmWPmvnDWVnUqrc0dfXrwSruWDSS80A8A5hphHQAAAABg3gk40tKBhO672q7G+NBwCGe222Vu5v78481tLJXWPS2dWtsbZz47AHOOsA4AAAAAMO80DCa8oaxLkmkvcDOb4QVx4bCCu+9R6L7d47bg7nsVaFoxHOjlnxvJ2trqnm9DV7+CNoEdgLlDWAcAAAAAmFeqUhnd1TY+qBtWW6vI059X5EtPjduiX35aoe1bZRU8KX8OE9Jt6urX+u5+hsQCmDOEdQAAAPNZzXY99vvP6dnn3e0Pv6h71/jHF7I1u/Xp3/26vvav/Pftbp/f698HYMEzK76aOerM0FUvb3Mcr0rOsSxvMymcFQrKikbcLTpuk9nCYfexgeHn5HI5xw/sbG847NLBhHcUAGab9eJLL/B9AYCSvPLtl/3W1N2X6dAqe9Dfm1snA7U6Gar12pHVrQqvafXacy3bWafE6fX+HoCFYMtTX9eu5oi/l2Pf+Fg/ePWov1eoWvf+i69qU4O/6+s787J+fsBt7H1Gz27OXbuM4eML1ZqH9PnPbFJN0N/3Lfj3DcBjqt3u6OrTnR29w9VwgfXrFP29r8iqqvQe4wkEvFDOMuHdGI6Zky6TkdJp/4jLdpT65a+Vee8DObbthXctNVX6pLFeqeDUa1zMlwoAUCwq6wAAAMpAoGGVdvjtUWq2a1md357IkbNqG/LbqXa1nvfbC9S2nRvGBXWFYk2btOPRJ/Xks1/X177ykH8UwEJRlU5rZX/ui958DGdVVcmqrJAqK0c2Uz3nMsHc2M0TCo1+fKxKqnDPYary3LvN1jCQUP1QkuGwAGYdlXUASkZl3eyisg5YeCaqrHP/v12dh7+rNw75u77Yg1/UF7aNKatzLc5Ksmo98LWvam2Nvxu/rA9+vV8XOvx916jfbe9ZvfLPB3NtAPOeCc3W9cS1paNXYdseDutUV6vQXdvcDtzY62oJ3PNlz12Qfe26+zq5j8i2u12uq9bJ5XXKBMZX6JWCyjoApaCyDgAAYA6lUym/FVR98z1+O69aW1b4QZ09pET+oYvWWq/wJS/d3z4qqAOwsIVsWzXJlHc7Kjrr6VX6t+8re/rs5LZTp5U59PGooM4wr7FsMOHNYQcAs4nKOgAlo7JudlFZByw8hdVf6d5eb9XCsLfTrhP/5XUd8+5x1dyvJ796p+rM16vu4wbcx8Vy94xU1t31pL5yf1Pu+Uqp7b3va/8n3k7Osju1Z8+dWt3ovkZ++KidUqL9rN599UO1jXv+AfXdsVeblrk/X6JVH31vn86698TuuEe77tqkxvrKkfNk3fN0X9OJgwd0dkxoVrdtr+7buUo1lRFv6ijDTqeUunFcP9k3MjdfseeduBrRl2rV4Y+l7cPvY6wJfi8A5h2zoMTO1m41DCXHVZ2YRSJif/OX/l6JEgklf/Kash8d9g/kmA/KZju4doW63WvZVFBZB6AUwS99+em/8tsAUJTjHx/xW9PA7QH1W2F1WBVzvwWiGrRC/g/m/mjJiOy+6jnfsr3u7VBBKQmAeW/pph1qWpJLpuzuFvVV1KvK7AYrFAgc1YUW7y7F7r1HOxsrvfbA9TZl62uVm4VJSnYd0bnLbqNxo7auqlbubFkNXPtEl9q9HcV2PKGnHt2m5TUVGjU/uhVUKJJV79Hz6hzz/HTlKq1c6l9z7Lja3MdE7ntKj96/QXVV4dHnCbjnqapX86YtWpq9rMttudK/5r3P6LFdTaqMBM30T8OsoPt4J67jJ656+80lnLfwdzZONq4brdLy4fcx1ujfC4D5qTqV1eq+AUXGVtb5wvfvkVURlTMwKKejQ9aSJbLMtwWZrOy2ttxKsGauOrP6a3ePe2nIeMecZEqZ9w/J6XGPFTCvYcK6noqIe52eWlh31727/BYA3B5hHYCSTWdY1x8IqyNggrK538YGdVkTlJXBRlAHLDyjwrr4eV1MrFBjtUmrAqpwP1ieOGMqe6u1Y/en1OBldXG1vterik0NxYd1Nbv1+Gc2qvom+ZYXcI0L64KqqCyoTTOP6VyhrQ+uUdVEn4zz3Gt5deMyOUfOqkM7df+j6xXzXzd946gO/PwXev9cpxyrWrFwUmfOXJVWPqRHSjjvqbOfuP/+ZLT8rpUj5275UP/8T7/ScfM+2s/rpPvvU6Zp20ioZ+as+97P3OcR1AELQXUqt7hEyHEmDOuCG+9QYGmD7FOnlfrpawq711DzTYDT1a3Uj3+m4OpVXoCnVErpNw94FXWBlc3uBTWpzMF3pcH8aj2j9UUj6oxNrT9GWAegFIXfYQIAAGAOnLjUrrTfDtQ35VaFLVwFtq9dF6777SI13rtWdQVBXaLjrA6/9kNvKoN9B06pre8mE+Ble3X5wM/cx/1Q+987q8j2VaoZ7jFmNXDpQ+3/wct65Qf7dPhS3JuA3RNertX3m0a1woV5X3pIA31uo+OaTrz9ul79WW7Bh7UlnxfAYhdwctvN2K3+FCaRsJxEwm3kHuykUnJMEOfPPecMDXmVd8PsrHv/zadlCRbMYwcAs4HKOgAlm87KuvbadWqvWaee2Io538yQiIp03Pu5GmsGtGF5t3c711s0lFUf1XXAgjK6sq5FJw/2a0W+YswfCtu2erd2Lsv9/37f5Td15PIKbbq3+Mq6bffep/rcCFpv1dTf/vCALsVzAV2i65ounb6kTrMz6vnSwMW39OYhU4aW0kBXj9bes1v1+UtQ73n98tWP1JN028m4Oi8E1FhQ6RbMZnTybI9Wbl2raj+wC9Ws0ua7t2lNc42C8R51+j/D5pLPa36m5Vp/98hx73fnHR8xarhssmt4yC2A+a8qnVFzfMirrJuIVVWh0N07ZGVtZU+eUujeXbLCYTnxuLKfnFRo+1ZZNTXuRbVf6Q8+UshU4q1olIaGlHn7t8Nh3lhd7nk7qKwDMIuorAMwpzpq1urSirvLYuupcjtrvsaauO5a3VoW25plo+dPAbAQHdfltvzwK7Mq7G5ta8wteCP1qvNI7ouEkhT08syqqf40eLeR0kDHzRfXSQ/2asBv5xzXwLhRYxd06Ng1DWT9XSMYUU3zJu16+hl9fu8q/+CI4s4LYLGzLUvpgOXXy41nm3noXFbNEikS8VZ31QTBnpNMSsmEvOWlzfx1g0NyMhn/3hHmmWZLhPJfZwDA7CCsAwAAKAMXLnbJDNoyAjVr1Vjl7/S264QZRjoF4ViDRr6OmLxwtHp4Ndqc7Yrlq/cMJ5fQDRx7Q6/+aJ8On25VX2JUaqeazffrgZX+rq/Y85bMCo45L4D5LBUMKHmT4MxbDGLAj/1DudLe7PlL3u1YTsa9poQjsior3B1HdnuHe+vfOYF4ZGReYwCYDYR1AAAA5eDMBfXkq8kqzEIMuWZf29ExVWfF6RssmJOuZq0eeOp+bWiqdneq1bjlfj325ce0JXfvLXX2F5S4NWzQw49skjeVXk2Tdjy5XcuGF0jMqq/9lN929bXq9Nv79PPvfVf7Do3MySdFVFE/hfOWonq5dtxh3jOAhcAEdUPh0M1ztXTGC98UCMgKhZW9cFFW4ZLUedmsFIvJMpV1LvuGGU4/8VnNaw5ECibiBIBZQFgHAABQFi7oUsfYsZ+THALrOv1Ja0HIF1RF853a8/RX9ezzX9Vjj9ypxprhNOyWLpxsLzhPRHVbHtKTzz+nZ7/2pLatrhzpTA616sIh03hIT/z+F/Xw7k3ua5j9BtXXRobnxDNDbdPdkzlvcXqSBSFloFprHzPv+et67C7/GIB5Kx0IqD8SVvZmQ2GztrfCq1kB1qqOyWkfPaelx4R5ZhXYJdVSVVVuGGxbm3c7lnmNrsqoN/QWAGYTYR0AAECZuHy8MMByTWUI7JX9+uhM78iqqpNlznOiq6AybgLZXl14+w1d8HfDlQ1adfdDeuxrz+nZ57+oPRtrhzud6ZZTOmxWtp3EeYvRdmrM7xDAguFYUnusQonQTYal2rbs9k4vkAs0rcitADuW+5jsjTZZ0aisSO5LC7ur27stZII6Ewq2ua+XDfCxGcDs4qoDAABQLq6fUk9BIV3P9ckNgc1rOfBjvX7wlNp6U6MWObRTQ+q5clnX/P3bafntz7Rv/3G1jjmPsin1tZzVR6/+WB9c8Y8prv64+7jCaebcnfRAr1o/OaB9rx8ffk+lnbdI1w/onUOX1ZefANCV7rig05/4OwDmtf5oRJ2VUS9MK6yu89peWNfh7QdWjUyOaXkz2vnVcY4jxwx7NXPf+SGcEx/I3+vJn9tU1XVXVXghIQDMJuvFl14ovMYBwG298u2X/dbUnVjzabXVrvP35ta6G0e0vv2I196x+oa3Ems5uNJVp3dOl8fvCAAAYK7FUmndd7VDVelMYQwnJxhQ+NG9inzus9LAoFK/+KUiX31GGhxU5tBhBXdsl1VTo8zhw7IqKhXcusUb/jr4F38tmUUnfOa7A7OYxYnldbpeE5uWsO7Z55/zWwBwe1TWAQAAAADmDbPgw9GmemXNfHPu/nD1iama6/XnDohVKfL053LtqiqFHrxPVm2N+wnYUmjX3Qpu2eQFdUomc6vD+vLnMiHdjSWVVNUBmBOEdQAAAACAeaWrqkKfrKgfHdbZjuwrV5V+Y39ue+fdkfZv3lb617/Jtd98S+n9B7x28p9+5D3VnMNU1JnbzqqoTi6rVYa56gDMEYbBAigZw2BnF8NgAQAAxgvajlb3DWhTZ5+imezIvHNmxddi+avAmmeYcM4sKHGsqcFtT29JHcNgAZSCrwoAAAAAAPOOWa31Sm21jjfWe4tBmMDNi+ksy/2/22/uX8PPGYyEdK5hiVetN91BHQCUirAOAAAAADAv2ZbUWl2pY031OrW8VvFI2AvfzJDW/CLTXoDn347d0sGALtVX68iKBvd2ibcPAHONKxEAAAAAYN4yi0CYkO5CfY3eW7NcH61cqtYllUqFgsOhXH4+OrOZirzuiohOLq/T22tX6OSyOnVVRamoA1A2COsAAAAAAPOeqbJLhIJqWVKlQyuX6ZcbV+pnd67Rq2O21zev1jvrVuh8wxJv+KsJ7wCgnBDWAQAAAAAAAGWCsA4AAAAAAAAoE4R1AAAAAAAAQJkgrAMAAAAAAADKBGEdAAAAAAAAUCYI6wAAAAAAAIAyQVgHAAAAAAAAlAnCOgAAAAAAAKBMENYBAAAAAAAAZYKwDgAAAAAAACgThHUAAAAAAABAmSCsAwAAAAAAAMoEYR0AAAAAAABQJgjrAAAAAAAAgDJBWAcAAAAAAACUCcI6AAAAAAAAoEwQ1gEAAAAAAABlgrAOwJyqSMX9Fm4mnoj4LQAAAADAQkdYB2BOrew6rXA26e9hrFQ6qLOty/w9AAAAAMBCR1gHYE5F0wO669J+ArsJmKDurdMbNJgK+0cAAAAAAAud9eJLLzh+GwCK8sq3X/Zb0ycZjul6wxYlItX+kdm3rO+ylvde8tprGnq1ZlmP154LZuirqagjqAMAAJj/nn3+Ob8FALdHWAegZDMR1gEAAAALFWEdgFIwDBZAySz3DwAAAIDbo+8MoFSEdQBKFo6yOikAAABQDPrOAEpFWAegZLHquZtXDgAAAJhP6DsDKBVhHYCS1S2t91sAAAAAboW+M4BSEdYBKFljU5PfAgAAAHAr9J0BlIqwDkDJmteuZqJcAAAA4DZMn9n0nQGgFIR1AEoWDoe1fstGfw8AAADAREyf2fSdAaAUhHUAJmXz9q1+CwAAAMBE6DMDmAzCOgCTUltfry07tvt7AAAAAAqZvrLpMwNAqQjrAEzarvt2q37pUn8PAAAAgGH6yKavDACTQVgHYEru+/RDikSj/h4AAACwuJm+sekjA8BkEdYBmBJT2v/IZx8nsAMAAMCiZ/rEpm/M8FcAU0FYB2DKlq1o1ONPP8mQWAAAACxapi9s+sSmbwwAU0FYB2BamG8Pf+eZL7DoBAAAABYd0wc2fWEq6gBMB+vFl15w/DYATIve7m6dOX5SF0+fk+P+AQAAABYay/2zfstGbd6+lZAOwLQirAMwY9LptFouX1Vba6t6Ors1EI8rnUwR4AEAAGBeMcFcOBpRrLpadUvr1djUpOa1qxUOh/1HAMD0IawDAAAAAAAAygRz1gEAAAAAAABlgrAOAAAAAAAAKBOEdQAAAAAAAECZIKwDAAAAAAAAysTUFphwHGWytrfJCrib5d8xd4LujxAOmp/FPwAAAAAAAADME5MO62zbVltXv94/dkGnLnbIqV6vQLhKwcDcpWQBy9LKhrAe31GjZUvCBHYAAAAAAACYVyY9DLY3PqR9b3+idz46p66+AaWzjkyBXSrjzNmWSNs6fyPpbbYz+YJBAAAAAAAAYC5MKqyzHVuXW7p06tINd6/8QrFEyi7DnwoAAAAAAAC4tUmFdY7tqL2rX9ls1j8CAAAAAAAAYKomPQw2Q1AHAAAAAAAATKtJh3UAAAAAAAAAphdhHQAAAAAAAFAmyiKscxxHjp11t4y/uW1WcwUAAAAAAMAiM2dhnQnlMskBpQa7lOxv1VDvVQ11X/G2RN91peJtSg/1KJseIrgDAAAAAADAojDrYZ2pmksPdmuo56oGu85rsOOshrouKNl7Tcn+Fm9L9FzRYOd5Dbj3Dbr3JXqvKpPsJ7QDAAAAAADAgjarYZ2dSWio+5IGuy4q2deirAng7Ix/71iOnGxKmaEeJUyw12kCveuy3WMAAAAAAADAQjRrYZ2pjIu3nVYy3iY7M+QeGV0lZ1mWouGwwqGQ1x7NUTYVV6L3mhf2maGxAAAAAAAAwEIzK2FdOtGreNspL3CTY/tHR/t3zz6pP/+3X9Wf/euv6LMP7FQkFPLvGeE4GaXiHRrsuiQ7k/SPAgAAAAAAAAvDjId1mWTcG8JqhrTeyoZVjaqMRlRdVaGltdWKRsL+PWM5ygx1aajnijf/HQAAAAAAALBQzGhYZ2dS3tBVu4hhq5nsSMWd7Ti3XUzCrBZrhtSOHU4LAAAAAAAAzFczFtaZsC091KVMss/s5Q7ewoefnNOpi9d14vxVXbzerkQ67d9zc2bhCeavAwAAAAAAwEIxc2FdJqHUYLec7O1DN+Mn+z/UKz8/qFd+8Vt9dOKCMpnbD3F17LQSvddNK3cAAAAAAAAAmMdmKKxzlEkNKpvs9/dvL53JqH9wSANDCWWyxc9Flx7qUTad8PcAAAAAAACA+WtGwjrHtpVJDbi3Gf/IzDGvYVabBQAAAAAAAOa7GQrrMsqmBv29W9uyrllP3L9Tn30gtz225y6tblrq31sEx1E2UXwFHwAAAAAAAFCuZiasc2xvzrrbqYxG9NTee/X5R3bpcw/nti98+l49dPcWxSor/EfdjqOs+1q3Wz0WAAAAAAAAKHczM2ed48guYghsIBCQZVn+3oiAe8xsRTNBnVP8PHcAAAAAAABAOZqZyroiV2c1C0l098bVNzDkH5ks9xWprAMAAAAAAMA8NyNhnVctV0RlXDKV1v4PjuvV3xzyj0yW5b7czBQJAgAAAAAAALNlZsI6908gGPH3bu1SS7s+OnnB35scKxByN8I6AAAAAAAAzG8zk3AFggqGil0gYqosBcOV3i0AAAAAAAAwn1kvvvRCyZO9ZbNZ7Tt4XPvfP+XtW8GwqldsVygS8/bNarDJ/lYNdV309ovxrf/4L/2WdOj4eb361kfqHyxiLjsrqNjyTYpULfUPSA9uqdYj25YoGCDAA+ZSOp1Wy+WramttVU9ntwbicaWTqaLntQQAAADKgRk9Fo5GFKuuVt3SejU2Nal57WqFw2H/EQAwfWZozrqAgpGYrCKq6yKhkCrdi16hYDCgimhYwSKGtpohsOGKOn8PQDno7e7WB28f1H/9L9/Xu785oAunz6q7s1OpZJKgDgAAAPOO6cOavqzp05q+renjmr6u6fOavi8ATKcZm+jNDE0NV9S4rZtXt4WCQf3e5x7Sn/3rr/hHcnZsXqs//v3Pa9fW9QrccqEKSxU1TbICQX8fwFw7/P6H+sWPfup1YgjmAAAAsFCZvq7p85q+r+kDA8B0mbGwziwwEa6sl3WLhSaikbCWN9SoYmxlXSCgWEVUjfU1t1w4wlTvRZes8PcAzCXzjeIvf/yqTh877h8BAAAAFgfTBzZ9YarsAEyHGQvrDCsYUuAWVW+2bXvbzWSyN7/PhICVdWu9YbAA5lbHjTa9+do+b1gAAAAAsBiZvrDpE5u+MQBMxYyGdXY6KTub9vfGS6YyOvjxKR346KTeHrP95oMTOnnh2oRhngnoKmpXKVRZ6x8BMFfMt4dv/+pNbw4PAAAAYDEzfWLTN6bCDsBUzFhYZ1aEzWYScuyMf2Q8233Mx6cu6ZcHj2rfb0dvb7x3VNfautzzjJ7zKh/URauXy7rlfHYAZsP7bx0kqAMAAAB8pm9s+sgAMFkzF9Zl07LTQ6aVO3ATmWxWQ+7FbCgxZkumxgd1wagq69cr6i0qwfBXYK6ZiXQZ+goAAACMZvrILDoBYLJmLKyzsynZmYS/N5apiMtvt2PJsoIKVzZoyYptii5p9PYBzC1T2s9iEgAAAMDETF+Z4bAAJmNGh8E6dtbfy7GskAKhSm+uuWhNs8JVDQqGq7yKOSsY9qrlvC0YcR9XoWCkWpElKxRbsVWxxjvd/Sr/TADm2pnjJ/0WAAAAgInQZwYwGTMW1gVDUYUr67xwLhiJKVy11JtrLrZ8k6ob71RVw3pVL9+iahPELd2oyrp1qqhb463wWtmwTrFl7uOatrn33aFwRS3z0wFlJJ1O6+Lpc/4eAAAAgImYPrPpOwNAKWYsrAuEoqqoXamqhnXudodiyzaqom6VQtElI8NYLcuroAtX1XnDWytqmr356KKx5QpV1CgQCOceB6CstFy+Kuc281ECAAAAi53pM5u+MwCUYsbCOjPXXC6Ia1CoYgkLQgALSFtrq98CAAAAcCv0nQGUagbDOgALVU8nE+UCAAAAxaDvDKBUhHUASjYQj/stAAAAALdC3xlAqQjrAJQsnUz5LQAAAAC3Qt8ZQKkI6wCUjMUlAAAAgOLQdwZQKsI6AAAAAAAAoEwsyLDOsvwGAAAAAAAAMI8suLAuHLK0vCasAIEdAAAAAAAA5hnrxZdeKHkAfTab1b53jmv/B6dVv6RSq1cs1ZKGlQoEIwoE5i7/C4eDWrWsQhuaKlQRZoQvMFNe+fbLfgsAAADA7Tz7/HN+CwBub9Jh3Ru/PalrN7r1yK5NilVGFLDmPhyLVoRVU1OpYJCgDphJsxXWZdxrTUd3r3r6+tQ/MKhEMuUdc5z5PUmvZVkKBYOqiEa0JFalupoaLauv9Y4BAABg4SGsA1CKSadaDbUx7d21SXXVlQq7HzCDAWt4M0NQp7IVc67CxxRuzFcHzH8Dg0M6ef6i3vrgYx0/e17X2zq8sC6dycz7oM4w78G8F/OezHsz79G8V/OezXsHAAAAACxekwrrTFXIquW1qq2u9I+MMB9Ck8mkBgcHJ72lUinvPKaCb6L7zflt2/ZfEcBCcvbSFb175BMvxFoIwVyxzHs179m8d/M7AAAAAAAsTpMK6wKWpeqqCn9vNPOBM5FIeIHaZLd0Ou2dx9xOdL/ZFtOHeGAxMBVl7x89rsstN/wji5f5HZjfBVV2AAAAALD4TG4YrJlvKTzx3Eqm6q6qqmpKWzQa9RaqiEQiisVi4+6vrKz0XgfAwtDTH9eh46e8YaFTZa4MFeY6VOQWzj3tloLuSaPumfNbhb9NfCz3M0yV+V2Y34n53QAAAAAAFo9JLTBhZLO24v1DSiUz/pG5V1kZUWyJ+7G5DBa7ABay6VxgwlSPmVDKzOE2HSotS/8+VKm6UZGZaY+91OWOHVFW30snxt1baFcwrIetYmI9aUi2/jGbVGKaqn/DoZA+tf1OxarGTzsAAACA+YEFJgCUYtKpVjAQUHV1hSqrIgoG/YUd5mgzr20q/SLREEEdMM8cP3dh2oI6w0RkJnobfZkYuz9ybI17GYx6F7BbcBwF3BMXtflPmS7md2N+RwAAAACAxWHSlXXD3A+x3gnmeg4598O2+eN9+gYwo6arss4spDDdc9SZIbDfCEZ1pzXxUP2xzJXrH+whnc3efNGae4JhPVLUgFlpyLL13WmsrMtb27xCm9at8fcAAAAwn1BZB6AUUy8CMSGZ2QKBud1MZQxBHTBvmOGvM7WYRNa9GMSLDMvMZeMzgUjZXz7M74oFJwAAAABg4WPMKIA5caV15lZ9NRe2Ht28Um6sjQpqaaD8L4cz+TsDAAAAAJQHwjoAsy6TzaqlvdPfmwmOUo5KiOukLYHihs3OJfM7M787AAAAAMDCRVgHYNZ1dPfKmcF5Ls2QVhPU3XqN1xHm8VtvMcfdTP6spTA/h/ndAQAAAAAWLsI6ALOup6/Pb82coCy1OsXX1t1hBb3FKSbizYlZJmbjdwcAAAAAmDuEdQBmXf/AoN+aOebiFrcdpXK7txV2pE8HJ17xtVwq64zZ+N0BAAAAAOYOYR2AWZdIFhuhTYWlsLv1llBd94AVVnTKVXQzW4U3O787AAAAAMBcIawDMOtmY5EEE5mF3b/6S6iKq3S3xgnCutKGwc5sFR4LTAAAAADAwkZYB2DWzdaw0oDlaMB9qWLjrZC73Rkwf49WTsNgy+lnAQAAAABMP8I6AAtW0P1jtJcwFPa+wATz1s3syFYAAAAAAIYR1gFYsCxHMtFbm+0UXV1X5z5n67jqOtI6AAAAAMDsIKwDsKAFrdww2GQJc8ntDobGxHOOHPI6AACAecN8aRvJ2IqlMqpJplWTcDf3ttrdKjJZBZhaBEAZI6wDsKAFLcsbDNtXQn9slXtpLFwVlq4cAADA/BDK2mqMJ7Slo1d3tXVpZ2tu29Xaqbvd27tvdGuHu21r79Ga3gFVpVm8C0D5IawDsKBZcryFI9rs4jtiDe6zVhauAOtYsk1kR3UdAABAWTKVdKv6BrXnWod23ujSHd39au4f0tKhpOoTKdUm06pzbxvc/RXxIa3rjnuB3Z6r7drc2atohtAOQPkgrAOwoAVkKWxZSjmW+osc7mAyuc8EI6OyOYf6OgAAgLJj+mtmWOvu6x3a1dLphXEmeAu6/T7zYXei71rNMXNfOGurOpXW5o4+PXilXcsGEl7oBwBzjbAOwAJnuRc6xxsKe6OEVWE3u89osHKXSK+qzj0PfTcAAIDyEXA7Z0sHErrvarsa40PDIZzZbtdvy/Xuco81t7FUWve0dGptb5z57ADMOcI6AAua+XbUdMAibmPAbRc7wME8585A7hJpumtZt9PGUFgAAIDy0TCY8IayLkmmvS5avptm+m5WOKzg7nsUum/3uC24+14FmlYMB3r550aytra659vQ1a+gnb8XAGYfYR2ABS9oBbyFJlJun6uUVWHvtMxsd6ayzmy57h/dNgAAgLlXlcrorrbxQd2w2lpFnv68Il96atwW/fLTCm3fqsIpivPnMCHdpq5+re/uZ0gsgDlDWAdgEcgNgw25Pa6rdvFDYTdYQVX5vbis21nLDYel1wYAo63Srief0Ve++Zyefd7ffvchae8zI/vPP6M9/qO15iF9/l/mjn/t2Se0pcY/DgBFMiu+mjnqzNBVr6fm5GYXdtx+m9lMCmeFgrKiEXeLjttktnDYfWxg+Dm5Hp7jB3a2Nxx26WDCOwoAsy34pS8//Vd+GwCKcvzjI35rci5cve63pl/I7WztDIQULvh+1fI6YI6y7rFetzO3IhDwwrvbMXV1Kfc05jkrlXtOwHT+Cs49VsZydNTJKuPvz4QNq1f6LQCLy3Y99odP6f49u3TXvWbbpuWZS7rUlvLvH7Hnd5/TIw/mHrelKaOTZ9v9e6bbKve1HtOmxkoFC78CTnbp+EBMdy2tyB9Qz8enZK7+Wx5+ROtqc1dhK1KhQPwTXZqpHw/AgmOq3TZ092tl/6DXI/PCtQ3rVflv/htFfudxRR7b623h+3ZLkYjXD5xIcPUqRfY+NPz4yKcfcTt+aTnXW7zwL2TnFqjoqqpQNnDzvl+xzPUYAIpFZR2ARcH008xHw6B721PCQhP3+8GfmevODIXNVdcBQDmIqHHnQ9ri702/ajVuuUcPPPVFfeEPvqHP7/UPF9q1czh4K9bpTy6rL51r2/FWtXySawNAMarSaS+oM/IRmlVVJauyQqqsHNlM9ZzLMVV3YzZPKDT68bEqqcI9h/fFbO7cDQMJ1Q8lGQ4LYNZRWQegZPOtss40TR/L9M1MdZ2J6pb6K73eTsh9/A33GW4X0Dv3SHXdxKisAzBzlmv93SsVK8zGQtWqWzao0+e7/AM5K7ftUr1f1GbHWyZZWbdJe566RyvrKhUJBZTsOqJzl/27fLE7d2pLQ8Tfi+vagX36+a/e1fETV6W1d05YWae+qzp35Ij3b8mJ45fU6d0PALdnQrOV/UNqig8p6Hbs8v0xJ52WMzCg7MXLyp67MLntzDn39rycvj7vvGYzr5EJBrzqOtt88zsFVNYBKAWVdQAWPrdjZ5b2NyMYgm7Xq8/teBVbIWeGwm60Al5lXcZ7HtV1AMpLxZqdeniNvzPLVlXlgzpXKq6OM6NDQwCYTiHbVk0y5d2Ois56epX+7fvKnj47ue3UaWUOfSz72nVZ5ttdn3mNZYMJbw47AJhN1osvvcCnTgAleeXbL/utyXnjtx/4relXYVn6RjCqSmf0dxGO29tKy1bS7WsNup2wNUFLTVZxQ7cScnQ4k1XUPXelu4UtRyHzXccEV88hy9Z3s0klCjp60+2JB4enaQewqJg563ar0c/H0qmUwhF/p++CDvzggFpye96cdRtqc+10y4f60evHcztGzQbtemCnNjTXKuxfBu3UkPquHNX7vzmlHnd/y1Nf167mgiCuUKpVhz92f5r7mxT2D42WUtt739f++mf07Gb/h1CvLnz7x/Ku/mbhiTHHr33mq9q7vto/5r6dM/v08wOtXjt2/xf11F0N/jfM7rnf/5n2H4t7ewAWF7OgxM7WbjUMJcdVnZhFImJ/85f+XokSCSV/8pqyHx32D+SY3pzZDq5doe7Km1wTi2QW1QGAYlFZB2BRMMMmzAXPVNaZeetabFMlV5wK9zlLArnquqwfws1cFAcARepsVY+5MBk1a3X33lX+zi3UbNdjX9yrLatHgjojEKlU3cb79fiXd6vRPzabWn59VK1D/o6rZt1Ofy6+TfrUHfmgzgSPR/UBQR2waEWyjioyZlKTCbh9NKffvT5YlpyBQdlmoQiX5fbhlLVlt95wLyJp737vMd09cuL+4937nZ5e7/GF8q9TnRy/kA8AzCTCOgCLRsDtclmW4wV2ZqH/oRIit0bTkXNvTcBnPhu73UFzGADmULsOn+v1v3gIquaO3dpzyyktm7TniXvU6E8jl247rnd/8LJefe2o2hK5Y+Fld2rHLun069/XK9/+UIULzfadedmrrH7l/92n05/s04/c9uGWggeYijtz/7e/r/0lLxpxVoeOtbrXZl+kSRv2Nin24J1qqvSPpdt19p3jGvB3ASw+ZjiqGQJ7M/b1Vi+0s89fUPL/+2f3upHJLSrR06PUT1+T0+HPkplKKf3Ou8qePO09Xu45nf7+3H1jmMCuMp3/ZgQAZgdhHYBFw3S2gm5/zFz4TLuvhLwt5j7BdA3dLp9sJxfcAcBca3v7PV3q9j9EBmu17r7diuX2xtu4Xc31+XGvXbr01oe63CcNtH6sE635arWgapq3++3ZNXDsoM62jXwgrlm9Ww+vb/D3suo8fkDH3J8XwOLlzUF8i06Y3ZobPq9IWE7CfAuRe7CTSskZHPJCOW9/aEhOR4fX9thZ9/7cCrMTMQtNAMBsIqwDsIhYMiMhzDDYoNt5a3M7ZsUyQ2Er3OdkndwCE1TWASgPrfrgw8sa8AtNAg136oFPjcz9NkpztXsd8wUatOlrz3lzKJntsYL54sJV+fnkZltcxz66oL78pbmyQXV+VZ3ddUrvHmL4K7DYmTmIzTeu5mYi9vXr7p1uf6++Xlal23PL+Ovzj31CMiW7t09Wft5PE+Klhmt7xzHz4QHAbCKsA7ComK6WqSsxQ2HN9639RYZu5nmrg0F/3jq3T+duXocRAObalQP66PJIZdzSbQ951cDz0vWDOndj7NxQKXWc+5DhrwBkW5bSgZuPcLC7zRI5br+tZokUiXiru3rDXMdwkkkp6fYEKyq8cM9U3Q0HewXMM82WCBW3KBkATBfCOgCLhllkwnL/mMo6c/Ez3a4Lzs3nPRmr3n2uWQnWDIXNdfvGd/4AYC6MWqAh0qTGGr99M3aXzv7An4Nu7PbPB/0HjRYM3KRibzqteUgbV4xdcTGixh1PaIO/B2DxSgUDSt4kODPfUTgDfqwfyq1VnT1/ybsdy8lkpXDEq77z5rhr77hlty4eCfktAJgdhHUAFhUT1pnQLjcU1tJFx1ax63uZTmCNFfCHwprqOsI6AOXirN46WrBAw0S6h0buDzRo3RN7tW2NPyfcslXa9OAT+sIXHsrtTyC2/B6tvV0IOCVN2rN7g2ryn8P7ekeq6SpXadujRax2C2BBM0HdUDh081wtnfHCNzPviRUKK3vhoqyJhrBms+5FLSbLVNa57Bvt7t8Tn9W85kAkF/4BwGwhrAOwqJigLuAFdbkLYJdjq6uECrl6t8OXcZ+fcZ+SnzcFAMrCJ/t0/Potvn745II689V3rnD9Bu34nS/m5q378hO6d9sqxYYntTO6lC48Xc0GPWDmufvDJ7XFPzSdGh+5X+vyC2AopbaTb+hywYITsfW3W+0WwEKXDgTUHwkre7OhsFlbMgtLBAOyqmNy2k0IN4YJ89zHBJZUS1VVbl/OPVdbm3c7lnmNrsqoN/QWAGYTYR2ARclU1ZmPhKYT9pZzy1qUUWrcjpzpHpqPj968dRP2FAFgbpw+eFRtN83rzurQsWtKjORft9Gqs22ztKjDyod078ba4Y6p3XVWH3wS17Ej10aq62632i2ABc98Udoeq1AidJNhqbYtu73T66AFmlbkVoAdy31M9kabrGh0eIEJu6vbuy1kungmFGxzXy9rVigDgFnEVQfAohNQLnDL1298kEkXPXG56RoudztuJt5zTFkdX7QCKCd9x/XBiXZvqP5EBo69oZ/8+mNd6xhSujC0y6aU6L6m0x8f9Q/ktO3fr2OXepXOn9BOqefccZ32d6dHtXbdVzD8VXG1HPIXlLiyX2dbRtLHQMMm7dkxC3PnAShb/dGIOiujXphW+J2p1/bCug5vP7BqpBTX9PyGO22OI8cMezVz3/khnBMfGNWly5/bVNV1V1WwqBiAWWe9+NILhdc4ALgtMwH5VLzx2w/81vSrsCx9IxhVpXPz7yJMhyvrfpRNu1e/g05GJ+yMfj9UoXut4U+Kt2RWkf0km1WVe1vpdvICBVfRIcvWd7NJJWaw5O6JB/f4LQAAgMUnlkrrvqsdqkpnCmM4OcGAwo/uVeRzn5UGBpX6xS8V+eoz0uCgMocOK7hju6yaGmUOH5ZVUang1i3uky0N/sVfS2bRCZ/5fsIsZnFieZ2u18SmJawzUw4AQHGk/x+ZE+DwGxStSQAAAABJRU5ErkJggg==;movable=0;resizable=0;rotatable=0;deletable=0;editable=0;connectable=0;" parent="1" vertex="1">
          <mxGeometry x="210" y="50.000000000000014" width="1099" height="805.7" as="geometry" />
        </mxCell>
        <mxCell id="s0d_2PxAGjj1B1G9Rtwe-1" value="&lt;font color=&quot;#6e5d57&quot;&gt;&lt;b style=&quot;font-size: 15px;&quot;&gt;BUCKUP&lt;/b&gt;&lt;br&gt;&lt;div style=&quot;text-align: justify;&quot;&gt;&lt;span style=&quot;font-size: 15px;&quot;&gt;&lt;b&gt;These are your backups, you can create a maximum of 5. The name of the backup indicates the date and time of its creation. A backup is an exact copy of your data that you can use to reconstruct it in the event of incorrect deletion of one or more elements.&lt;/b&gt;&lt;/span&gt;&lt;br&gt;&lt;/div&gt;&lt;/font&gt;" style="rounded=1;whiteSpace=wrap;html=1;strokeColor=#6e5d57;strokeWidth=5;fillColor=default;gradientColor=none;spacingTop=0;spacingLeft=0;spacingBottom=0;spacingRight=0;spacing=20;" parent="1" vertex="1">
          <mxGeometry x="240" y="362.85" width="330" height="180" as="geometry" />
        </mxCell>
        <mxCell id="s0d_2PxAGjj1B1G9Rtwe-2" value="" style="endArrow=classic;html=1;rounded=0;fontSize=15;fontColor=#6e5d57;strokeColor=#515151;strokeWidth=3;exitX=0;exitY=0.5;exitDx=0;exitDy=0;" parent="1" source="s0d_2PxAGjj1B1G9Rtwe-4" edge="1">
          <mxGeometry width="50" height="50" relative="1" as="geometry">
            <mxPoint x="1000" y="400" as="sourcePoint" />
            <mxPoint x="840" y="380" as="targetPoint" />
          </mxGeometry>
        </mxCell>
        <mxCell id="s0d_2PxAGjj1B1G9Rtwe-4" value="&lt;font color=&quot;#6e5d57&quot;&gt;&lt;b style=&quot;font-size: 15px;&quot;&gt;NEW BUTTON&lt;/b&gt;&lt;br&gt;&lt;div style=&quot;text-align: justify;&quot;&gt;&lt;span style=&quot;font-size: 15px;&quot;&gt;&lt;b&gt;By clicking on the &#39;New&#39; button in yellow, it will be possible to create a backup in the slot by overwriting the previous one.&lt;/b&gt;&lt;/span&gt;&lt;br&gt;&lt;/div&gt;&lt;/font&gt;" style="rounded=1;whiteSpace=wrap;html=1;strokeColor=#6e5d57;strokeWidth=5;fillColor=default;gradientColor=none;spacingTop=0;spacingLeft=0;spacingBottom=0;spacingRight=0;spacing=20;" parent="1" vertex="1">
          <mxGeometry x="940" y="220" width="330" height="130" as="geometry" />
        </mxCell>
        <mxCell id="s0d_2PxAGjj1B1G9Rtwe-5" value="&lt;font color=&quot;#6e5d57&quot;&gt;&lt;span style=&quot;font-size: 15px;&quot;&gt;&lt;b&gt;GEAR BUTTON&lt;/b&gt;&lt;/span&gt;&lt;br&gt;&lt;div style=&quot;text-align: justify;&quot;&gt;&lt;span style=&quot;font-size: 15px;&quot;&gt;&lt;b&gt;Clicking on the &#39;Gear&#39; button will delete all your data and rebuild it using the backup in the slot, doing so will restore your data to the state it was in on the date of the backup.&lt;/b&gt;&lt;/span&gt;&lt;br&gt;&lt;/div&gt;&lt;/font&gt;" style="rounded=1;whiteSpace=wrap;html=1;strokeColor=#6e5d57;strokeWidth=5;fillColor=default;gradientColor=none;spacingTop=0;spacingLeft=0;spacingBottom=0;spacingRight=0;spacing=20;" parent="1" vertex="1">
          <mxGeometry x="950" y="542.85" width="330" height="150" as="geometry" />
        </mxCell>
        <mxCell id="s0d_2PxAGjj1B1G9Rtwe-6" value="" style="endArrow=classic;html=1;rounded=0;fontSize=15;fontColor=#6e5d57;strokeColor=#515151;strokeWidth=3;exitX=0;exitY=0.5;exitDx=0;exitDy=0;" parent="1" source="s0d_2PxAGjj1B1G9Rtwe-5" edge="1">
          <mxGeometry width="50" height="50" relative="1" as="geometry">
            <mxPoint x="950" y="295" as="sourcePoint" />
            <mxPoint x="890" y="560" as="targetPoint" />
          </mxGeometry>
        </mxCell>
      </root>
    </mxGraphModel>
  </diagram>
</mxfile>
